ChauncyItalic_WeightMax.ufo
<glyph name="dollar" format="2">
  <advance width="513"/>
  <unicode hex="0024"/>
  <outline>
    <contour>
      <point x="271" y="0" type="curve" smooth="yes"/>
      <point x="397" y="0"/>
      <point x="493" y="80"/>
      <point x="519" y="177" type="curve" smooth="yes"/>
      <point x="536" y="239"/>
      <point x="506" y="295"/>
      <point x="396" y="343" type="curve" smooth="yes"/>
      <point x="289" y="382"/>
      <point x="263" y="425"/>
      <point x="278" y="482" type="curve" smooth="yes"/>
      <point x="295" y="544"/>
      <point x="358" y="581"/>
      <point x="422" y="581" type="curve" smooth="yes"/>
      <point x="486" y="581"/>
      <point x="518" y="551"/>
      <point x="507" y="512" type="curve" smooth="yes"/>
      <point x="500" y="486" type="line" smooth="yes"/>
      <point x="492" y="456"/>
      <point x="510" y="435"/>
      <point x="537" y="435" type="curve" smooth="yes"/>
      <point x="563" y="435"/>
      <point x="592" y="459"/>
      <point x="600" y="489" type="curve" smooth="yes"/>
      <point x="621" y="566"/>
      <point x="558" y="629"/>
      <point x="459" y="629" type="curve" smooth="yes"/>
      <point x="325" y="629"/>
      <point x="212" y="549"/>
      <point x="186" y="453" type="curve" smooth="yes"/>
      <point x="165" y="372"/>
      <point x="203" y="316"/>
      <point x="313" y="274" type="curve" smooth="yes"/>
      <point x="416" y="232"/>
      <point x="443" y="195"/>
      <point x="430" y="145" type="curve" smooth="yes"/>
      <point x="414" y="84"/>
      <point x="365" y="48"/>
      <point x="309" y="48" type="curve" smooth="yes"/>
      <point x="228" y="48"/>
      <point x="187" y="82"/>
      <point x="199" y="127" type="curve" smooth="yes"/>
      <point x="206" y="153" type="line" smooth="yes"/>
      <point x="214" y="184"/>
      <point x="198" y="204"/>
      <point x="171" y="204" type="curve" smooth="yes"/>
      <point x="144" y="204"/>
      <point x="115" y="181"/>
      <point x="107" y="150" type="curve" smooth="yes"/>
      <point x="85" y="68"/>
      <point x="159" y="0"/>
    </contour>
    <contour>
      <point x="344" y="335" type="line"/>
      <point x="271" y="65"/>
      <point x="246" y="10"/>
      <point x="234" y="-34" type="curve" smooth="yes"/>
      <point x="227" y="-59"/>
      <point x="239" y="-70"/>
      <point x="255" y="-70" type="curve" smooth="yes"/>
      <point x="272" y="-70"/>
      <point x="286" y="-58"/>
      <point x="294" y="-34" type="curve" smooth="yes"/>
      <point x="307" y="10"/>
      <point x="309" y="63"/>
      <point x="382" y="335" type="curve"/>
    </contour>
    <contour>
      <point x="380" y="335" type="line"/>
      <point x="446" y="581"/>
      <point x="470" y="626"/>
      <point x="481" y="668" type="curve" smooth="yes"/>
      <point x="487" y="692"/>
      <point x="475" y="704"/>
      <point x="460" y="704" type="curve" smooth="yes"/>
      <point x="444" y="704"/>
      <point x="427" y="693"/>
      <point x="421" y="670" type="curve" smooth="yes"/>
      <point x="411" y="633"/>
      <point x="411" y="585"/>
      <point x="343" y="335" type="curve"/>
    </contour>
  </outline>
</glyph>
<glyph name="ampersand" format="2">
  <advance width="687"/>
  <unicode hex="0026"/>
  <outline>
    <contour>
      <point x="177" y="157" type="line" smooth="yes"/>
      <point x="19" y="40"/>
      <point x="-29" y="-50.0"/>
      <point x="-29.0" y="-134" type="curve" smooth="yes"/>
      <point x="-29" y="-208"/>
      <point x="13.181818181818187" y="-245.0"/>
      <point x="67" y="-245.0" type="curve" smooth="yes"/>
      <point x="121.62068965517241" y="-245.0"/>
      <point x="163.0" y="-205.55172413793105"/>
      <point x="163" y="-157" type="curve" smooth="yes"/>
      <point x="163.0" y="-112.0"/>
      <point x="125" y="-93"/>
      <point x="125" y="-45" type="curve" smooth="yes"/>
      <point x="125.0" y="4.122448979591837"/>
      <point x="143" y="57"/>
      <point x="231" y="121" type="curve" smooth="yes"/>
      <point x="581" y="378" type="line" smooth="yes"/>
      <point x="716" y="477"/>
      <point x="760.0" y="541.0"/>
      <point x="760.0" y="618" type="curve" smooth="yes"/>
      <point x="760" y="679"/>
      <point x="717" y="715.0"/>
      <point x="671" y="715" type="curve" smooth="yes"/>
      <point x="610" y="715.0"/>
      <point x="567.0" y="671.0"/>
      <point x="567" y="632" type="curve" smooth="yes"/>
      <point x="567.0" y="595.0"/>
      <point x="604.0" y="573.0"/>
      <point x="604" y="526" type="curve" smooth="yes"/>
      <point x="604.0" y="491.2631578947368"/>
      <point x="586.1273008596174" y="460.6216931880829"/>
      <point x="526" y="416" type="curve" smooth="yes"/>
    </contour>
    <contour>
      <point x="572" y="152" type="curve" smooth="yes"/>
      <point x="572" y="105"/>
      <point x="518" y="68.0"/>
      <point x="442" y="68" type="curve" smooth="yes"/>
      <point x="333" y="68"/>
      <point x="268.0" y="133"/>
      <point x="268" y="240" type="curve" smooth="yes"/>
      <point x="268" y="344"/>
      <point x="328.9375" y="423.0"/>
      <point x="388" y="423.0" type="curve" smooth="yes"/>
      <point x="420.0" y="423.0"/>
      <point x="437.0" y="399.2962962962963"/>
      <point x="437" y="359" type="curve" smooth="yes"/>
      <point x="437.0" y="301.8878504672897"/>
      <point x="406" y="248"/>
      <point x="424" y="262" type="curve" smooth="yes"/>
      <point x="477" y="302.0"/>
      <point x="517.0" y="327.0"/>
      <point x="544" y="327" type="curve" smooth="yes"/>
      <point x="575" y="327"/>
      <point x="595.0" y="352"/>
      <point x="595" y="383" type="curve" smooth="yes"/>
      <point x="595.0" y="443.3392857142857"/>
      <point x="521.6666666666666" y="492.0"/>
      <point x="419" y="492" type="curve" smooth="yes"/>
      <point x="264.3726937269373" y="492.0"/>
      <point x="128.0" y="342.4140127388535"/>
      <point x="128.0" y="187" type="curve" smooth="yes"/>
      <point x="128.0" y="64.54404145077719"/>
      <point x="219" y="-15"/>
      <point x="390" y="-15.0" type="curve" smooth="yes"/>
      <point x="602.0" y="-15.0"/>
      <point x="718.0" y="84.44827586206897"/>
      <point x="718" y="209" type="curve" smooth="yes"/>
      <point x="718.0" y="276.0"/>
      <point x="682.0" y="309.0"/>
      <point x="629" y="309" type="curve" smooth="yes"/>
      <point x="579.0" y="309.0"/>
      <point x="551.0" y="275"/>
      <point x="551.0" y="238" type="curve" smooth="yes"/>
      <point x="551.0" y="205"/>
      <point x="572.0" y="187"/>
    </contour>
  </outline>
</glyph>
<glyph name="comma" format="2">
  <advance width="297"/>
  <unicode hex="002C"/>
  <outline>
    <contour>
      <point x="129" y="0" type="curve" smooth="yes"/>
      <point x="152" y="-10"/>
      <point x="160.0" y="-18"/>
      <point x="160" y="-38" type="curve" smooth="yes"/>
      <point x="160" y="-68"/>
      <point x="128.48249303391594" y="-104.78137034400685"/>
      <point x="64" y="-134" type="curve" smooth="yes"/>
      <point x="35.39813611559172" y="-146.82152518956232"/>
      <point x="26.0" y="-162.36170212765958"/>
      <point x="26" y="-177" type="curve" smooth="yes"/>
      <point x="26" y="-195"/>
      <point x="39" y="-209"/>
      <point x="55" y="-209" type="curve" smooth="yes"/>
      <point x="71.0" y="-209.0"/>
      <point x="89" y="-204"/>
      <point x="110" y="-195" type="curve" smooth="yes"/>
      <point x="208" y="-151"/>
      <point x="279.0" y="-64.0"/>
      <point x="279" y="71" type="curve" smooth="yes"/>
      <point x="279" y="136"/>
      <point x="245" y="176"/>
      <point x="195" y="176" type="curve" smooth="yes"/>
      <point x="129.0" y="176.0"/>
      <point x="81.0" y="125.0"/>
      <point x="81.0" y="70" type="curve" smooth="yes"/>
      <point x="81" y="33"/>
      <point x="99" y="13"/>
    </contour>
  </outline>
</glyph>
<glyph name="hyphen" format="2">
  <advance width="394"/>
  <unicode hex="002D"/>
  <outline>
    <contour>
      <point x="393" y="279" type="curve" smooth="yes"/>
      <point x="170" y="279" type="line" smooth="yes"/>
      <point x="151" y="279"/>
      <point x="141" y="272"/>
      <point x="133" y="254" type="curve" smooth="yes"/>
      <point x="128" y="243" type="line" smooth="yes"/>
      <point x="125" y="236"/>
      <point x="124" y="232"/>
      <point x="124" y="228" type="curve" smooth="yes"/>
      <point x="124" y="215"/>
      <point x="135" y="207"/>
      <point x="149" y="207" type="curve" smooth="yes"/>
      <point x="372" y="207" type="line" smooth="yes"/>
      <point x="391.0" y="207"/>
      <point x="401" y="214"/>
      <point x="409" y="232" type="curve" smooth="yes"/>
      <point x="414" y="243" type="line" smooth="yes"/>
      <point x="417" y="250"/>
      <point x="418" y="254"/>
      <point x="418" y="258" type="curve" smooth="yes"/>
      <point x="418" y="271"/>
      <point x="407" y="279"/>
    </contour>
  </outline>
</glyph>
<glyph name="period" format="2">
  <advance width="280"/>
  <unicode hex="002E"/>
  <outline>
    <contour>
      <point x="128" y="-15" type="curve" smooth="yes"/>
      <point x="208" y="-15"/>
      <point x="277" y="47"/>
      <point x="277" y="117" type="curve" smooth="yes"/>
      <point x="277" y="153"/>
      <point x="252" y="178"/>
      <point x="217" y="178" type="curve" smooth="yes"/>
      <point x="131" y="178"/>
      <point x="67" y="111"/>
      <point x="67" y="47" type="curve" smooth="yes"/>
      <point x="67" y="11"/>
      <point x="93" y="-15"/>
    </contour>
  </outline>
</glyph>
<glyph name="zero" format="2">
  <advance width="613"/>
  <unicode hex="0030"/>
  <outline>
    <contour>
      <point x="477" y="650" type="curve" smooth="yes"/>
      <point x="315.0" y="650.0"/>
      <point x="169.4694326154816" y="530.2531526505818"/>
      <point x="118" y="337" type="curve" smooth="yes"/>
      <point x="55.33889976852001" y="107.9274532521305"/>
      <point x="113.0" y="-15.0"/>
      <point x="299" y="-15" type="curve" smooth="yes"/>
      <point x="455.0" y="-15.0"/>
      <point x="612.63529270076" y="99.10509274950405"/>
      <point x="671" y="317" type="curve" smooth="yes"/>
      <point x="726.5638928507392" y="526.908039658348"/>
      <point x="654.0" y="650.0"/>
    </contour>
    <contour>
      <point x="513.0" y="579.0"/>
      <point x="547" y="481"/>
      <point x="493" y="276" type="curve" smooth="yes"/>
      <point x="450" y="111"/>
      <point x="388" y="56"/>
      <point x="325" y="56" type="curve" smooth="yes"/>
      <point x="269.0" y="56"/>
      <point x="232" y="149"/>
      <point x="292" y="371" type="curve" smooth="yes"/>
      <point x="332" y="518"/>
      <point x="386" y="579"/>
      <point x="454" y="579" type="curve" smooth="yes"/>
    </contour>
  </outline>
</glyph>
<glyph name="one" format="2">
  <advance width="489"/>
  <unicode hex="0031"/>
  <outline>
    <contour>
      <point x="232" y="523" type="line" smooth="yes"/>
      <point x="207" y="523"/>
      <point x="195" y="535"/>
      <point x="195" y="557" type="curve" smooth="yes"/>
      <point x="195.0" y="580.0"/>
      <point x="217.0" y="601.0"/>
      <point x="248" y="601.0" type="curve" smooth="yes"/>
      <point x="308" y="601" type="line" smooth="yes"/>
      <point x="355.72727272727275" y="601"/>
      <point x="389.74979236398934" y="613.4998615759929"/>
      <point x="413" y="629" type="curve" smooth="yes"/>
      <point x="434" y="643"/>
      <point x="448.0" y="649.0"/>
      <point x="469" y="649" type="curve" smooth="yes"/>
      <point x="486.0" y="649.0"/>
      <point x="497.0" y="635"/>
      <point x="497" y="613" type="curve" smooth="yes"/>
      <point x="497.0" y="598"/>
      <point x="491" y="579"/>
      <point x="478" y="535" type="curve" smooth="yes"/>
      <point x="461" y="478"/>
      <point x="394" y="247"/>
      <point x="371" y="158" type="curve" smooth="yes"/>
      <point x="367" y="143"/>
      <point x="364.0" y="134.0"/>
      <point x="364.0" y="118" type="curve" smooth="yes"/>
      <point x="364" y="102"/>
      <point x="374" y="90"/>
      <point x="398" y="86" type="curve" smooth="yes"/>
      <point x="445" y="78" type="line" smooth="yes"/>
      <point x="468" y="74"/>
      <point x="482" y="63"/>
      <point x="482" y="41" type="curve" smooth="yes"/>
      <point x="482.0" y="21.0"/>
      <point x="467.0" y="0.0"/>
      <point x="436" y="0" type="curve" smooth="yes"/>
      <point x="75" y="0" type="line" smooth="yes"/>
      <point x="50" y="0"/>
      <point x="38.0" y="12.0"/>
      <point x="38" y="37" type="curve" smooth="yes"/>
      <point x="38" y="59"/>
      <point x="55" y="75"/>
      <point x="85" y="79" type="curve" smooth="yes"/>
      <point x="134" y="86" type="line" smooth="yes"/>
      <point x="169" y="91"/>
      <point x="200.0" y="114.0"/>
      <point x="214" y="158" type="curve" smooth="yes"/>
      <point x="239" y="237"/>
      <point x="281" y="364"/>
      <point x="305" y="466" type="curve" smooth="yes"/>
      <point x="307" y="474"/>
      <point x="308" y="481"/>
      <point x="308.0" y="492.0" type="curve" smooth="yes"/>
      <point x="308" y="512"/>
      <point x="293" y="523"/>
      <point x="267" y="523" type="curve" smooth="yes"/>
    </contour>
  </outline>
</glyph>
<glyph name="two" format="2">
  <advance width="550"/>
  <unicode hex="0032"/>
  <outline>
    <contour>
      <point x="302" y="297" type="curve" smooth="yes"/>
      <point x="137.3529307182496" y="227.30277435312405"/>
      <point x="63.81045400110698" y="136.1303183580203"/>
      <point x="47" y="59" type="curve" smooth="yes"/>
      <point x="36" y="12"/>
      <point x="56" y="-15.0"/>
      <point x="96" y="-15" type="curve" smooth="yes"/>
      <point x="135" y="-15"/>
      <point x="152" y="40.0"/>
      <point x="202" y="40" type="curve" smooth="yes"/>
      <point x="273" y="40.0"/>
      <point x="304" y="-15"/>
      <point x="388" y="-15" type="curve" smooth="yes"/>
      <point x="485.0" y="-15.0"/>
      <point x="559.367107466274" y="45.98622602987592"/>
      <point x="581" y="149" type="curve" smooth="yes"/>
      <point x="587" y="179"/>
      <point x="579" y="196"/>
      <point x="556" y="196" type="curve" smooth="yes"/>
      <point x="539.0" y="196.0"/>
      <point x="523" y="187"/>
      <point x="510" y="163" type="curve" smooth="yes"/>
      <point x="494" y="135"/>
      <point x="477" y="124.0"/>
      <point x="444" y="124.0" type="curve" smooth="yes"/>
      <point x="385.0" y="124.0"/>
      <point x="343.0" y="163.0"/>
      <point x="254" y="163" type="curve" smooth="yes"/>
      <point x="172.0" y="163.0"/>
      <point x="121.56480509591357" y="98.40983507589789"/>
      <point x="106" y="32" type="curve"/>
      <point x="134" y="33" type="line"/>
      <point x="150.33158258298488" y="106.49212162343204"/>
      <point x="191" y="168"/>
      <point x="349" y="236" type="curve" smooth="yes"/>
      <point x="528" y="314"/>
      <point x="613" y="377"/>
      <point x="636" y="473" type="curve" smooth="yes"/>
      <point x="660" y="574"/>
      <point x="592" y="650"/>
      <point x="440" y="650" type="curve" smooth="yes"/>
      <point x="284.0" y="650.0"/>
      <point x="183.0" y="572.0"/>
      <point x="166" y="484" type="curve" smooth="yes"/>
      <point x="154" y="423"/>
      <point x="181" y="385"/>
      <point x="228" y="385" type="curve" smooth="yes"/>
      <point x="273" y="385"/>
      <point x="316" y="420"/>
      <point x="330" y="473" type="curve" smooth="yes"/>
      <point x="338" y="503" type="line" smooth="yes"/>
      <point x="351" y="553"/>
      <point x="378.0" y="583.0"/>
      <point x="423" y="583" type="curve" smooth="yes"/>
      <point x="461" y="583"/>
      <point x="488" y="545"/>
      <point x="473" y="474" type="curve" smooth="yes"/>
      <point x="455.01382548131716" y="391.0637508305181"/>
      <point x="406.45356111898457" y="341.3434929278708"/>
    </contour>
  </outline>
</glyph>
<glyph name="three" format="2">
  <advance width="528"/>
  <unicode hex="0033"/>
  <outline>
    <contour>
      <point x="354" y="323" type="line"/>
      <point x="619" y="540" type="line" smooth="yes"/>
      <point x="645.5369945992109" y="561.7302936906746"/>
      <point x="651.0" y="579.1935483870968"/>
      <point x="651" y="594" type="curve" smooth="yes"/>
      <point x="651.0" y="617.6060606060606"/>
      <point x="636.3488372093024" y="635"/>
      <point x="606" y="635" type="curve" smooth="yes"/>
      <point x="283" y="635" type="line" smooth="yes"/>
      <point x="253" y="635"/>
      <point x="231" y="616"/>
      <point x="220" y="589" type="curve" smooth="yes"/>
      <point x="176" y="476" type="line" smooth="yes"/>
      <point x="174" y="471"/>
      <point x="173" y="466"/>
      <point x="173" y="462" type="curve" smooth="yes"/>
      <point x="173.0" y="438.2"/>
      <point x="185.1304347826087" y="427.0"/>
      <point x="204" y="427" type="curve" smooth="yes"/>
      <point x="219.56338028169012" y="427.0"/>
      <point x="238.8639079331871" y="435.51132763659"/>
      <point x="269" y="475" type="curve" smooth="yes"/>
      <point x="294.0346498956111" y="508.70049024409184"/>
      <point x="320.8222222222222" y="517"/>
      <point x="357" y="517" type="curve" smooth="yes"/>
      <point x="551" y="517" type="line"/>
      <point x="550" y="575" type="line"/>
      <point x="298" y="369" type="line" smooth="yes"/>
      <point x="271.9902720509434" y="347.7380795337077"/>
      <point x="269.0" y="336.6734693877551"/>
      <point x="269" y="325" type="curve" smooth="yes"/>
      <point x="269.0" y="303.8965517241379"/>
      <point x="283.5357142857143" y="291"/>
      <point x="306" y="291" type="curve" smooth="yes"/>
      <point x="322" y="291" type="line" smooth="yes"/>
      <point x="378" y="291"/>
      <point x="413" y="258"/>
      <point x="413" y="194" type="curve" smooth="yes"/>
      <point x="413" y="117"/>
      <point x="362" y="53"/>
      <point x="297" y="52" type="curve" smooth="yes"/>
      <point x="254" y="51"/>
      <point x="227" y="73"/>
      <point x="227" y="105" type="curve" smooth="yes"/>
      <point x="227" y="133"/>
      <point x="244" y="155"/>
      <point x="244" y="186" type="curve" smooth="yes"/>
      <point x="244" y="223"/>
      <point x="213" y="248"/>
      <point x="171" y="248" type="curve" smooth="yes"/>
      <point x="114" y="248"/>
      <point x="73" y="197"/>
      <point x="73" y="126" type="curve" smooth="yes"/>
      <point x="73" y="44"/>
      <point x="136" y="-15"/>
      <point x="262" y="-15" type="curve" smooth="yes"/>
      <point x="432" y="-15"/>
      <point x="554" y="86"/>
      <point x="554" y="201" type="curve" smooth="yes"/>
      <point x="554" y="297"/>
      <point x="494" y="351"/>
      <point x="372" y="351" type="curve" smooth="yes"/>
      <point x="367" y="351"/>
      <point x="340" y="351"/>
      <point x="333" y="351" type="curve"/>
    </contour>
  </outline>
</glyph>
<glyph name="four" format="2">
  <advance width="599"/>
  <unicode hex="0034"/>
  <outline>
    <contour>
      <point x="395" y="291" type="curve" smooth="yes"/>
      <point x="345" y="131" type="line" smooth="yes"/>
      <point x="335" y="99"/>
      <point x="321" y="87"/>
      <point x="293" y="82" type="curve" smooth="yes"/>
      <point x="252" y="75" type="line" smooth="yes"/>
      <point x="218" y="69"/>
      <point x="198" y="51"/>
      <point x="198" y="32" type="curve" smooth="yes"/>
      <point x="198" y="11"/>
      <point x="211" y="0"/>
      <point x="244" y="0" type="curve" smooth="yes"/>
      <point x="536" y="0" type="line" smooth="yes"/>
      <point x="569" y="0"/>
      <point x="584" y="18"/>
      <point x="584" y="39" type="curve" smooth="yes"/>
      <point x="584" y="60"/>
      <point x="573" y="70"/>
      <point x="550" y="75" type="curve" smooth="yes"/>
      <point x="520" y="81" type="line" smooth="yes"/>
      <point x="500" y="85"/>
      <point x="492" y="94"/>
      <point x="492" y="109" type="curve" smooth="yes"/>
      <point x="492" y="114"/>
      <point x="493" y="121"/>
      <point x="495" y="128" type="curve" smooth="yes"/>
      <point x="561" y="362" type="line" smooth="yes"/>
      <point x="569" y="390"/>
      <point x="572" y="403"/>
      <point x="572" y="412" type="curve" smooth="yes"/>
      <point x="572" y="427"/>
      <point x="564" y="437"/>
      <point x="552" y="437" type="curve" smooth="yes"/>
      <point x="537" y="437"/>
      <point x="524" y="430"/>
      <point x="502" y="413" type="curve" smooth="yes"/>
      <point x="447" y="371" type="line" smooth="yes"/>
      <point x="420" y="351"/>
      <point x="407" y="331"/>
    </contour>
    <contour>
      <point x="317" y="439" type="curve" smooth="yes"/>
      <point x="114" y="268" type="line" smooth="yes"/>
      <point x="82" y="241"/>
      <point x="68" y="216"/>
      <point x="68" y="198" type="curve" smooth="yes"/>
      <point x="68" y="171"/>
      <point x="88" y="157"/>
      <point x="123" y="157" type="curve" smooth="yes"/>
      <point x="561" y="157" type="line" smooth="yes"/>
      <point x="598" y="157"/>
      <point x="621" y="175"/>
      <point x="621" y="198" type="curve" smooth="yes"/>
      <point x="621" y="221"/>
      <point x="605" y="231"/>
      <point x="580" y="231" type="curve" smooth="yes"/>
      <point x="137" y="232" type="line"/>
      <point x="151" y="210" type="line"/>
      <point x="465" y="466" type="line" smooth="yes"/>
      <point x="524" y="515"/>
      <point x="543" y="544"/>
      <point x="543" y="577" type="curve" smooth="yes"/>
      <point x="543" y="630"/>
      <point x="508" y="661"/>
      <point x="456" y="661" type="curve" smooth="yes"/>
      <point x="385" y="661"/>
      <point x="337" y="602"/>
      <point x="337" y="551" type="curve" smooth="yes"/>
      <point x="337" y="529"/>
      <point x="348" y="512"/>
      <point x="348" y="490" type="curve" smooth="yes"/>
      <point x="348" y="473"/>
      <point x="340" y="458"/>
    </contour>
  </outline>
</glyph>
<glyph name="six" format="2">
  <advance width="550"/>
  <unicode hex="0036"/>
  <outline>
    <contour>
      <point x="498" y="650" type="curve" smooth="yes"/>
      <point x="301" y="650.0"/>
      <point x="122" y="398"/>
      <point x="122" y="156" type="curve" smooth="yes"/>
      <point x="122" y="39"/>
      <point x="182" y="-15"/>
      <point x="273" y="-15" type="curve" smooth="yes"/>
      <point x="435.0" y="-15.0"/>
      <point x="577.0" y="147"/>
      <point x="577" y="282" type="curve" smooth="yes"/>
      <point x="577" y="362"/>
      <point x="529" y="405"/>
      <point x="451" y="405" type="curve" smooth="yes"/>
      <point x="339" y="405.0"/>
      <point x="225" y="322"/>
      <point x="198" y="221" type="curve"/>
      <point x="225" y="207" type="line"/>
      <point x="245" y="285"/>
      <point x="321" y="340.0"/>
      <point x="394" y="340" type="curve" smooth="yes"/>
      <point x="441" y="340"/>
      <point x="473" y="309"/>
      <point x="473" y="246" type="curve" smooth="yes"/>
      <point x="473.0" y="133.0"/>
      <point x="395.0" y="44.0"/>
      <point x="313" y="44" type="curve" smooth="yes"/>
      <point x="261" y="44"/>
      <point x="223" y="74"/>
      <point x="223" y="160" type="curve" smooth="yes"/>
      <point x="223.0" y="389"/>
      <point x="368" y="606.0"/>
      <point x="478" y="606" type="curve" smooth="yes"/>
      <point x="511.3333333333333" y="606.0"/>
      <point x="528.0" y="586.0"/>
      <point x="528" y="561" type="curve" smooth="yes"/>
      <point x="528.0" y="539"/>
      <point x="527.0" y="532.0"/>
      <point x="527" y="510" type="curve" smooth="yes"/>
      <point x="527.0" y="483"/>
      <point x="548" y="467.0"/>
      <point x="577" y="467" type="curve" smooth="yes"/>
      <point x="617" y="467.0"/>
      <point x="648.0" y="501"/>
      <point x="648" y="542" type="curve" smooth="yes"/>
      <point x="648.0" y="603.0"/>
      <point x="599.063829787234" y="650.0"/>
    </contour>
  </outline>
</glyph>
<glyph name="seven" format="2">
  <advance width="456"/>
  <unicode hex="0037"/>
  <outline>
    <contour>
      <point x="520" y="542" type="curve" smooth="yes"/>
      <point x="432" y="452" type="line" smooth="yes"/>
      <point x="211" y="225"/>
      <point x="173" y="131.0"/>
      <point x="173" y="46" type="curve" smooth="yes"/>
      <point x="173" y="7"/>
      <point x="194" y="-15"/>
      <point x="230" y="-15" type="curve" smooth="yes"/>
      <point x="285.40958936331504" y="-15.0"/>
      <point x="319.0" y="26.976190476190474"/>
      <point x="319" y="67" type="curve"/>
      <point x="320" y="91"/>
      <point x="309" y="114"/>
      <point x="308" y="144" type="curve"/>
      <point x="308.0" y="216"/>
      <point x="352" y="310"/>
      <point x="466" y="429" type="curve" smooth="yes"/>
      <point x="568" y="535" type="line" smooth="yes"/>
      <point x="600.9411764705883" y="569.1176470588235"/>
      <point x="613.0" y="593.0"/>
      <point x="613" y="613" type="curve" smooth="yes"/>
      <point x="613" y="626"/>
      <point x="605" y="635"/>
      <point x="589" y="635" type="curve" smooth="yes"/>
      <point x="259" y="635" type="line" smooth="yes"/>
      <point x="236" y="635"/>
      <point x="219" y="616"/>
      <point x="209" y="589" type="curve" smooth="yes"/>
      <point x="173" y="492" type="line" smooth="yes"/>
      <point x="171" y="487"/>
      <point x="170" y="482"/>
      <point x="170" y="478" type="curve" smooth="yes"/>
      <point x="170" y="468"/>
      <point x="176" y="463"/>
      <point x="185" y="463" type="curve" smooth="yes"/>
      <point x="200" y="463"/>
      <point x="214" y="477"/>
      <point x="241" y="510" type="curve" smooth="yes"/>
      <point x="268" y="544"/>
      <point x="288" y="553"/>
      <point x="316" y="553" type="curve" smooth="yes"/>
      <point x="553" y="553" type="line"/>
      <point x="557" y="602" type="line"/>
      <point x="552" y="584"/>
      <point x="542" y="565"/>
    </contour>
  </outline>
</glyph>
<glyph name="eight" format="2">
  <advance width="530"/>
  <unicode hex="0038"/>
  <outline>
    <contour>
      <point x="259" y="-15" type="curve" smooth="yes"/>
      <point x="395.0" y="-15.0"/>
      <point x="520.0" y="79.0"/>
      <point x="520" y="193" type="curve" smooth="yes"/>
      <point x="520" y="248"/>
      <point x="484" y="297"/>
      <point x="394" y="334" type="curve" smooth="yes"/>
      <point x="308" y="367"/>
      <point x="278" y="408"/>
      <point x="278" y="455" type="curve" smooth="yes"/>
      <point x="278.0" y="527.0"/>
      <point x="340" y="593.0"/>
      <point x="428" y="593" type="curve" smooth="yes"/>
      <point x="484" y="593"/>
      <point x="518" y="563"/>
      <point x="518" y="513" type="curve" smooth="yes"/>
      <point x="518.0" y="450.0"/>
      <point x="463.0" y="364.0"/>
      <point x="385" y="324" type="curve"/>
      <point x="389" y="302" type="line"/>
      <point x="517" y="330"/>
      <point x="613.0" y="434.0"/>
      <point x="613" y="531" type="curve" smooth="yes"/>
      <point x="613" y="599"/>
      <point x="562" y="651"/>
      <point x="467" y="651" type="curve" smooth="yes"/>
      <point x="308.0" y="651.0"/>
      <point x="181" y="523"/>
      <point x="181" y="413" type="curve" smooth="yes"/>
      <point x="181" y="348"/>
      <point x="223" y="300"/>
      <point x="312" y="263" type="curve" smooth="yes"/>
      <point x="393" y="230"/>
      <point x="421" y="199"/>
      <point x="421" y="158" type="curve" smooth="yes"/>
      <point x="421.0" y="90.0"/>
      <point x="372.0" y="38.0"/>
      <point x="291" y="38" type="curve" smooth="yes"/>
      <point x="231" y="38"/>
      <point x="200" y="69"/>
      <point x="200" y="119" type="curve" smooth="yes"/>
      <point x="200" y="178"/>
      <point x="242" y="244"/>
      <point x="313" y="288" type="curve"/>
      <point x="311" y="302" type="line"/>
      <point x="195.0" y="282"/>
      <point x="104.0" y="189.0"/>
      <point x="104" y="97" type="curve" smooth="yes"/>
      <point x="104" y="29"/>
      <point x="154" y="-15"/>
    </contour>
  </outline>
</glyph>
<glyph name="question" format="2">
  <advance width="451"/>
  <unicode hex="003F"/>
  <outline>
    <contour>
      <point x="334" y="398" type="curve" smooth="yes"/>
      <point x="415" y="435"/>
      <point x="448.0" y="492"/>
      <point x="448.0" y="572.0" type="curve" smooth="yes"/>
      <point x="448" y="634"/>
      <point x="427.08571428571435" y="658.0"/>
      <point x="387" y="658.0" type="curve" smooth="yes"/>
      <point x="351.1304347826087" y="658.0"/>
      <point x="327.046417236405" y="637.9348551436732"/>
      <point x="321" y="603" type="curve" smooth="yes"/>
      <point x="312" y="551" type="line" smooth="yes"/>
      <point x="304.02423028311506" y="504.91777496910925"/>
      <point x="268.73809523809524" y="480.0"/>
      <point x="233" y="480" type="curve" smooth="yes"/>
      <point x="193.8421052631579" y="480.0"/>
      <point x="171.0" y="509.9718309859155"/>
      <point x="171" y="556" type="curve" smooth="yes"/>
      <point x="171.0" y="637.1006711409397"/>
      <point x="262.0" y="715.0"/>
      <point x="410" y="715" type="curve" smooth="yes"/>
      <point x="535.4659090909091" y="715.0"/>
      <point x="591" y="665"/>
      <point x="591.0" y="573.0" type="curve" smooth="yes"/>
      <point x="591.0" y="495.1463414634146"/>
      <point x="540.77243921766" y="439.40767625376503"/>
      <point x="396" y="363" type="curve" smooth="yes"/>
      <point x="353.84817460062743" y="340.4536747863821"/>
      <point x="325.4160326294832" y="310.8855073572436"/>
      <point x="314" y="250" type="curve" smooth="yes"/>
      <point x="309" y="223"/>
      <point x="293" y="206.0"/>
      <point x="266" y="206" type="curve" smooth="yes"/>
      <point x="225.0" y="206.0"/>
      <point x="193.0" y="233"/>
      <point x="193.0" y="276" type="curve" smooth="yes"/>
      <point x="193.0" y="317.9375"/>
      <point x="225.84207692662017" y="349.37854834315954"/>
    </contour>
    <component base="period" xScale="0.9329999999999999" yScale="0.9329999999999999" xOffset="55" yOffset="2"/>
  </outline>
</glyph>
<glyph name="A" format="2">
  <advance width="635"/>
  <unicode hex="0041"/>
  <anchor x="616" y="766" name="center"/>
  <outline>
    <contour>
      <point x="224" y="284" type="line"/>
      <point x="210" y="215" type="line"/>
      <point x="518" y="215" type="line"/>
      <point x="529" y="284" type="line"/>
    </contour>
    <contour>
      <point x="140" y="188" type="line" smooth="yes"/>
      <point x="111" y="144"/>
      <point x="80" y="111"/>
      <point x="61" y="97" type="curve" smooth="yes"/>
      <point x="31" y="74"/>
      <point x="12" y="61"/>
      <point x="12" y="36" type="curve" smooth="yes"/>
      <point x="12" y="14"/>
      <point x="23" y="0"/>
      <point x="42" y="0" type="curve" smooth="yes"/>
      <point x="228" y="0" type="line" smooth="yes"/>
      <point x="253" y="0"/>
      <point x="267" y="11"/>
      <point x="267" y="36" type="curve" smooth="yes"/>
      <point x="267" y="58"/>
      <point x="255" y="71"/>
      <point x="233" y="89" type="curve" smooth="yes"/>
      <point x="215" y="103"/>
      <point x="208" y="116"/>
      <point x="208" y="132" type="curve" smooth="yes"/>
      <point x="208" y="144"/>
      <point x="210" y="156"/>
      <point x="224" y="177" type="curve" smooth="yes"/>
      <point x="296" y="285" type="line" smooth="yes"/>
      <point x="479" y="559"/>
      <point x="539" y="609"/>
      <point x="605" y="623" type="curve"/>
      <point x="490" y="611" type="line"/>
      <point x="486" y="427"/>
      <point x="471" y="286"/>
      <point x="457" y="167" type="curve" smooth="yes"/>
      <point x="452" y="128"/>
      <point x="436" y="102"/>
      <point x="409" y="92" type="curve" smooth="yes"/>
      <point x="393" y="86" type="line" smooth="yes"/>
      <point x="367" y="77"/>
      <point x="349" y="63"/>
      <point x="349" y="36" type="curve" smooth="yes"/>
      <point x="349" y="14"/>
      <point x="357" y="0"/>
      <point x="385" y="0" type="curve" smooth="yes"/>
      <point x="608" y="0" type="line" smooth="yes"/>
      <point x="636" y="0"/>
      <point x="656" y="21"/>
      <point x="656" y="43" type="curve" smooth="yes"/>
      <point x="656" y="63"/>
      <point x="651" y="71"/>
      <point x="635" y="91" type="curve" smooth="yes"/>
      <point x="623" y="105"/>
      <point x="616" y="128"/>
      <point x="616" y="158" type="curve" smooth="yes"/>
      <point x="616" y="287"/>
      <point x="637" y="443"/>
      <point x="643" y="555" type="curve" smooth="yes"/>
      <point x="646" y="613"/>
      <point x="709" y="623"/>
      <point x="709" y="666" type="curve" smooth="yes"/>
      <point x="709" y="696"/>
      <point x="691" y="714"/>
      <point x="644" y="714" type="curve" smooth="yes"/>
      <point x="545" y="714"/>
      <point x="428" y="631"/>
      <point x="215" y="303" type="curve" smooth="yes"/>
    </contour>
  </outline>
</glyph>
<glyph name="B" format="2">
  <advance width="635"/>
  <unicode hex="0042"/>
  <outline>
    <contour>
      <point x="285.0" y="168.23434343434343"/>
      <point x="362.6403280428572" y="475.0384280329447"/>
      <point x="412" y="607" type="curve" smooth="yes"/>
      <point x="423" y="636"/>
      <point x="443.875" y="654.0"/>
      <point x="497" y="654.0" type="curve" smooth="yes"/>
      <point x="563.0" y="654.0"/>
      <point x="608.0" y="611.0"/>
      <point x="608.0" y="532" type="curve" smooth="yes"/>
      <point x="608" y="428"/>
      <point x="520" y="356.0"/>
      <point x="414" y="356" type="curve" smooth="yes"/>
      <point x="327" y="356" type="line"/>
      <point x="303" y="308" type="line"/>
      <point x="427" y="308" type="line" smooth="yes"/>
      <point x="508.63157894736844" y="308"/>
      <point x="559" y="271"/>
      <point x="559" y="210" type="curve" smooth="yes"/>
      <point x="559.0" y="113.0"/>
      <point x="466" y="46"/>
      <point x="373.0" y="46.0" type="curve" smooth="yes"/>
      <point x="310.5813953488372" y="46.0"/>
      <point x="285.0" y="67.33333333333334"/>
      <point x="285.0" y="110" type="curve" smooth="yes"/>
    </contour>
    <contour>
      <point x="247.11764705882354" y="700"/>
      <point x="237.0" y="688.96"/>
      <point x="237" y="677" type="curve" smooth="yes"/>
      <point x="237.0" y="665.8235294117648"/>
      <point x="246.07026917476432" y="661.6338428239745"/>
      <point x="260" y="658" type="curve" smooth="yes"/>
      <point x="283" y="652" type="line" smooth="yes"/>
      <point x="298" y="648"/>
      <point x="305" y="639"/>
      <point x="305" y="623" type="curve" smooth="yes"/>
      <point x="305" y="618"/>
      <point x="304" y="613"/>
      <point x="303" y="607" type="curve" smooth="yes"/>
      <point x="275" y="446"/>
      <point x="231" y="276"/>
      <point x="167" y="92" type="curve" smooth="yes"/>
      <point x="158" y="67"/>
      <point x="146" y="53"/>
      <point x="123" y="48" type="curve" smooth="yes"/>
      <point x="97" y="42" type="line" smooth="yes"/>
      <point x="72.13012770359606" y="36.26079870082986"/>
      <point x="62" y="27"/>
      <point x="62" y="18" type="curve" smooth="yes"/>
      <point x="62.0" y="7.0"/>
      <point x="70.0" y="0"/>
      <point x="86" y="0" type="curve" smooth="yes"/>
      <point x="355.0" y="0.0" type="line" smooth="yes"/>
      <point x="538.0" y="0.0"/>
      <point x="658" y="100"/>
      <point x="658" y="211" type="curve" smooth="yes"/>
      <point x="658.0" y="287.0"/>
      <point x="590.2680412371134" y="340.0"/>
      <point x="439" y="340" type="curve"/>
      <point x="440" y="331" type="line"/>
      <point x="570.0" y="331.0"/>
      <point x="708" y="428"/>
      <point x="708.0" y="536" type="curve" smooth="yes"/>
      <point x="708.0" y="643.0"/>
      <point x="633.0" y="700.0"/>
      <point x="495" y="700" type="curve" smooth="yes"/>
      <point x="273" y="700" type="line" smooth="yes"/>
    </contour>
  </outline>
</glyph>
<glyph name="C" format="2">
  <advance width="636"/>
  <unicode hex="0043"/>
  <outline>
    <contour>
      <point x="658" y="182" type="curve" smooth="yes"/>
      <point x="658" y="196"/>
      <point x="651.5999999999999" y="203.0"/>
      <point x="642" y="203" type="curve" smooth="yes"/>
      <point x="627.0666666666667" y="203.0"/>
      <point x="614.698164937236" y="193.5573085746128"/>
      <point x="600" y="172" type="curve" smooth="yes"/>
      <point x="547.2601718822683" y="94.382894468244"/>
      <point x="490" y="63"/>
      <point x="403" y="63" type="curve" smooth="yes"/>
      <point x="311.0" y="63"/>
      <point x="242" y="143.0"/>
      <point x="242" y="278" type="curve" smooth="yes"/>
      <point x="242" y="475"/>
      <point x="374" y="666.0"/>
      <point x="524" y="666" type="curve" smooth="yes"/>
      <point x="598" y="666"/>
      <point x="630.8300503516502" y="640.9059093670296"/>
      <point x="663" y="583" type="curve" smooth="yes"/>
      <point x="688" y="538" type="line" smooth="yes"/>
      <point x="696" y="523"/>
      <point x="704" y="512"/>
      <point x="718" y="512" type="curve" smooth="yes"/>
      <point x="731" y="512"/>
      <point x="741" y="520"/>
      <point x="740" y="540" type="curve" smooth="yes"/>
      <point x="735" y="679" type="line" smooth="yes"/>
      <point x="734" y="699"/>
      <point x="725" y="711"/>
      <point x="710" y="711" type="curve" smooth="yes"/>
      <point x="693" y="711"/>
      <point x="679" y="685"/>
      <point x="660" y="685" type="curve" smooth="yes"/>
      <point x="636.0" y="685.0"/>
      <point x="594" y="715"/>
      <point x="531" y="715" type="curve" smooth="yes"/>
      <point x="321.0" y="715.0"/>
      <point x="134" y="469.0"/>
      <point x="134" y="229" type="curve" smooth="yes"/>
      <point x="134" y="83"/>
      <point x="221" y="-15"/>
      <point x="356" y="-15" type="curve" smooth="yes"/>
      <point x="501.0" y="-15.0"/>
      <point x="609.0" y="62.0"/>
      <point x="647" y="143" type="curve" smooth="yes"/>
      <point x="655" y="160"/>
      <point x="658.0" y="170.0"/>
    </contour>
  </outline>
</glyph>
<glyph name="D" format="2">
  <advance width="758"/>
  <unicode hex="0044"/>
  <outline>
    <contour>
      <point x="430" y="79" type="curve" smooth="yes"/>
      <point x="414" y="79" type="line" smooth="yes"/>
      <point x="372" y="79"/>
      <point x="339" y="107"/>
      <point x="339" y="146" type="curve" smooth="yes"/>
      <point x="339" y="167"/>
      <point x="342" y="194"/>
      <point x="346" y="209" type="curve" smooth="yes"/>
      <point x="366" y="295"/>
      <point x="414" y="465"/>
      <point x="448" y="544" type="curve" smooth="yes"/>
      <point x="474" y="605"/>
      <point x="487" y="621"/>
      <point x="523" y="621" type="curve" smooth="yes"/>
      <point x="548" y="621" type="line" smooth="yes"/>
      <point x="622" y="621"/>
      <point x="673" y="554"/>
      <point x="673" y="454" type="curve" smooth="yes"/>
      <point x="673" y="201"/>
      <point x="556" y="79"/>
    </contour>
    <contour>
      <point x="49" y="34" type="curve" smooth="yes"/>
      <point x="44" y="11"/>
      <point x="53" y="0"/>
      <point x="75" y="0" type="curve" smooth="yes"/>
      <point x="422" y="0" type="line" smooth="yes"/>
      <point x="655" y="0"/>
      <point x="842" y="189"/>
      <point x="842" y="412" type="curve" smooth="yes"/>
      <point x="842" y="585"/>
      <point x="729" y="700"/>
      <point x="564" y="700" type="curve" smooth="yes"/>
      <point x="259" y="700" type="line" smooth="yes"/>
      <point x="237" y="700"/>
      <point x="230" y="689"/>
      <point x="224" y="666" type="curve" smooth="yes"/>
      <point x="217" y="643"/>
      <point x="229" y="632"/>
      <point x="246" y="628" type="curve" smooth="yes"/>
      <point x="269" y="622" type="line" smooth="yes"/>
      <point x="289" y="617"/>
      <point x="296" y="604"/>
      <point x="285" y="549" type="curve" smooth="yes"/>
      <point x="264" y="453"/>
      <point x="204" y="264"/>
      <point x="163" y="149" type="curve" smooth="yes"/>
      <point x="145" y="97"/>
      <point x="133" y="84"/>
      <point x="109" y="78" type="curve" smooth="yes"/>
      <point x="83" y="72" type="line" smooth="yes"/>
      <point x="64" y="68"/>
      <point x="56" y="57"/>
    </contour>
  </outline>
</glyph>
<glyph name="E" format="2">
  <advance width="637"/>
  <unicode hex="0045"/>
  <anchor x="468" y="734" name="center"/>
  <outline>
    <contour>
      <point x="329" y="383" type="line"/>
      <point x="318" y="314" type="line"/>
      <point x="488" y="314" type="line" smooth="yes"/>
      <point x="529" y="314"/>
      <point x="549" y="305"/>
      <point x="569" y="282" type="curve" smooth="yes"/>
      <point x="590" y="259"/>
      <point x="601" y="251"/>
      <point x="623" y="251" type="curve" smooth="yes"/>
      <point x="637" y="251"/>
      <point x="650" y="262"/>
      <point x="650" y="283" type="curve" smooth="yes"/>
      <point x="650" y="286"/>
      <point x="649.6951413356362" y="289.06086576472825"/>
      <point x="628" y="412" type="curve" smooth="yes"/>
      <point x="623" y="440"/>
      <point x="609" y="460"/>
      <point x="587" y="460" type="curve" smooth="yes"/>
      <point x="572" y="460"/>
      <point x="562" y="449"/>
      <point x="547" y="431" type="curve" smooth="yes"/>
      <point x="522" y="399"/>
      <point x="500" y="383"/>
      <point x="470" y="383" type="curve" smooth="yes"/>
    </contour>
    <contour>
      <point x="442" y="0" type="line" smooth="yes"/>
      <point x="479" y="0"/>
      <point x="501" y="-21"/>
      <point x="527" y="-21" type="curve" smooth="yes"/>
      <point x="590" y="-21"/>
      <point x="642" y="56"/>
      <point x="642" y="143" type="curve" smooth="yes"/>
      <point x="642" y="182"/>
      <point x="629" y="200"/>
      <point x="608" y="200" type="curve" smooth="yes"/>
      <point x="587" y="200"/>
      <point x="576" y="192"/>
      <point x="560" y="167" type="curve" smooth="yes"/>
      <point x="546" y="145" type="line" smooth="yes"/>
      <point x="507" y="85"/>
      <point x="461" y="66"/>
      <point x="408" y="66" type="curve" smooth="yes"/>
      <point x="390" y="66" type="line" smooth="yes"/>
      <point x="347" y="66"/>
      <point x="329" y="88"/>
      <point x="329" y="120" type="curve" smooth="yes"/>
      <point x="329" y="161"/>
      <point x="390" y="439"/>
      <point x="458" y="634" type="curve"/>
      <point x="550" y="634" type="line" smooth="yes"/>
      <point x="582" y="634"/>
      <point x="607" y="618"/>
      <point x="621" y="585" type="curve" smooth="yes"/>
      <point x="636" y="548" type="line" smooth="yes"/>
      <point x="647" y="521"/>
      <point x="663" y="504"/>
      <point x="688" y="504" type="curve" smooth="yes"/>
      <point x="706" y="504"/>
      <point x="726" y="521"/>
      <point x="726" y="551" type="curve" smooth="yes"/>
      <point x="726" y="558"/>
      <point x="726.3383138599633" y="561.008180227426"/>
      <point x="720" y="692" type="curve" smooth="yes"/>
      <point x="719" y="721"/>
      <point x="709" y="733"/>
      <point x="689" y="733" type="curve" smooth="yes"/>
      <point x="676" y="733"/>
      <point x="665" y="726"/>
      <point x="649" y="713" type="curve" smooth="yes"/>
      <point x="640" y="705"/>
      <point x="627" y="700"/>
      <point x="617" y="700" type="curve" smooth="yes"/>
      <point x="241" y="700" type="line" smooth="yes"/>
      <point x="216" y="700"/>
      <point x="200" y="685"/>
      <point x="200" y="662" type="curve" smooth="yes"/>
      <point x="200" y="640"/>
      <point x="210" y="629"/>
      <point x="226" y="624" type="curve" smooth="yes"/>
      <point x="251" y="616" type="line" smooth="yes"/>
      <point x="264" y="612"/>
      <point x="272" y="603"/>
      <point x="272" y="586" type="curve" smooth="yes"/>
      <point x="272" y="549"/>
      <point x="197" y="262"/>
      <point x="151" y="129" type="curve" smooth="yes"/>
      <point x="141" y="99"/>
      <point x="132" y="83"/>
      <point x="107" y="77" type="curve" smooth="yes"/>
      <point x="86" y="72" type="line" smooth="yes"/>
      <point x="60" y="66"/>
      <point x="48" y="49"/>
      <point x="48" y="34" type="curve" smooth="yes"/>
      <point x="48" y="14"/>
      <point x="63" y="0"/>
      <point x="85" y="0" type="curve" smooth="yes"/>
    </contour>
  </outline>
</glyph>
<glyph name="F" format="2">
  <advance width="540"/>
  <unicode hex="0046"/>
  <outline>
    <contour>
      <point x="223" y="679" type="curve" smooth="yes"/>
      <point x="219" y="665"/>
      <point x="230" y="659"/>
      <point x="248" y="655" type="curve" smooth="yes"/>
      <point x="277" y="649" type="line" smooth="yes"/>
      <point x="290" y="646"/>
      <point x="295" y="632"/>
      <point x="291" y="613" type="curve"/>
      <point x="258" y="437"/>
      <point x="210" y="266"/>
      <point x="156" y="104" type="curve"/>
      <point x="148" y="74"/>
      <point x="135" y="58"/>
      <point x="110" y="52" type="curve" smooth="yes"/>
      <point x="89" y="47" type="line" smooth="yes"/>
      <point x="65" y="40"/>
      <point x="53" y="35"/>
      <point x="50" y="21" type="curve" smooth="yes"/>
      <point x="46" y="7"/>
      <point x="56" y="0"/>
      <point x="75" y="0" type="curve" smooth="yes"/>
      <point x="310" y="0" type="line" smooth="yes"/>
      <point x="341.0" y="0"/>
      <point x="349.0" y="10.35"/>
      <point x="349" y="23" type="curve" smooth="yes"/>
      <point x="349.0" y="36.351351351351354"/>
      <point x="338.6174904052632" y="41.09272959872407"/>
      <point x="306" y="49" type="curve" smooth="yes"/>
      <point x="284.8179009861877" y="54.043356908050555"/>
      <point x="261.7205415161382" y="70.0243281183152"/>
      <point x="272" y="110" type="curve"/>
      <point x="302.2140239525918" y="264.0915221582182"/>
      <point x="348.55607431958754" y="445.6076876387064"/>
      <point x="415" y="654" type="curve"/>
      <point x="522" y="654" type="line" smooth="yes"/>
      <point x="564.0" y="654.0"/>
      <point x="595" y="636"/>
      <point x="613" y="602" type="curve" smooth="yes"/>
      <point x="631" y="568" type="line" smooth="yes"/>
      <point x="641" y="548"/>
      <point x="648" y="541"/>
      <point x="663" y="541" type="curve" smooth="yes"/>
      <point x="674" y="541"/>
      <point x="686" y="552"/>
      <point x="686" y="573" type="curve" smooth="yes"/>
      <point x="684" y="702" type="line" smooth="yes"/>
      <point x="684" y="720"/>
      <point x="681" y="727"/>
      <point x="665" y="727" type="curve" smooth="yes"/>
      <point x="655" y="727"/>
      <point x="645" y="722"/>
      <point x="634" y="713" type="curve" smooth="yes"/>
      <point x="625" y="705"/>
      <point x="611.0" y="700.0"/>
      <point x="601" y="700" type="curve" smooth="yes"/>
      <point x="259" y="700" type="line" smooth="yes"/>
      <point x="239" y="700"/>
      <point x="227" y="693"/>
    </contour>
    <contour>
      <point x="312" y="348" type="line"/>
      <point x="294" y="306" type="line"/>
      <point x="457" y="306" type="line" smooth="yes"/>
      <point x="488" y="306"/>
      <point x="507" y="293"/>
      <point x="518" y="269" type="curve" smooth="yes"/>
      <point x="527" y="249"/>
      <point x="534" y="243.0"/>
      <point x="546" y="243" type="curve" smooth="yes"/>
      <point x="557" y="243.0"/>
      <point x="567" y="252"/>
      <point x="565" y="270" type="curve" smooth="yes"/>
      <point x="555" y="395" type="line" smooth="yes"/>
      <point x="554" y="408"/>
      <point x="548.0" y="419.0"/>
      <point x="537" y="419" type="curve" smooth="yes"/>
      <point x="526" y="419.0"/>
      <point x="518" y="408"/>
      <point x="507" y="390" type="curve" smooth="yes"/>
      <point x="489" y="358"/>
      <point x="461" y="348"/>
      <point x="432" y="348" type="curve" smooth="yes"/>
    </contour>
  </outline>
</glyph>
<glyph name="G" format="2">
  <advance width="704"/>
  <unicode hex="0047"/>
  <anchor x="602" y="783" name="center"/>
  <outline>
    <contour>
      <point x="557" y="714" type="curve" smooth="yes"/>
      <point x="342.1580135440181" y="714.0"/>
      <point x="134.0" y="470.4742268041237"/>
      <point x="134" y="249" type="curve" smooth="yes"/>
      <point x="134.0" y="91.03278688524591"/>
      <point x="228.80269058295966" y="-15.0"/>
      <point x="377" y="-15" type="curve" smooth="yes"/>
      <point x="477" y="-15.0"/>
      <point x="516.0" y="26.0"/>
      <point x="547" y="26" type="curve" smooth="yes"/>
      <point x="567" y="26"/>
      <point x="574" y="-15.0"/>
      <point x="595" y="-15.0" type="curve" smooth="yes"/>
      <point x="613" y="-15"/>
      <point x="627" y="-3"/>
      <point x="633" y="21" type="curve" smooth="yes"/>
      <point x="652" y="93"/>
      <point x="668" y="146"/>
      <point x="692" y="217" type="curve" smooth="yes"/>
      <point x="703" y="249"/>
      <point x="714" y="263"/>
      <point x="745" y="273" type="curve" smooth="yes"/>
      <point x="773" y="281"/>
      <point x="785" y="290"/>
      <point x="786" y="304" type="curve" smooth="yes"/>
      <point x="787" y="314"/>
      <point x="782" y="319"/>
      <point x="767" y="319" type="curve" smooth="yes"/>
      <point x="552" y="319" type="line" smooth="yes"/>
      <point x="533" y="319"/>
      <point x="521" y="313"/>
      <point x="521" y="300" type="curve" smooth="yes"/>
      <point x="521" y="288"/>
      <point x="526" y="282"/>
      <point x="543" y="277" type="curve" smooth="yes"/>
      <point x="562" y="271" type="line" smooth="yes"/>
      <point x="586" y="263"/>
      <point x="596" y="244"/>
      <point x="588" y="194" type="curve" smooth="yes"/>
      <point x="570.0" y="85.0"/>
      <point x="494" y="39.0"/>
      <point x="408" y="39" type="curve" smooth="yes"/>
      <point x="306.76691729323306" y="39.0"/>
      <point x="255.0" y="118.91208791208793"/>
      <point x="255" y="241" type="curve" smooth="yes"/>
      <point x="255.0" y="443.4504504504505"/>
      <point x="401.0952380952381" y="665.0"/>
      <point x="550" y="665" type="curve" smooth="yes"/>
      <point x="633.5797101449275" y="665.0"/>
      <point x="673.1909692765711" y="639.656255302172"/>
      <point x="708" y="577" type="curve" smooth="yes"/>
      <point x="733" y="532" type="line" smooth="yes"/>
      <point x="741" y="517"/>
      <point x="749.0" y="506.0"/>
      <point x="763" y="506.0" type="curve" smooth="yes"/>
      <point x="776.0" y="506.0"/>
      <point x="786" y="514"/>
      <point x="785" y="534" type="curve" smooth="yes"/>
      <point x="780" y="673" type="line" smooth="yes"/>
      <point x="779" y="693"/>
      <point x="770" y="705"/>
      <point x="755" y="705" type="curve" smooth="yes"/>
      <point x="738" y="705"/>
      <point x="724" y="679"/>
      <point x="705" y="679" type="curve" smooth="yes"/>
      <point x="677.0" y="679.0"/>
      <point x="629.84375" y="714.0"/>
    </contour>
  </outline>
</glyph>
<glyph name="H" format="2">
  <advance width="770"/>
  <unicode hex="0048"/>
  <outline>
    <contour>
      <point x="273" y="367" type="line"/>
      <point x="260" y="288" type="line"/>
      <point x="644" y="288" type="line"/>
      <point x="657" y="367" type="line"/>
    </contour>
    <component base="I" xOffset="-5"/>
    <component base="I" xOffset="394"/>
  </outline>
</glyph>
<glyph name="I" format="2">
  <advance width="402"/>
  <unicode hex="0049"/>
  <outline>
    <contour>
      <point x="327" y="124" type="curve" smooth="yes"/>
      <point x="363" y="304"/>
      <point x="419" y="474"/>
      <point x="463" y="577" type="curve" smooth="yes"/>
      <point x="474" y="603"/>
      <point x="484" y="617"/>
      <point x="507" y="622" type="curve" smooth="yes"/>
      <point x="525" y="626" type="line" smooth="yes"/>
      <point x="545" y="630"/>
      <point x="562" y="643"/>
      <point x="568" y="667" type="curve" smooth="yes"/>
      <point x="573" y="687"/>
      <point x="560" y="700"/>
      <point x="529" y="700" type="curve" smooth="yes"/>
      <point x="265" y="700" type="line" smooth="yes"/>
      <point x="242" y="700"/>
      <point x="231" y="688"/>
      <point x="224" y="667" type="curve" smooth="yes"/>
      <point x="217" y="647"/>
      <point x="231" y="631"/>
      <point x="252" y="626" type="curve" smooth="yes"/>
      <point x="269" y="622" type="line" smooth="yes"/>
      <point x="288" y="617"/>
      <point x="294" y="604"/>
      <point x="289" y="577" type="curve" smooth="yes"/>
      <point x="265" y="435"/>
      <point x="210" y="259"/>
      <point x="153" y="124" type="curve" smooth="yes"/>
      <point x="143" y="99"/>
      <point x="132" y="85"/>
      <point x="109" y="80" type="curve" smooth="yes"/>
      <point x="89" y="75" type="line" smooth="yes"/>
      <point x="69" y="70"/>
      <point x="54" y="59"/>
      <point x="49" y="35" type="curve" smooth="yes"/>
      <point x="44" y="14"/>
      <point x="57" y="0"/>
      <point x="80" y="0" type="curve" smooth="yes"/>
      <point x="344" y="0" type="line" smooth="yes"/>
      <point x="372" y="0"/>
      <point x="385" y="11"/>
      <point x="393" y="35" type="curve" smooth="yes"/>
      <point x="400" y="56"/>
      <point x="386" y="71"/>
      <point x="364" y="76" type="curve" smooth="yes"/>
      <point x="347" y="80" type="line" smooth="yes"/>
      <point x="328" y="84"/>
      <point x="322" y="98"/>
    </contour>
  </outline>
</glyph>
<glyph name="J" format="2">
  <advance width="337"/>
  <unicode hex="004A"/>
  <outline>
    <contour>
      <point x="400" y="607" type="curve" smooth="yes"/>
      <point x="409" y="634"/>
      <point x="421" y="647"/>
      <point x="444" y="652" type="curve" smooth="yes"/>
      <point x="471" y="658" type="line" smooth="yes"/>
      <point x="489" y="662"/>
      <point x="501" y="667"/>
      <point x="505" y="681" type="curve" smooth="yes"/>
      <point x="508" y="694"/>
      <point x="499" y="700"/>
      <point x="478" y="700" type="curve" smooth="yes"/>
      <point x="263" y="700" type="line" smooth="yes"/>
      <point x="241" y="700"/>
      <point x="231" y="694"/>
      <point x="228" y="681" type="curve" smooth="yes"/>
      <point x="224" y="667"/>
      <point x="233" y="661"/>
      <point x="250" y="658" type="curve" smooth="yes"/>
      <point x="273" y="652" type="line" smooth="yes"/>
      <point x="292" y="647"/>
      <point x="298" y="634"/>
      <point x="293" y="607" type="curve" smooth="yes"/>
      <point x="264" y="449"/>
      <point x="204" y="223"/>
      <point x="164" y="74" type="curve" smooth="yes"/>
      <point x="148" y="14"/>
      <point x="169" y="-16"/>
      <point x="169" y="-41" type="curve" smooth="yes"/>
      <point x="169" y="-70"/>
      <point x="154" y="-84"/>
      <point x="134" y="-84" type="curve" smooth="yes"/>
      <point x="109" y="-84"/>
      <point x="87" y="-45"/>
      <point x="59" y="-45" type="curve" smooth="yes"/>
      <point x="15" y="-45"/>
      <point x="-9" y="-73"/>
      <point x="-9" y="-107" type="curve" smooth="yes"/>
      <point x="-9" y="-141"/>
      <point x="18" y="-171"/>
      <point x="66" y="-171" type="curve" smooth="yes"/>
      <point x="149" y="-171"/>
      <point x="228" y="-72"/>
      <point x="249" y="39" type="curve" smooth="yes"/>
      <point x="271" y="157"/>
      <point x="345" y="437"/>
    </contour>
  </outline>
</glyph>
<glyph name="K" format="2">
  <advance width="692"/>
  <unicode hex="004B"/>
  <outline>
    <contour>
      <point x="384" y="342" type="line"/>
      <point x="503" y="70" type="line" smooth="yes"/>
      <point x="532" y="4"/>
      <point x="565.0" y="-15"/>
      <point x="611" y="-15.0" type="curve" smooth="yes"/>
      <point x="657" y="-15"/>
      <point x="705" y="25"/>
      <point x="705" y="72" type="curve" smooth="yes"/>
      <point x="705" y="87"/>
      <point x="697" y="99"/>
      <point x="686" y="99" type="curve" smooth="yes"/>
      <point x="670" y="99"/>
      <point x="660" y="88"/>
      <point x="643" y="88" type="curve" smooth="yes"/>
      <point x="620.0" y="88.0"/>
      <point x="596" y="104"/>
      <point x="559" y="183" type="curve" smooth="yes"/>
      <point x="458" y="399" type="line"/>
    </contour>
    <contour>
      <point x="266" y="187" type="line"/>
      <point x="626" y="561" type="line" smooth="yes"/>
      <point x="652" y="588"/>
      <point x="690.0" y="608.0"/>
      <point x="715" y="608" type="curve" smooth="yes"/>
      <point x="739.0" y="608.0"/>
      <point x="753" y="587.0"/>
      <point x="784" y="587" type="curve" smooth="yes"/>
      <point x="814" y="587"/>
      <point x="844" y="614"/>
      <point x="844" y="651" type="curve" smooth="yes"/>
      <point x="844" y="683"/>
      <point x="818" y="715"/>
      <point x="783" y="715" type="curve" smooth="yes"/>
      <point x="736.0" y="715.0"/>
      <point x="689" y="691"/>
      <point x="611" y="608" type="curve" smooth="yes"/>
      <point x="235" y="208" type="line"/>
    </contour>
    <component base="I"/>
  </outline>
</glyph>
<glyph name="L" format="2">
  <advance width="555"/>
  <unicode hex="004C"/>
  <outline>
    <contour>
      <point x="404" y="0" type="line" smooth="yes"/>
      <point x="437" y="0"/>
      <point x="455" y="-16"/>
      <point x="478" y="-16" type="curve" smooth="yes"/>
      <point x="536" y="-16"/>
      <point x="586" y="53"/>
      <point x="586" y="129" type="curve" smooth="yes"/>
      <point x="586" y="149"/>
      <point x="578" y="158"/>
      <point x="564" y="158" type="curve" smooth="yes"/>
      <point x="549" y="158"/>
      <point x="542" y="149"/>
      <point x="530" y="132" type="curve" smooth="yes"/>
      <point x="511" y="104" type="line" smooth="yes"/>
      <point x="478" y="56"/>
      <point x="432" y="41"/>
      <point x="352" y="41" type="curve" smooth="yes"/>
      <point x="305" y="41"/>
      <point x="286" y="66"/>
      <point x="286" y="98" type="curve" smooth="yes"/>
      <point x="286" y="155"/>
      <point x="345" y="408"/>
      <point x="418" y="606" type="curve" smooth="yes"/>
      <point x="428" y="632"/>
      <point x="439" y="646"/>
      <point x="462" y="651" type="curve" smooth="yes"/>
      <point x="488" y="657" type="line" smooth="yes"/>
      <point x="507" y="660"/>
      <point x="519" y="666"/>
      <point x="522" y="680" type="curve" smooth="yes"/>
      <point x="526" y="693"/>
      <point x="517" y="699"/>
      <point x="496" y="699" type="curve" smooth="yes"/>
      <point x="274" y="699" type="line" smooth="yes"/>
      <point x="252" y="699"/>
      <point x="242" y="693"/>
      <point x="238" y="680" type="curve" smooth="yes"/>
      <point x="235" y="666"/>
      <point x="244" y="660"/>
      <point x="260" y="657" type="curve" smooth="yes"/>
      <point x="284" y="651" type="line" smooth="yes"/>
      <point x="302" y="646"/>
      <point x="309" y="632"/>
      <point x="306" y="613" type="curve" smooth="yes"/>
      <point x="273" y="440"/>
      <point x="227" y="266"/>
      <point x="171" y="104" type="curve"/>
      <point x="163" y="74"/>
      <point x="150" y="58"/>
      <point x="125" y="52" type="curve" smooth="yes"/>
      <point x="104" y="47" type="line" smooth="yes"/>
      <point x="80" y="40"/>
      <point x="68" y="35"/>
      <point x="65" y="21" type="curve" smooth="yes"/>
      <point x="61" y="7"/>
      <point x="71" y="0"/>
      <point x="90" y="0" type="curve" smooth="yes"/>
    </contour>
  </outline>
</glyph>
<glyph name="N" format="2">
  <advance width="732"/>
  <unicode hex="004E"/>
  <outline>
    <contour>
      <point x="250" y="140" type="line" smooth="yes"/>
      <point x="243" y="116"/>
      <point x="250" y="100"/>
      <point x="274" y="89" type="curve" smooth="yes"/>
      <point x="297" y="78" type="line" smooth="yes"/>
      <point x="316.70056578026197" y="68.57799027900514"/>
      <point x="326.0" y="54.13636363636364"/>
      <point x="326" y="36" type="curve" smooth="yes"/>
      <point x="326.0" y="11.64705882352941"/>
      <point x="310.89473684210526" y="0"/>
      <point x="285" y="0" type="curve" smooth="yes"/>
      <point x="71" y="0" type="line" smooth="yes"/>
      <point x="52.44" y="0"/>
      <point x="42.0" y="13.125"/>
      <point x="42" y="35" type="curve" smooth="yes"/>
      <point x="42.0" y="54"/>
      <point x="55" y="70"/>
      <point x="85" y="81" type="curve" smooth="yes"/>
      <point x="107" y="89" type="line" smooth="yes"/>
      <point x="134" y="99"/>
      <point x="156" y="113"/>
      <point x="164" y="140" type="curve" smooth="yes"/>
      <point x="288" y="539" type="line" smooth="yes"/>
      <point x="295" y="562"/>
      <point x="289.9750984130868" y="574.4026069494291"/>
      <point x="276" y="588" type="curve" smooth="yes"/>
      <point x="239" y="624" type="line" smooth="yes"/>
      <point x="226.10603081028336" y="636.5454835359405"/>
      <point x="221.7080209658355" y="653.7882306241905"/>
      <point x="223" y="668" type="curve" smooth="yes"/>
      <point x="225.8956617388256" y="689.7174630411921"/>
      <point x="240" y="700"/>
      <point x="260" y="700" type="curve" smooth="yes"/>
      <point x="412" y="700" type="line" smooth="yes"/>
      <point x="436.0" y="700.0"/>
      <point x="451" y="688"/>
      <point x="463" y="651" type="curve" smooth="yes"/>
      <point x="529.2803346149434" y="454.9995819243817"/>
      <point x="597.7103734779132" y="297.57541101531694"/>
      <point x="649" y="176" type="curve"/>
      <point x="596" y="149" type="line"/>
      <point x="688" y="506" type="line" smooth="yes"/>
      <point x="732" y="675"/>
      <point x="777.0" y="728.0"/>
      <point x="847" y="728" type="curve" smooth="yes"/>
      <point x="904.0" y="728.0"/>
      <point x="928.0" y="703"/>
      <point x="928" y="654" type="curve" smooth="yes"/>
      <point x="928.0" y="550.0"/>
      <point x="779" y="541"/>
      <point x="755" y="447" type="curve" smooth="yes"/>
      <point x="678" y="151" type="line" smooth="yes"/>
      <point x="674" y="134"/>
      <point x="673.0" y="126.0"/>
      <point x="673" y="119" type="curve" smooth="yes"/>
      <point x="673.0" y="89.0"/>
      <point x="703.0" y="67.0"/>
      <point x="703" y="47" type="curve" smooth="yes"/>
      <point x="703.0" y="14.0"/>
      <point x="678" y="0"/>
      <point x="658" y="0" type="curve" smooth="yes"/>
      <point x="516" y="0" type="line" smooth="yes"/>
      <point x="490" y="0"/>
      <point x="478" y="17"/>
      <point x="486" y="48" type="curve" smooth="yes"/>
      <point x="490" y="64"/>
      <point x="498" y="89"/>
      <point x="484" y="129" type="curve" smooth="yes"/>
      <point x="444" y="244"/>
      <point x="382" y="392"/>
      <point x="321" y="549" type="curve"/>
      <point x="374" y="545" type="line"/>
    </contour>
  </outline>
</glyph>
<glyph name="O" format="2">
  <advance width="782"/>
  <unicode hex="004F"/>
  <anchor x="570" y="773" name="center"/>
  <outline>
    <contour>
      <point x="559" y="714" type="curve" smooth="yes"/>
      <point x="299" y="714"/>
      <point x="119" y="493"/>
      <point x="119" y="271" type="curve" smooth="yes"/>
      <point x="119" y="97.0"/>
      <point x="224.0" y="-15"/>
      <point x="403" y="-15" type="curve" smooth="yes"/>
      <point x="637" y="-15"/>
      <point x="852" y="174"/>
      <point x="852" y="429" type="curve" smooth="yes"/>
      <point x="852.0" y="584.0"/>
      <point x="734" y="714.0"/>
    </contour>
    <contour>
      <point x="419" y="74" type="curve" smooth="yes"/>
      <point x="353.0" y="74.0"/>
      <point x="314.0" y="141.0"/>
      <point x="314" y="241" type="curve" smooth="yes"/>
      <point x="314" y="460"/>
      <point x="420" y="629"/>
      <point x="540" y="629" type="curve" smooth="yes"/>
      <point x="609" y="629.0"/>
      <point x="655.0" y="567"/>
      <point x="655" y="462" type="curve" smooth="yes"/>
      <point x="655" y="239"/>
      <point x="537" y="74"/>
    </contour>
  </outline>
</glyph>
<glyph name="Q" format="2">
  <advance width="753"/>
  <unicode hex="0051"/>
  <outline>
    <contour>
      <point x="403.0" y="77" type="curve" smooth="yes"/>
      <point x="403" y="-44"/>
      <point x="479.0" y="-150.0"/>
      <point x="569" y="-150.0" type="curve" smooth="yes"/>
      <point x="601" y="-150"/>
      <point x="627" y="-133"/>
      <point x="648" y="-97" type="curve" smooth="yes"/>
      <point x="661" y="-74"/>
      <point x="665.0" y="-64"/>
      <point x="665" y="-54" type="curve" smooth="yes"/>
      <point x="665.0" y="-46"/>
      <point x="660.0" y="-39.0"/>
      <point x="649" y="-39" type="curve" smooth="yes"/>
      <point x="632" y="-39.0"/>
      <point x="616" y="-54"/>
      <point x="591" y="-54" type="curve" smooth="yes"/>
      <point x="512" y="-54"/>
      <point x="453.0" y="30"/>
      <point x="453.0" y="124" type="curve" smooth="yes"/>
      <point x="453.0" y="153"/>
      <point x="457.0" y="172"/>
      <point x="457.0" y="185" type="curve" smooth="yes"/>
      <point x="457.0" y="196"/>
      <point x="453" y="205"/>
      <point x="442" y="205.0" type="curve" smooth="yes"/>
      <point x="421.0" y="205.0"/>
      <point x="403.0" y="161.0"/>
    </contour>
    <component base="O"/>
  </outline>
</glyph>
<glyph name="R" format="2">
  <advance width="629"/>
  <unicode hex="0052"/>
  <outline>
    <contour>
      <point x="270" y="273" type="move"/>
      <point x="294.84895751646684" y="257.8745475986724"/>
      <point x="332.08982572866216" y="245.89138404801838"/>
      <point x="372" y="247" type="curve" smooth="yes"/>
      <point x="549" y="251"/>
      <point x="714" y="336"/>
      <point x="714" y="510" type="curve" smooth="yes"/>
      <point x="714.0" y="617.0"/>
      <point x="625.0" y="700.0"/>
      <point x="490" y="700" type="curve" smooth="yes"/>
      <point x="258" y="700" type="line"/>
      <point x="236" y="700"/>
      <point x="226" y="694"/>
      <point x="223" y="681" type="curve" smooth="yes"/>
      <point x="219" y="667"/>
      <point x="228" y="661"/>
      <point x="245" y="658" type="curve" smooth="yes"/>
      <point x="268" y="652" type="line" smooth="yes"/>
      <point x="287" y="647"/>
      <point x="293" y="634"/>
      <point x="288" y="607" type="curve" smooth="yes"/>
      <point x="260" y="446"/>
      <point x="218" y="276"/>
      <point x="152" y="92" type="curve" smooth="yes"/>
      <point x="143" y="67"/>
      <point x="131" y="53"/>
      <point x="108" y="48" type="curve" smooth="yes"/>
      <point x="82" y="42" type="line" smooth="yes"/>
      <point x="63" y="38"/>
      <point x="52" y="33"/>
      <point x="48" y="19" type="curve" smooth="yes"/>
      <point x="45" y="6"/>
      <point x="52" y="0"/>
      <point x="74" y="0" type="curve" smooth="yes"/>
      <point x="296" y="0" type="line" smooth="yes"/>
      <point x="317" y="0"/>
      <point x="329" y="6"/>
      <point x="332" y="19" type="curve" smooth="yes"/>
      <point x="336" y="33"/>
      <point x="326" y="38"/>
      <point x="310" y="42" type="curve" smooth="yes"/>
      <point x="286" y="48" type="line" smooth="yes"/>
      <point x="267" y="53"/>
      <point x="261" y="66"/>
      <point x="266" y="92" type="curve" smooth="yes"/>
      <point x="303" y="293"/>
      <point x="347" y="453"/>
      <point x="400" y="611" type="curve" smooth="yes"/>
      <point x="409.13208129040265" y="639.4109195701415"/>
      <point x="433.2647058823529" y="657.0"/>
      <point x="478" y="657" type="curve" smooth="yes"/>
      <point x="562.0" y="657.0"/>
      <point x="613.0" y="595.0"/>
      <point x="613" y="509" type="curve" smooth="yes"/>
      <point x="613" y="376"/>
      <point x="509" y="293"/>
      <point x="371" y="293" type="curve" smooth="yes"/>
      <point x="332.5844155844156" y="293.0"/>
      <point x="299.3088676435851" y="301.1585850862667"/>
      <point x="284" y="311" type="curve" smooth="yes"/>
    </contour>
    <contour>
      <point x="336" y="283" type="line"/>
      <point x="456" y="56" type="line" smooth="yes"/>
      <point x="484" y="3"/>
      <point x="511" y="-15.0"/>
      <point x="554" y="-15.0" type="curve" smooth="yes"/>
      <point x="601" y="-15.0"/>
      <point x="642.0" y="24"/>
      <point x="642" y="73" type="curve" smooth="yes"/>
      <point x="642" y="88"/>
      <point x="635" y="99"/>
      <point x="625" y="99" type="curve" smooth="yes"/>
      <point x="611.0" y="99.0"/>
      <point x="597.0" y="89.0"/>
      <point x="578" y="89" type="curve" smooth="yes"/>
      <point x="563" y="89"/>
      <point x="548" y="97"/>
      <point x="531" y="124" type="curve" smooth="yes"/>
      <point x="434" y="277" type="line"/>
    </contour>
  </outline>
</glyph>
<glyph name="S" format="2">
  <advance width="556"/>
  <unicode hex="0053"/>
  <outline>
    <contour>
      <point x="287" y="-15" type="curve" smooth="yes"/>
      <point x="465" y="-15"/>
      <point x="575" y="82"/>
      <point x="575" y="206" type="curve" smooth="yes"/>
      <point x="575" y="284"/>
      <point x="535" y="337"/>
      <point x="433" y="393" type="curve" smooth="yes"/>
      <point x="355" y="436"/>
      <point x="314" y="483"/>
      <point x="314" y="536" type="curve" smooth="yes"/>
      <point x="314.0" y="585.5384615384615"/>
      <point x="355.0" y="628.0"/>
      <point x="422" y="628" type="curve" smooth="yes"/>
      <point x="467" y="628"/>
      <point x="507" y="600"/>
      <point x="526" y="550" type="curve" smooth="yes"/>
      <point x="538" y="518" type="line" smooth="yes"/>
      <point x="553" y="478"/>
      <point x="570" y="467"/>
      <point x="604" y="467" type="curve" smooth="yes"/>
      <point x="655" y="467"/>
      <point x="691" y="510"/>
      <point x="691" y="560" type="curve" smooth="yes"/>
      <point x="691" y="636"/>
      <point x="617" y="714"/>
      <point x="485" y="714" type="curve" smooth="yes"/>
      <point x="288.0" y="714.0"/>
      <point x="170.0" y="591.49377593361"/>
      <point x="170" y="472" type="curve" smooth="yes"/>
      <point x="170" y="405"/>
      <point x="209" y="339"/>
      <point x="309" y="280" type="curve" smooth="yes"/>
      <point x="394" y="230"/>
      <point x="420" y="194"/>
      <point x="420" y="147" type="curve" smooth="yes"/>
      <point x="420" y="100"/>
      <point x="379" y="63"/>
      <point x="319" y="63" type="curve" smooth="yes"/>
      <point x="261" y="63"/>
      <point x="223" y="93"/>
      <point x="196" y="148" type="curve" smooth="yes"/>
      <point x="176" y="188" type="line" smooth="yes"/>
      <point x="156" y="229"/>
      <point x="141" y="241"/>
      <point x="121" y="241" type="curve" smooth="yes"/>
      <point x="100" y="241"/>
      <point x="86" y="224"/>
      <point x="84" y="194" type="curve" smooth="yes"/>
      <point x="76" y="46" type="line" smooth="yes"/>
      <point x="76" y="39"/>
      <point x="76" y="31"/>
      <point x="76" y="27" type="curve" smooth="yes"/>
      <point x="77" y="-7"/>
      <point x="89" y="-21"/>
      <point x="116" y="-21" type="curve" smooth="yes"/>
      <point x="133" y="-21"/>
      <point x="149" y="5"/>
      <point x="162" y="5" type="curve" smooth="yes"/>
      <point x="188" y="5"/>
      <point x="216" y="-15"/>
    </contour>
  </outline>
</glyph>
<glyph name="T" format="2">
  <advance width="562"/>
  <unicode hex="0054"/>
  <outline>
    <contour>
      <point x="342" y="715" type="curve" smooth="yes"/>
      <point x="235" y="715"/>
      <point x="185" y="664"/>
      <point x="185" y="601" type="curve" smooth="yes"/>
      <point x="185" y="560"/>
      <point x="209" y="537"/>
      <point x="244" y="537" type="curve" smooth="yes"/>
      <point x="278" y="537"/>
      <point x="300" y="560"/>
      <point x="300" y="583" type="curve" smooth="yes"/>
      <point x="300" y="609"/>
      <point x="282" y="624"/>
      <point x="282" y="644" type="curve" smooth="yes"/>
      <point x="282" y="664"/>
      <point x="296" y="677"/>
      <point x="336" y="677" type="curve" smooth="yes"/>
      <point x="469" y="677"/>
      <point x="622" y="612"/>
      <point x="691" y="612" type="curve" smooth="yes"/>
      <point x="737" y="612"/>
      <point x="770" y="653"/>
      <point x="770" y="701" type="curve" smooth="yes"/>
      <point x="770" y="740"/>
      <point x="760" y="757"/>
      <point x="744" y="757" type="curve" smooth="yes"/>
      <point x="724.8163265306123" y="757.0"/>
      <point x="713.7837025929456" y="744.6819155778612"/>
      <point x="697" y="720" type="curve" smooth="yes"/>
      <point x="673.8150973339976" y="686.7347048705184"/>
      <point x="653.9756097560976" y="676.0"/>
      <point x="613" y="676.0" type="curve" smooth="yes"/>
      <point x="555" y="676"/>
      <point x="418" y="715"/>
    </contour>
    <contour>
      <point x="442" y="677" type="line"/>
      <point x="401" y="493"/>
      <point x="346" y="306"/>
      <point x="278" y="92" type="curve" smooth="yes"/>
      <point x="270" y="67"/>
      <point x="257" y="53"/>
      <point x="234" y="48" type="curve" smooth="yes"/>
      <point x="208" y="42" type="line" smooth="yes"/>
      <point x="189" y="38"/>
      <point x="178" y="33"/>
      <point x="174" y="19" type="curve" smooth="yes"/>
      <point x="171" y="6"/>
      <point x="178" y="0"/>
      <point x="200" y="0" type="curve" smooth="yes"/>
      <point x="422" y="0" type="line" smooth="yes"/>
      <point x="443" y="0"/>
      <point x="455" y="6"/>
      <point x="458" y="19" type="curve" smooth="yes"/>
      <point x="462" y="33"/>
      <point x="452" y="38"/>
      <point x="436" y="42" type="curve" smooth="yes"/>
      <point x="412" y="48" type="line" smooth="yes"/>
      <point x="393" y="53"/>
      <point x="387" y="66"/>
      <point x="392" y="92" type="curve" smooth="yes"/>
      <point x="435.89780006886156" y="321.4657730872309"/>
      <point x="481" y="485"/>
      <point x="529" y="659" type="curve"/>
    </contour>
  </outline>
</glyph>
<glyph name="U" format="2">
  <advance width="667"/>
  <unicode hex="0055"/>
  <anchor x="558" y="738" name="center"/>
  <outline>
    <contour>
      <point x="573" y="195" type="line" smooth="yes"/>
      <point x="544" y="96"/>
      <point x="474" y="50"/>
      <point x="385" y="50" type="curve" smooth="yes"/>
      <point x="313" y="50"/>
      <point x="267" y="85"/>
      <point x="267" y="156" type="curve" smooth="yes"/>
      <point x="267" y="195"/>
      <point x="274" y="243"/>
      <point x="297" y="324" type="curve" smooth="yes"/>
      <point x="378" y="606" type="line" smooth="yes"/>
      <point x="386" y="633"/>
      <point x="402" y="644"/>
      <point x="432" y="653" type="curve" smooth="yes"/>
      <point x="469" y="663"/>
      <point x="483" y="671"/>
      <point x="483" y="683" type="curve" smooth="yes"/>
      <point x="483" y="694"/>
      <point x="475" y="699"/>
      <point x="457" y="699" type="curve" smooth="yes"/>
      <point x="244" y="699" type="line" smooth="yes"/>
      <point x="220" y="699"/>
      <point x="208" y="690"/>
      <point x="208" y="680" type="curve" smooth="yes"/>
      <point x="208" y="668"/>
      <point x="216" y="662"/>
      <point x="240" y="654" type="curve" smooth="yes"/>
      <point x="268" y="645"/>
      <point x="277" y="635"/>
      <point x="277" y="622" type="curve" smooth="yes"/>
      <point x="277" y="618"/>
      <point x="276" y="612"/>
      <point x="274" y="606" type="curve" smooth="yes"/>
      <point x="193" y="324" type="line" smooth="yes"/>
      <point x="178" y="272"/>
      <point x="155" y="188"/>
      <point x="155" y="147" type="curve" smooth="yes"/>
      <point x="155" y="53"/>
      <point x="216" y="-15"/>
      <point x="341" y="-15" type="curve" smooth="yes"/>
      <point x="498" y="-15"/>
      <point x="596" y="58"/>
      <point x="640" y="209" type="curve" smooth="yes"/>
      <point x="753" y="599" type="line" smooth="yes"/>
      <point x="759" y="620"/>
      <point x="773" y="638"/>
      <point x="815" y="651" type="curve" smooth="yes"/>
      <point x="851" y="662"/>
      <point x="859" y="671"/>
      <point x="859" y="680" type="curve" smooth="yes"/>
      <point x="859" y="691"/>
      <point x="848" y="699"/>
      <point x="832" y="699" type="curve" smooth="yes"/>
      <point x="654" y="699" type="line" smooth="yes"/>
      <point x="632" y="699"/>
      <point x="620" y="690"/>
      <point x="620" y="680" type="curve" smooth="yes"/>
      <point x="620" y="670"/>
      <point x="629" y="662"/>
      <point x="658" y="649" type="curve" smooth="yes"/>
      <point x="687" y="636"/>
      <point x="693" y="627"/>
      <point x="693" y="613" type="curve" smooth="yes"/>
      <point x="693" y="609"/>
      <point x="693" y="605"/>
      <point x="691" y="599" type="curve" smooth="yes"/>
    </contour>
  </outline>
</glyph>
<glyph name="Y" format="2">
  <advance width="639"/>
  <unicode hex="0059"/>
  <anchor x="486" y="748" name="center"/>
  <outline>
    <contour>
      <point x="421" y="275" type="curve"/>
      <point x="432" y="260" type="line"/>
      <point x="433.3609756097561" y="264.08292682926833"/>
      <point x="432.0" y="296.2926829268293"/>
      <point x="432.0" y="322" type="curve" smooth="yes"/>
      <point x="432.0" y="467.78205128205127"/>
      <point x="399" y="599"/>
      <point x="366" y="654" type="curve" smooth="yes"/>
      <point x="347" y="685"/>
      <point x="305" y="700.0"/>
      <point x="222" y="700" type="curve" smooth="yes"/>
      <point x="177" y="700"/>
      <point x="156.0" y="689.0"/>
      <point x="156" y="666" type="curve" smooth="yes"/>
      <point x="156.0" y="645.0"/>
      <point x="168" y="627"/>
      <point x="183" y="622" type="curve" smooth="yes"/>
      <point x="255" y="600"/>
      <point x="299.0" y="487.0"/>
      <point x="299.0" y="275.0" type="curve" smooth="yes"/>
      <point x="299" y="237"/>
      <point x="294.9735491320193" y="210.89419652807703"/>
      <point x="289" y="187" type="curve" smooth="yes"/>
      <point x="276" y="135" type="line" smooth="yes"/>
      <point x="268" y="102"/>
      <point x="248" y="83"/>
      <point x="219" y="77" type="curve" smooth="yes"/>
      <point x="198" y="73" type="line" smooth="yes"/>
      <point x="174" y="68"/>
      <point x="157" y="55"/>
      <point x="157" y="34" type="curve" smooth="yes"/>
      <point x="157.0" y="11.0"/>
      <point x="166" y="0"/>
      <point x="192" y="0" type="curve" smooth="yes"/>
      <point x="479" y="0" type="line" smooth="yes"/>
      <point x="505.0" y="0.0"/>
      <point x="523" y="10"/>
      <point x="523" y="34" type="curve" smooth="yes"/>
      <point x="523.0" y="54"/>
      <point x="516" y="56"/>
      <point x="492" y="66" type="curve" smooth="yes"/>
      <point x="474" y="74" type="line" smooth="yes"/>
      <point x="451" y="84"/>
      <point x="444" y="115"/>
      <point x="449" y="143" type="curve" smooth="yes"/>
      <point x="457" y="190" type="line" smooth="yes"/>
      <point x="464" y="230"/>
      <point x="474" y="283"/>
      <point x="524" y="373" type="curve" smooth="yes"/>
      <point x="589" y="488"/>
      <point x="645.6787469287469" y="565.0"/>
      <point x="671" y="565" type="curve" smooth="yes"/>
      <point x="695" y="565.0"/>
      <point x="714" y="547.0"/>
      <point x="744" y="547" type="curve" smooth="yes"/>
      <point x="791" y="547.0"/>
      <point x="832.0" y="581"/>
      <point x="832" y="628" type="curve" smooth="yes"/>
      <point x="832.0" y="671.0"/>
      <point x="805" y="715"/>
      <point x="746" y="715" type="curve" smooth="yes"/>
      <point x="653.0" y="715.0"/>
      <point x="541" y="602"/>
    </contour>
  </outline>
</glyph>
<glyph name="Z" format="2">
  <advance width="582"/>
  <unicode hex="005A"/>
  <outline>
    <contour>
      <point x="416" y="0" type="line" smooth="yes"/>
      <point x="449" y="0"/>
      <point x="467" y="-16"/>
      <point x="490" y="-16" type="curve" smooth="yes"/>
      <point x="550.1481481481482" y="-16.0"/>
      <point x="602.0" y="63.46896551724137"/>
      <point x="602" y="151" type="curve" smooth="yes"/>
      <point x="602.0" y="171"/>
      <point x="593" y="180.0"/>
      <point x="578" y="180" type="curve" smooth="yes"/>
      <point x="564" y="180.0"/>
      <point x="557" y="171"/>
      <point x="546" y="154" type="curve" smooth="yes"/>
      <point x="527" y="126" type="line" smooth="yes"/>
      <point x="485" y="65"/>
      <point x="452.0" y="41.0"/>
      <point x="384" y="41" type="curve" smooth="yes"/>
      <point x="151" y="41" type="line"/>
      <point x="182" y="23" type="line"/>
      <point x="341" y="226"/>
      <point x="528" y="448"/>
      <point x="703" y="641" type="curve" smooth="yes"/>
      <point x="719" y="659"/>
      <point x="726" y="669"/>
      <point x="726" y="679" type="curve" smooth="yes"/>
      <point x="726" y="692"/>
      <point x="718.0" y="698.0"/>
      <point x="698" y="698" type="curve" smooth="yes"/>
      <point x="373" y="698" type="line" smooth="yes"/>
      <point x="340" y="698"/>
      <point x="325" y="721"/>
      <point x="303" y="721" type="curve" smooth="yes"/>
      <point x="291" y="721"/>
      <point x="282" y="712"/>
      <point x="271" y="691" type="curve" smooth="yes"/>
      <point x="215" y="579" type="line" smooth="yes"/>
      <point x="209" y="567"/>
      <point x="206" y="559"/>
      <point x="206" y="552" type="curve" smooth="yes"/>
      <point x="206" y="542"/>
      <point x="211" y="536"/>
      <point x="221" y="536" type="curve" smooth="yes"/>
      <point x="234" y="536"/>
      <point x="247" y="542"/>
      <point x="268" y="564" type="curve" smooth="yes"/>
      <point x="308" y="605" type="line" smooth="yes"/>
      <point x="339" y="638"/>
      <point x="351" y="657"/>
      <point x="389" y="657" type="curve" smooth="yes"/>
      <point x="618" y="657" type="line"/>
      <point x="596" y="674" type="line"/>
      <point x="442" y="473"/>
      <point x="253" y="257"/>
      <point x="74" y="63" type="curve" smooth="yes"/>
      <point x="53" y="40"/>
      <point x="49" y="33"/>
      <point x="49" y="22" type="curve" smooth="yes"/>
      <point x="49" y="7"/>
      <point x="58.0" y="0"/>
      <point x="79" y="0" type="curve" smooth="yes"/>
    </contour>
  </outline>
</glyph>
<glyph name="bracketleft" format="2">
  <advance width="393"/>
  <unicode hex="005B"/>
  <outline>
    <contour>
      <point x="408" y="639" type="line" smooth="yes"/>
      <point x="416" y="669"/>
      <point x="447" y="693"/>
      <point x="476" y="693" type="curve" smooth="yes"/>
      <point x="526" y="693" type="line" smooth="yes"/>
      <point x="557" y="693"/>
      <point x="571" y="702"/>
      <point x="577" y="723" type="curve" smooth="yes"/>
      <point x="581" y="740"/>
      <point x="574" y="756"/>
      <point x="545" y="756" type="curve" smooth="yes"/>
      <point x="363" y="756" type="line" smooth="yes"/>
      <point x="329" y="756"/>
      <point x="294" y="725"/>
      <point x="284" y="687" type="curve" smooth="yes"/>
      <point x="71" y="-108" type="line" smooth="yes"/>
      <point x="61" y="-146"/>
      <point x="79" y="-177"/>
      <point x="113" y="-177" type="curve" smooth="yes"/>
      <point x="295" y="-177" type="line" smooth="yes"/>
      <point x="324" y="-177"/>
      <point x="340" y="-160"/>
      <point x="344" y="-144" type="curve" smooth="yes"/>
      <point x="350" y="-123"/>
      <point x="340" y="-114"/>
      <point x="309" y="-114" type="curve" smooth="yes"/>
      <point x="259" y="-114" type="line" smooth="yes"/>
      <point x="230" y="-114"/>
      <point x="213" y="-90"/>
      <point x="221" y="-60" type="curve" smooth="yes"/>
    </contour>
  </outline>
</glyph>
<glyph name="backslash" format="2">
  <advance width="459"/>
  <unicode hex="005C"/>
  <outline>
    <contour>
      <point x="236" y="702" type="curve" smooth="yes"/>
      <point x="233" y="714"/>
      <point x="232" y="724"/>
      <point x="234" y="732" type="curve" smooth="yes"/>
      <point x="238" y="753"/>
      <point x="255" y="767"/>
      <point x="273" y="767" type="curve" smooth="yes"/>
      <point x="293" y="767"/>
      <point x="304" y="750"/>
      <point x="304" y="732" type="curve" smooth="yes"/>
      <point x="311" y="620"/>
      <point x="340" y="404"/>
      <point x="350" y="343" type="curve" smooth="yes"/>
      <point x="358" y="286"/>
      <point x="400" y="66"/>
      <point x="424" y="-38" type="curve" smooth="yes"/>
      <point x="428" y="-56"/>
      <point x="427" y="-67"/>
      <point x="425" y="-77" type="curve" smooth="yes"/>
      <point x="423" y="-91"/>
      <point x="408" y="-106"/>
      <point x="391" y="-106" type="curve" smooth="yes"/>
      <point x="371" y="-106"/>
      <point x="355" y="-93"/>
      <point x="351" y="-62" type="curve" smooth="yes"/>
      <point x="347" y="45"/>
      <point x="324" y="249"/>
      <point x="310" y="329" type="curve" smooth="yes"/>
      <point x="299" y="402"/>
      <point x="264" y="603"/>
    </contour>
  </outline>
</glyph>
<glyph name="a" format="2">
  <advance width="552"/>
  <unicode hex="0061"/>
  <anchor x="400" y="520" name="center"/>
  <outline>
    <contour>
      <point x="514" y="135" type="curve" smooth="yes"/>
      <point x="512.288317591486" y="154.6843476979103"/>
      <point x="515.0" y="205.0"/>
      <point x="526" y="266" type="curve" smooth="yes"/>
      <point x="537" y="328"/>
      <point x="586.0" y="341"/>
      <point x="586" y="406" type="curve" smooth="yes"/>
      <point x="586.0" y="466"/>
      <point x="544" y="489.0"/>
      <point x="465" y="489" type="curve" smooth="yes"/>
      <point x="254.00000000000003" y="489.0"/>
      <point x="70.0" y="290.0"/>
      <point x="70" y="116" type="curve" smooth="yes"/>
      <point x="70" y="23"/>
      <point x="119" y="-15"/>
      <point x="186" y="-15" type="curve" smooth="yes"/>
      <point x="266.0" y="-15.0"/>
      <point x="353" y="36"/>
      <point x="433" y="195" type="curve"/>
      <point x="398" y="202" type="line"/>
      <point x="400.6456679076319" y="146.4409739397307"/>
      <point x="378.0" y="95.49101796407186"/>
      <point x="378" y="55" type="curve" smooth="yes"/>
      <point x="378.0" y="14.627450980392162"/>
      <point x="409.943661971831" y="-16.0"/>
      <point x="459" y="-16" type="curve" smooth="yes"/>
      <point x="542.6275862068966" y="-16.0"/>
      <point x="600.0" y="42.0"/>
      <point x="600" y="97" type="curve" smooth="yes"/>
      <point x="600.0" y="124.0"/>
      <point x="586.36" y="135.0"/>
      <point x="569" y="135" type="curve" smooth="yes"/>
      <point x="552.0" y="135.0"/>
      <point x="551.0" y="112.0"/>
      <point x="532" y="112" type="curve" smooth="yes"/>
      <point x="519.0" y="112.0"/>
      <point x="514.8852390718554" y="122.60665299402487"/>
    </contour>
    <contour>
      <point x="202" y="175" type="curve" smooth="yes"/>
      <point x="202" y="283"/>
      <point x="261" y="366"/>
      <point x="345" y="366" type="curve" smooth="yes"/>
      <point x="385.0" y="366.0"/>
      <point x="413.0" y="353.0"/>
      <point x="413" y="324" type="curve" smooth="yes"/>
      <point x="413.0" y="232.0"/>
      <point x="331.0" y="105.0"/>
      <point x="262" y="105" type="curve" smooth="yes"/>
      <point x="228.0" y="105.0"/>
      <point x="202" y="132"/>
    </contour>
  </outline>
</glyph>
<glyph name="b" format="2">
  <advance width="552"/>
  <unicode hex="0062"/>
  <outline>
    <contour>
      <point x="342" y="542" type="line" smooth="yes"/>
      <point x="361" y="610"/>
      <point x="384.0" y="634.0"/>
      <point x="411" y="634" type="curve" smooth="yes"/>
      <point x="458" y="634"/>
      <point x="522" y="569"/>
      <point x="578" y="569.0" type="curve" smooth="yes"/>
      <point x="630.0" y="569.0"/>
      <point x="662.0" y="605.0"/>
      <point x="662" y="640" type="curve" smooth="yes"/>
      <point x="662.0" y="689.0"/>
      <point x="623" y="725"/>
      <point x="539" y="725.0" type="curve" smooth="yes"/>
      <point x="356" y="725.0"/>
      <point x="250" y="640"/>
      <point x="207" y="500" type="curve" smooth="yes"/>
      <point x="95" y="139" type="line" smooth="yes"/>
      <point x="77.25799113451788" y="81.8137035675085"/>
      <point x="70.0" y="57.13861386138614"/>
      <point x="70" y="33" type="curve" smooth="yes"/>
      <point x="70.0" y="3.0555555555555536"/>
      <point x="87" y="-16.0"/>
      <point x="109" y="-16" type="curve" smooth="yes"/>
      <point x="138" y="-16"/>
      <point x="161.8316273305831" y="-4.856631256359229"/>
      <point x="183" y="31" type="curve" smooth="yes"/>
      <point x="232" y="114" type="line"/>
      <point x="199" y="135" type="line"/>
      <point x="199.0" y="26.82089552238807"/>
      <point x="250" y="-16"/>
      <point x="342" y="-16.0" type="curve" smooth="yes"/>
      <point x="465.0" y="-16.0"/>
      <point x="605.0" y="138.7683923705722"/>
      <point x="605" y="339" type="curve" smooth="yes"/>
      <point x="605.0" y="450.89208633093523"/>
      <point x="549.0" y="490.0"/>
      <point x="486" y="490" type="curve" smooth="yes"/>
      <point x="392" y="490.0"/>
      <point x="298.42692025837994" y="431.83831614372787"/>
      <point x="243" y="323" type="curve"/>
      <point x="283" y="328" type="line"/>
    </contour>
    <contour>
      <point x="382" y="382" type="curve" smooth="yes"/>
      <point x="425" y="382"/>
      <point x="458.0" y="356"/>
      <point x="458" y="289" type="curve" smooth="yes"/>
      <point x="458.0" y="153"/>
      <point x="390.0" y="74.0"/>
      <point x="325" y="74" type="curve" smooth="yes"/>
      <point x="278.7974683544304" y="74.0"/>
      <point x="252.0" y="111.45"/>
      <point x="252.0" y="181" type="curve" smooth="yes"/>
      <point x="252.0" y="283.0"/>
      <point x="322.7352941176471" y="382.0"/>
    </contour>
  </outline>
</glyph>
<glyph name="c" format="2">
  <advance width="451"/>
  <unicode hex="0063"/>
  <anchor x="360" y="536" name="center"/>
  <outline>
    <contour>
      <point x="323" y="399" type="curve" smooth="yes"/>
      <point x="349" y="399"/>
      <point x="365" y="380"/>
      <point x="365" y="357" type="curve" smooth="yes"/>
      <point x="365" y="345"/>
      <point x="362" y="331"/>
      <point x="362" y="321" type="curve" smooth="yes"/>
      <point x="362" y="286"/>
      <point x="386" y="264"/>
      <point x="421" y="264" type="curve" smooth="yes"/>
      <point x="469" y="264"/>
      <point x="508" y="306"/>
      <point x="508" y="377" type="curve" smooth="yes"/>
      <point x="508" y="433"/>
      <point x="464" y="490"/>
      <point x="376" y="490" type="curve" smooth="yes"/>
      <point x="217" y="490"/>
      <point x="80" y="330"/>
      <point x="80" y="158" type="curve" smooth="yes"/>
      <point x="80" y="62"/>
      <point x="143" y="-15"/>
      <point x="248" y="-15" type="curve" smooth="yes"/>
      <point x="374" y="-15"/>
      <point x="469" y="66"/>
      <point x="469" y="136" type="curve" smooth="yes"/>
      <point x="469" y="166"/>
      <point x="453" y="187"/>
      <point x="440" y="187" type="curve" smooth="yes"/>
      <point x="419" y="187"/>
      <point x="404" y="171"/>
      <point x="393" y="153" type="curve" smooth="yes"/>
      <point x="375" y="124"/>
      <point x="349" y="102"/>
      <point x="311" y="102" type="curve" smooth="yes"/>
      <point x="262" y="102"/>
      <point x="226" y="152"/>
      <point x="226" y="233" type="curve" smooth="yes"/>
      <point x="226" y="328"/>
      <point x="273" y="399"/>
    </contour>
  </outline>
</glyph>
<glyph name="d" format="2">
  <advance width="571"/>
  <unicode hex="0064"/>
  <outline>
    <contour>
      <point x="571" y="439" type="line"/>
      <point x="556.7530529188248" y="468.51153323957715"/>
      <point x="521.84375" y="489.0"/>
      <point x="450" y="489" type="curve" smooth="yes"/>
      <point x="268.8756906077348" y="489.0"/>
      <point x="71.0" y="292.0"/>
      <point x="71" y="128" type="curve" smooth="yes"/>
      <point x="71.0" y="35.0"/>
      <point x="117.0" y="-15.0"/>
      <point x="192" y="-15" type="curve" smooth="yes"/>
      <point x="276.1025641025641" y="-15.0"/>
      <point x="358.6602318992464" y="44.2739202230471"/>
      <point x="432" y="201" type="curve"/>
      <point x="406" y="201" type="line"/>
      <point x="406" y="157"/>
      <point x="392" y="112"/>
      <point x="392" y="61" type="curve" smooth="yes"/>
      <point x="392" y="19"/>
      <point x="420" y="-15"/>
      <point x="462" y="-15" type="curve" smooth="yes"/>
      <point x="549" y="-15"/>
      <point x="612" y="51"/>
      <point x="612" y="98" type="curve" smooth="yes"/>
      <point x="612" y="120"/>
      <point x="601" y="135"/>
      <point x="585" y="135" type="curve" smooth="yes"/>
      <point x="578" y="135"/>
      <point x="573" y="132"/>
      <point x="569" y="127" type="curve" smooth="yes"/>
      <point x="563" y="120"/>
      <point x="557" y="115"/>
      <point x="546" y="115" type="curve" smooth="yes"/>
      <point x="533" y="115"/>
      <point x="524" y="129"/>
      <point x="524" y="163" type="curve" smooth="yes"/>
      <point x="524" y="180"/>
      <point x="527" y="209"/>
      <point x="538" y="247" type="curve" smooth="yes"/>
      <point x="598" y="461" type="line" smooth="yes"/>
      <point x="611.0" y="503.25"/>
      <point x="594.0" y="540.6666666666666"/>
      <point x="594" y="571" type="curve" smooth="yes"/>
      <point x="594" y="583"/>
      <point x="598" y="588"/>
      <point x="609" y="588" type="curve" smooth="yes"/>
      <point x="631" y="588"/>
      <point x="649" y="569"/>
      <point x="685" y="569" type="curve" smooth="yes"/>
      <point x="725" y="569"/>
      <point x="752" y="598"/>
      <point x="752" y="639" type="curve" smooth="yes"/>
      <point x="752" y="689"/>
      <point x="724" y="725"/>
      <point x="671" y="725" type="curve" smooth="yes"/>
      <point x="609" y="725"/>
      <point x="555" y="688"/>
      <point x="526" y="599" type="curve" smooth="yes"/>
      <point x="451" y="367" type="line" smooth="yes"/>
      <point x="390" y="177"/>
      <point x="318.7692307692308" y="107.0"/>
      <point x="260" y="107" type="curve" smooth="yes"/>
      <point x="223.3793103448276" y="107.0"/>
      <point x="201.0" y="131"/>
      <point x="201" y="175" type="curve" smooth="yes"/>
      <point x="201" y="283.0"/>
      <point x="264.0" y="368"/>
      <point x="353" y="368" type="curve" smooth="yes"/>
      <point x="407.0" y="368.0"/>
      <point x="435.2868018825273" y="353.73064741152496"/>
      <point x="454" y="328" type="curve"/>
    </contour>
  </outline>
</glyph>
<glyph name="e" format="2">
  <advance width="492"/>
  <unicode hex="0065"/>
  <anchor x="350" y="528" name="center"/>
  <outline>
    <contour>
      <point x="165" y="217" type="curve"/>
      <point x="170" y="154" type="line"/>
      <point x="170" y="154"/>
      <point x="410" y="235"/>
      <point x="515" y="280" type="curve" smooth="yes"/>
      <point x="548" y="293"/>
      <point x="561" y="312"/>
      <point x="561" y="333" type="curve" smooth="yes"/>
      <point x="561" y="350"/>
      <point x="552" y="361"/>
      <point x="537" y="365" type="curve" smooth="yes"/>
      <point x="526" y="368"/>
      <point x="518" y="377"/>
      <point x="516" y="394" type="curve" smooth="yes"/>
      <point x="508" y="456"/>
      <point x="453" y="490"/>
      <point x="379" y="490" type="curve" smooth="yes"/>
      <point x="224" y="490"/>
      <point x="81" y="328"/>
      <point x="81" y="173" type="curve" smooth="yes"/>
      <point x="81" y="62"/>
      <point x="146" y="-15"/>
      <point x="262" y="-15" type="curve" smooth="yes"/>
      <point x="414.0" y="-15.0"/>
      <point x="516.0" y="73.80662983425414"/>
      <point x="516" y="156" type="curve" smooth="yes"/>
      <point x="516.0" y="178.0"/>
      <point x="505.0909090909091" y="198.0"/>
      <point x="480" y="198" type="curve" smooth="yes"/>
      <point x="457.16129032258067" y="198.0"/>
      <point x="435.71463417564587" y="179.95684809764438"/>
      <point x="421" y="146" type="curve" smooth="yes"/>
      <point x="402.3028513532627" y="105.04434105952782"/>
      <point x="362.9142857142857" y="79.0"/>
      <point x="314" y="79" type="curve" smooth="yes"/>
      <point x="267.1851851851852" y="79.0"/>
      <point x="235.0" y="123.93023255813954"/>
      <point x="235" y="205" type="curve" smooth="yes"/>
      <point x="235" y="324"/>
      <point x="291" y="407"/>
      <point x="347" y="407" type="curve" smooth="yes"/>
      <point x="371" y="407"/>
      <point x="385" y="386"/>
      <point x="385" y="352" type="curve" smooth="yes"/>
      <point x="385" y="323"/>
      <point x="380" y="297"/>
      <point x="368" y="273" type="curve"/>
      <point x="447" y="328" type="line"/>
      <point x="351" y="278"/>
      <point x="165" y="217"/>
    </contour>
  </outline>
</glyph>
<glyph name="f" format="2">
  <advance width="330"/>
  <unicode hex="0066"/>
  <outline>
    <contour>
      <point x="265" y="375" type="line"/>
      <point x="382" y="375" type="line" smooth="yes"/>
      <point x="417" y="375"/>
      <point x="440" y="391"/>
      <point x="440" y="419" type="curve" smooth="yes"/>
      <point x="440" y="443"/>
      <point x="424" y="454"/>
      <point x="394" y="454" type="curve" smooth="yes"/>
      <point x="282" y="454" type="line"/>
    </contour>
    <contour>
      <point x="110" y="420" type="curve" smooth="yes"/>
      <point x="110" y="406"/>
      <point x="118" y="388"/>
      <point x="135" y="381" type="curve" smooth="yes"/>
      <point x="165" y="369"/>
      <point x="176" y="342"/>
      <point x="166" y="310" type="curve" smooth="yes"/>
      <point x="49" y="-71" type="line" smooth="yes"/>
      <point x="39" y="-105"/>
      <point x="31" y="-128"/>
      <point x="32" y="-160" type="curve" smooth="yes"/>
      <point x="35" y="-205"/>
      <point x="59" y="-230"/>
      <point x="103" y="-230" type="curve" smooth="yes"/>
      <point x="163" y="-230"/>
      <point x="226" y="-190"/>
      <point x="226" y="-138" type="curve" smooth="yes"/>
      <point x="226" y="-96"/>
      <point x="194" y="-90"/>
      <point x="194" y="-53" type="curve" smooth="yes"/>
      <point x="194" y="-41"/>
      <point x="195" y="-25"/>
      <point x="201" y="-3" type="curve" smooth="yes"/>
      <point x="335" y="453" type="line" smooth="yes"/>
      <point x="356" y="523"/>
      <point x="322" y="540"/>
      <point x="322" y="572" type="curve" smooth="yes"/>
      <point x="322" y="589"/>
      <point x="333" y="598"/>
      <point x="348" y="598" type="curve" smooth="yes"/>
      <point x="380" y="598"/>
      <point x="406" y="569"/>
      <point x="441" y="569" type="curve" smooth="yes"/>
      <point x="490" y="569"/>
      <point x="517" y="603"/>
      <point x="517" y="644" type="curve" smooth="yes"/>
      <point x="517" y="687"/>
      <point x="487" y="725"/>
      <point x="435" y="725" type="curve" smooth="yes"/>
      <point x="333" y="725"/>
      <point x="261" y="654"/>
      <point x="227" y="546" type="curve" smooth="yes"/>
      <point x="198" y="454" type="line"/>
      <point x="153" y="454" type="line" smooth="yes"/>
      <point x="127" y="454"/>
      <point x="110" y="440"/>
    </contour>
  </outline>
</glyph>
<glyph name="g" format="2">
  <advance width="516"/>
  <unicode hex="0067"/>
  <outline>
    <contour>
      <point x="488" y="15" type="curve" smooth="yes"/>
      <point x="504.3298695846967" y="86.33574608051727"/>
      <point x="514.1894052446052" y="204.49758403118307"/>
      <point x="519" y="251" type="curve" smooth="yes"/>
      <point x="526.2844929168126" y="322.38803058476276"/>
      <point x="591.0" y="349.7869822485207"/>
      <point x="591" y="410" type="curve" smooth="yes"/>
      <point x="591.0" y="461.42857142857144"/>
      <point x="548.2627118644067" y="490.0"/>
      <point x="468" y="490" type="curve" smooth="yes"/>
      <point x="265.49118387909317" y="490.0"/>
      <point x="70.0" y="295.27272727272725"/>
      <point x="70" y="116" type="curve" smooth="yes"/>
      <point x="70" y="29"/>
      <point x="112.19354838709677" y="-15.0"/>
      <point x="179" y="-15" type="curve" smooth="yes"/>
      <point x="257.9322709163347" y="-15.0"/>
      <point x="378.35772655199986" y="54.7195223363631"/>
      <point x="433" y="241" type="curve"/>
      <point x="395" y="262" type="line"/>
      <point x="395.0" y="223.54545454545456"/>
      <point x="388.3667610150811" y="147.34383460943508"/>
      <point x="360" y="27" type="curve" smooth="yes"/>
      <point x="325.5905845726606" y="-115.7353528837782"/>
      <point x="294.0559440559441" y="-152.0"/>
      <point x="245" y="-152" type="curve" smooth="yes"/>
      <point x="201.57142857142858" y="-152.0"/>
      <point x="165.60304647669977" y="-128.60304647669977"/>
      <point x="131" y="-94" type="curve" smooth="yes"/>
      <point x="100.03743781402534" y="-63.037437814025346"/>
      <point x="76.31884057971014" y="-49.0"/>
      <point x="54" y="-49" type="curve" smooth="yes"/>
      <point x="12.75" y="-49.0"/>
      <point x="-12.0" y="-80.02272727272728"/>
      <point x="-12" y="-119" type="curve" smooth="yes"/>
      <point x="-12.0" y="-184.33333333333331"/>
      <point x="36" y="-245"/>
      <point x="165" y="-245" type="curve" smooth="yes"/>
      <point x="301.8473520249221" y="-245.0"/>
      <point x="445.7478533266902" y="-169.2663063252679"/>
    </contour>
    <contour>
      <point x="223.9090909090909" y="106.0"/>
      <point x="201" y="128"/>
      <point x="201" y="176" type="curve" smooth="yes"/>
      <point x="201" y="287.0"/>
      <point x="272.0" y="367"/>
      <point x="340" y="367" type="curve" smooth="yes"/>
      <point x="380" y="367"/>
      <point x="403.0" y="348.6666666666667"/>
      <point x="403" y="323" type="curve" smooth="yes"/>
      <point x="403.0" y="250.66666666666669"/>
      <point x="323.48" y="106.0"/>
      <point x="261" y="106" type="curve" smooth="yes"/>
    </contour>
  </outline>
</glyph>
<glyph name="h" format="2">
  <advance width="563"/>
  <unicode hex="0068"/>
  <outline>
    <contour>
      <point x="259" y="193" type="curve" smooth="yes"/>
      <point x="249" y="165"/>
      <point x="243" y="142"/>
      <point x="243" y="127" type="curve" smooth="yes"/>
      <point x="243" y="93"/>
      <point x="253" y="76"/>
      <point x="253" y="52" type="curve" smooth="yes"/>
      <point x="253" y="12"/>
      <point x="198" y="-15"/>
      <point x="139" y="-15" type="curve" smooth="yes"/>
      <point x="107" y="-15"/>
      <point x="84" y="7"/>
      <point x="84" y="46" type="curve" smooth="yes"/>
      <point x="84" y="64"/>
      <point x="91" y="83"/>
      <point x="109" y="144" type="curve" smooth="yes"/>
      <point x="213" y="490" type="line" smooth="yes"/>
      <point x="252" y="622"/>
      <point x="392" y="715"/>
      <point x="557" y="715" type="curve" smooth="yes"/>
      <point x="640" y="715"/>
      <point x="679" y="673"/>
      <point x="679" y="625" type="curve" smooth="yes"/>
      <point x="679" y="587"/>
      <point x="650" y="550"/>
      <point x="591" y="550" type="curve" smooth="yes"/>
      <point x="513" y="550"/>
      <point x="488" y="623"/>
      <point x="427" y="623" type="curve" smooth="yes"/>
      <point x="398" y="623"/>
      <point x="374" y="603"/>
      <point x="357" y="535" type="curve" smooth="yes"/>
      <point x="326" y="411"/>
      <point x="302" y="366"/>
      <point x="302" y="324" type="curve"/>
      <point x="283" y="327" type="line"/>
      <point x="355" y="438"/>
      <point x="441" y="490"/>
      <point x="514" y="490" type="curve" smooth="yes"/>
      <point x="565" y="490"/>
      <point x="593" y="458"/>
      <point x="593" y="415" type="curve" smooth="yes"/>
      <point x="593" y="376"/>
      <point x="581" y="348"/>
      <point x="564" y="305" type="curve" smooth="yes"/>
      <point x="515" y="184" type="line" smooth="yes"/>
      <point x="507" y="163"/>
      <point x="501" y="141"/>
      <point x="502" y="120" type="curve" smooth="yes"/>
      <point x="503" y="106"/>
      <point x="513" y="98"/>
      <point x="525" y="98" type="curve" smooth="yes"/>
      <point x="533" y="98"/>
      <point x="542" y="101"/>
      <point x="549" y="111" type="curve" smooth="yes"/>
      <point x="560" y="126"/>
      <point x="569" y="128"/>
      <point x="578" y="128" type="curve" smooth="yes"/>
      <point x="593" y="128"/>
      <point x="602" y="118"/>
      <point x="604" y="91" type="curve" smooth="yes"/>
      <point x="606" y="46"/>
      <point x="534" y="-15"/>
      <point x="435" y="-15" type="curve" smooth="yes"/>
      <point x="380" y="-15"/>
      <point x="353" y="15"/>
      <point x="351" y="51" type="curve" smooth="yes"/>
      <point x="350" y="81"/>
      <point x="362" y="108"/>
      <point x="376" y="143" type="curve" smooth="yes"/>
      <point x="428" y="273" type="line" smooth="yes"/>
      <point x="436" y="294"/>
      <point x="443" y="316"/>
      <point x="443" y="327" type="curve" smooth="yes"/>
      <point x="443" y="345"/>
      <point x="434" y="358"/>
      <point x="414" y="358" type="curve" smooth="yes"/>
      <point x="360" y="358"/>
      <point x="293" y="285"/>
    </contour>
  </outline>
</glyph>
<glyph name="i" format="2">
  <advance width="320"/>
  <unicode hex="0069"/>
  <outline>
    <contour>
      <point x="261" y="135" type="curve" smooth="yes"/>
      <point x="261.0" y="149"/>
      <point x="266" y="168"/>
      <point x="271" y="178" type="curve" smooth="yes"/>
      <point x="330" y="299" type="line" smooth="yes"/>
      <point x="355" y="350"/>
      <point x="372" y="389"/>
      <point x="370" y="426" type="curve" smooth="yes"/>
      <point x="369" y="464"/>
      <point x="345" y="490"/>
      <point x="297" y="490" type="curve" smooth="yes"/>
      <point x="193.7461139896373" y="490.0"/>
      <point x="108.00001022442503" y="424.9994887787485"/>
      <point x="109" y="375" type="curve" smooth="yes"/>
      <point x="109.99984959551853" y="351.0036097075553"/>
      <point x="124" y="341.0"/>
      <point x="139" y="341" type="curve" smooth="yes"/>
      <point x="148.0" y="341.0"/>
      <point x="155" y="346"/>
      <point x="166" y="355" type="curve" smooth="yes"/>
      <point x="175" y="363"/>
      <point x="179.8" y="366.0"/>
      <point x="189" y="366" type="curve" smooth="yes"/>
      <point x="202.0" y="366.0"/>
      <point x="209.0" y="359.28"/>
      <point x="209" y="345" type="curve" smooth="yes"/>
      <point x="209" y="330"/>
      <point x="204" y="321"/>
      <point x="198" y="308" type="curve" smooth="yes"/>
      <point x="127" y="166" type="line" smooth="yes"/>
      <point x="107" y="125"/>
      <point x="90" y="91"/>
      <point x="92" y="50" type="curve" smooth="yes"/>
      <point x="94" y="13"/>
      <point x="123" y="-15"/>
      <point x="182" y="-15" type="curve" smooth="yes"/>
      <point x="289.8103448275862" y="-15.0"/>
      <point x="351.0" y="50.0"/>
      <point x="351" y="103" type="curve" smooth="yes"/>
      <point x="351" y="124"/>
      <point x="342" y="132"/>
      <point x="330" y="132" type="curve" smooth="yes"/>
      <point x="319" y="132.0"/>
      <point x="311" y="128"/>
      <point x="300" y="118" type="curve" smooth="yes"/>
      <point x="293" y="111"/>
      <point x="285" y="108.0"/>
      <point x="276" y="108" type="curve" smooth="yes"/>
      <point x="269" y="108.0"/>
      <point x="261.0" y="117"/>
    </contour>
    <contour>
      <point x="307" y="542" type="curve" smooth="yes"/>
      <point x="387" y="542"/>
      <point x="456" y="595"/>
      <point x="456" y="654" type="curve" smooth="yes"/>
      <point x="456" y="690"/>
      <point x="431" y="715"/>
      <point x="396" y="715" type="curve" smooth="yes"/>
      <point x="310" y="715"/>
      <point x="246" y="658"/>
      <point x="246" y="604" type="curve" smooth="yes"/>
      <point x="246" y="568"/>
      <point x="272" y="542"/>
    </contour>
  </outline>
</glyph>
<glyph name="k" format="2">
  <advance width="570"/>
  <unicode hex="006B"/>
  <outline>
    <contour>
      <point x="224" y="286" type="line"/>
      <point x="277" y="416"/>
      <point x="392" y="490"/>
      <point x="493" y="490" type="curve" smooth="yes"/>
      <point x="572" y="490"/>
      <point x="623" y="453"/>
      <point x="623" y="380" type="curve" smooth="yes"/>
      <point x="623" y="275"/>
      <point x="498" y="196"/>
      <point x="206" y="137" type="curve"/>
      <point x="204" y="189" type="line"/>
      <point x="410" y="236"/>
      <point x="475" y="309"/>
      <point x="475" y="372" type="curve" smooth="yes"/>
      <point x="475" y="398"/>
      <point x="463" y="412"/>
      <point x="437" y="412" type="curve" smooth="yes"/>
      <point x="369" y="412"/>
      <point x="282" y="332"/>
      <point x="240" y="184" type="curve" smooth="yes"/>
      <point x="233" y="159"/>
      <point x="229" y="141"/>
      <point x="229" y="128" type="curve" smooth="yes"/>
      <point x="229" y="91"/>
      <point x="242" y="75"/>
      <point x="242" y="52" type="curve" smooth="yes"/>
      <point x="242" y="12"/>
      <point x="193" y="-16"/>
      <point x="138" y="-16" type="curve" smooth="yes"/>
      <point x="96" y="-16"/>
      <point x="69" y="7"/>
      <point x="69" y="48" type="curve" smooth="yes"/>
      <point x="69" y="67"/>
      <point x="73" y="89"/>
      <point x="82" y="117" type="curve" smooth="yes"/>
      <point x="194" y="482" type="line" smooth="yes"/>
      <point x="241" y="634"/>
      <point x="361" y="725"/>
      <point x="541" y="725" type="curve" smooth="yes"/>
      <point x="618" y="725"/>
      <point x="656" y="684"/>
      <point x="656" y="641" type="curve" smooth="yes"/>
      <point x="656" y="604"/>
      <point x="625" y="570"/>
      <point x="569" y="570" type="curve" smooth="yes"/>
      <point x="510" y="570"/>
      <point x="453" y="634"/>
      <point x="405" y="634" type="curve" smooth="yes"/>
      <point x="378" y="634"/>
      <point x="355" y="609"/>
      <point x="338" y="546" type="curve" smooth="yes"/>
      <point x="294" y="385"/>
      <point x="263" y="341"/>
      <point x="263" y="288" type="curve"/>
    </contour>
    <contour>
      <point x="301" y="180" type="curve"/>
      <point x="385" y="207" type="line"/>
      <point x="412" y="145"/>
      <point x="432" y="117"/>
      <point x="462" y="117" type="curve" smooth="yes"/>
      <point x="498.0" y="117.0"/>
      <point x="511" y="152"/>
      <point x="538" y="152" type="curve" smooth="yes"/>
      <point x="562" y="152"/>
      <point x="576" y="139"/>
      <point x="576" y="112" type="curve" smooth="yes"/>
      <point x="576.0" y="40.0"/>
      <point x="505" y="-15.0"/>
      <point x="419" y="-15" type="curve" smooth="yes"/>
      <point x="364" y="-15.0"/>
      <point x="321" y="29"/>
    </contour>
  </outline>
</glyph>
<glyph name="l" format="2">
  <advance width="304"/>
  <unicode hex="006C"/>
  <outline>
    <contour>
      <point x="418" y="725" type="curve" smooth="yes"/>
      <point x="331" y="725"/>
      <point x="261" y="662"/>
      <point x="218" y="530" type="curve" smooth="yes"/>
      <point x="113" y="206" type="line" smooth="yes"/>
      <point x="97" y="156"/>
      <point x="87" y="126"/>
      <point x="87" y="83" type="curve" smooth="yes"/>
      <point x="87" y="24"/>
      <point x="120" y="-15"/>
      <point x="183" y="-15" type="curve" smooth="yes"/>
      <point x="268" y="-15"/>
      <point x="327" y="51"/>
      <point x="327" y="102" type="curve" smooth="yes"/>
      <point x="327" y="118"/>
      <point x="320" y="134"/>
      <point x="306" y="134" type="curve" smooth="yes"/>
      <point x="297" y="134"/>
      <point x="290" y="133"/>
      <point x="285" y="126" type="curve" smooth="yes"/>
      <point x="281" y="121"/>
      <point x="274" y="116"/>
      <point x="260" y="116" type="curve" smooth="yes"/>
      <point x="247" y="116"/>
      <point x="238" y="132"/>
      <point x="238" y="163" type="curve" smooth="yes"/>
      <point x="238" y="186"/>
      <point x="247" y="218"/>
      <point x="259" y="258" type="curve" smooth="yes"/>
      <point x="323" y="458" type="line" smooth="yes"/>
      <point x="338" y="506"/>
      <point x="315" y="549"/>
      <point x="315" y="568" type="curve" smooth="yes"/>
      <point x="315" y="581"/>
      <point x="318" y="588"/>
      <point x="329" y="588" type="curve" smooth="yes"/>
      <point x="353" y="588"/>
      <point x="369" y="568"/>
      <point x="416" y="568" type="curve" smooth="yes"/>
      <point x="473" y="568"/>
      <point x="498" y="607"/>
      <point x="498" y="651" type="curve" smooth="yes"/>
      <point x="498" y="690"/>
      <point x="473" y="725"/>
    </contour>
  </outline>
</glyph>
<glyph name="m" format="2">
  <advance width="844"/>
  <unicode hex="006D"/>
  <outline>
    <contour>
      <point x="375" y="117" type="line" smooth="yes"/>
      <point x="364" y="90"/>
      <point x="360" y="75"/>
      <point x="362" y="52" type="curve" smooth="yes"/>
      <point x="363" y="8"/>
      <point x="388" y="-15"/>
      <point x="429" y="-15" type="curve" smooth="yes"/>
      <point x="486" y="-15"/>
      <point x="536" y="14"/>
      <point x="536" y="60" type="curve" smooth="yes"/>
      <point x="536" y="78"/>
      <point x="520" y="94"/>
      <point x="518" y="111" type="curve" smooth="yes"/>
      <point x="517" y="126"/>
      <point x="519" y="149"/>
      <point x="540" y="203" type="curve" smooth="yes"/>
      <point x="581" y="309"/>
      <point x="637" y="352"/>
      <point x="686" y="352" type="curve" smooth="yes"/>
      <point x="708" y="352"/>
      <point x="717" y="336"/>
      <point x="717" y="317" type="curve" smooth="yes"/>
      <point x="717" y="302"/>
      <point x="712" y="283"/>
      <point x="703" y="263" type="curve" smooth="yes"/>
      <point x="658" y="158" type="line" smooth="yes"/>
      <point x="642" y="121"/>
      <point x="628" y="87"/>
      <point x="629" y="53" type="curve" smooth="yes"/>
      <point x="631" y="15"/>
      <point x="661" y="-15"/>
      <point x="717" y="-15" type="curve" smooth="yes"/>
      <point x="817" y="-15"/>
      <point x="876" y="39"/>
      <point x="876" y="93" type="curve" smooth="yes"/>
      <point x="876" y="118"/>
      <point x="865" y="127"/>
      <point x="852" y="127" type="curve" smooth="yes"/>
      <point x="843" y="127"/>
      <point x="837" y="124"/>
      <point x="827" y="114" type="curve" smooth="yes"/>
      <point x="817" y="104"/>
      <point x="810" y="102"/>
      <point x="802" y="102" type="curve" smooth="yes"/>
      <point x="792" y="102"/>
      <point x="784" y="111"/>
      <point x="784" y="128" type="curve" smooth="yes"/>
      <point x="784" y="148"/>
      <point x="789" y="169"/>
      <point x="798" y="190" type="curve" smooth="yes"/>
      <point x="843" y="299" type="line" smooth="yes"/>
      <point x="861" y="342"/>
      <point x="868" y="370"/>
      <point x="868" y="409" type="curve" smooth="yes"/>
      <point x="868" y="457"/>
      <point x="837" y="490"/>
      <point x="781" y="490" type="curve" smooth="yes"/>
      <point x="705" y="490"/>
      <point x="622" y="428"/>
      <point x="538" y="307" type="curve"/>
      <point x="568" y="282" type="line"/>
      <point x="568" y="321"/>
      <point x="601" y="363"/>
      <point x="601" y="407" type="curve" smooth="yes"/>
      <point x="601" y="456"/>
      <point x="574" y="490"/>
      <point x="525" y="490" type="curve" smooth="yes"/>
      <point x="446" y="490"/>
      <point x="358" y="429"/>
      <point x="276" y="305" type="curve"/>
      <point x="294" y="293" type="line"/>
      <point x="302" y="358"/>
      <point x="332" y="396"/>
      <point x="330" y="425" type="curve" smooth="yes"/>
      <point x="329" y="464"/>
      <point x="302" y="491"/>
      <point x="260" y="491" type="curve" smooth="yes"/>
      <point x="181" y="491"/>
      <point x="92" y="429"/>
      <point x="92" y="383" type="curve" smooth="yes"/>
      <point x="92" y="362"/>
      <point x="104" y="349"/>
      <point x="123" y="349" type="curve" smooth="yes"/>
      <point x="137" y="349"/>
      <point x="146" y="354"/>
      <point x="156" y="364" type="curve" smooth="yes"/>
      <point x="163" y="371"/>
      <point x="171" y="374"/>
      <point x="177" y="374" type="curve" smooth="yes"/>
      <point x="186" y="374"/>
      <point x="193" y="364"/>
      <point x="193" y="351" type="curve" smooth="yes"/>
      <point x="193" y="335"/>
      <point x="190" y="323"/>
      <point x="184" y="308" type="curve" smooth="yes"/>
      <point x="98" y="100" type="line" smooth="yes"/>
      <point x="90" y="81"/>
      <point x="85" y="60"/>
      <point x="87" y="39" type="curve" smooth="yes"/>
      <point x="88" y="3"/>
      <point x="112" y="-15"/>
      <point x="153" y="-15" type="curve" smooth="yes"/>
      <point x="213" y="-15"/>
      <point x="268" y="16"/>
      <point x="265" y="60" type="curve" smooth="yes"/>
      <point x="264" y="81"/>
      <point x="254" y="101"/>
      <point x="254" y="122" type="curve" smooth="yes"/>
      <point x="254" y="139"/>
      <point x="257" y="168"/>
      <point x="270" y="198" type="curve" smooth="yes"/>
      <point x="311" y="305"/>
      <point x="372" y="353"/>
      <point x="421" y="353" type="curve" smooth="yes"/>
      <point x="441" y="353"/>
      <point x="449" y="338"/>
      <point x="449" y="318" type="curve" smooth="yes"/>
      <point x="449" y="302"/>
      <point x="442" y="283"/>
      <point x="434" y="263" type="curve" smooth="yes"/>
    </contour>
  </outline>
</glyph>
<glyph name="n" format="2">
  <advance width="580"/>
  <unicode hex="006E"/>
  <outline>
    <contour>
      <point x="130" y="344" type="curve" smooth="yes"/>
      <point x="146" y="344"/>
      <point x="156" y="354"/>
      <point x="170" y="365" type="curve" smooth="yes"/>
      <point x="177" y="371"/>
      <point x="183" y="372"/>
      <point x="188" y="372" type="curve" smooth="yes"/>
      <point x="199" y="372"/>
      <point x="204" y="363"/>
      <point x="205" y="352" type="curve" smooth="yes"/>
      <point x="206" y="338"/>
      <point x="203" y="324"/>
      <point x="196" y="308" type="curve" smooth="yes"/>
      <point x="110" y="100" type="line" smooth="yes"/>
      <point x="102" y="80"/>
      <point x="94" y="60"/>
      <point x="96" y="39" type="curve" smooth="yes"/>
      <point x="97" y="3"/>
      <point x="123" y="-15"/>
      <point x="165" y="-15" type="curve" smooth="yes"/>
      <point x="220" y="-15"/>
      <point x="279" y="20"/>
      <point x="279" y="54" type="curve" smooth="yes"/>
      <point x="279" y="72"/>
      <point x="274" y="90"/>
      <point x="272" y="108" type="curve" smooth="yes"/>
      <point x="271" y="124"/>
      <point x="276" y="149"/>
      <point x="290" y="185" type="curve" smooth="yes"/>
      <point x="338.154299009448" y="307.8425995138979"/>
      <point x="383.85915492957747" y="346.0"/>
      <point x="426" y="346" type="curve" smooth="yes"/>
      <point x="446.17391304347825" y="346.0"/>
      <point x="454.1851283300118" y="337.03794671981"/>
      <point x="455" y="324" type="curve" smooth="yes"/>
      <point x="455" y="310"/>
      <point x="450" y="292"/>
      <point x="444" y="275" type="curve" smooth="yes"/>
      <point x="393" y="140" type="line" smooth="yes"/>
      <point x="380" y="106"/>
      <point x="368" y="79"/>
      <point x="368" y="50" type="curve" smooth="yes"/>
      <point x="368" y="14"/>
      <point x="398" y="-15"/>
      <point x="451" y="-15" type="curve" smooth="yes"/>
      <point x="556" y="-15"/>
      <point x="626" y="36"/>
      <point x="626" y="86" type="curve" smooth="yes"/>
      <point x="626" y="112"/>
      <point x="616" y="122"/>
      <point x="603" y="122" type="curve" smooth="yes"/>
      <point x="592" y="122"/>
      <point x="580" y="117"/>
      <point x="571" y="107" type="curve" smooth="yes"/>
      <point x="563" y="98"/>
      <point x="553" y="93"/>
      <point x="544" y="93" type="curve" smooth="yes"/>
      <point x="534" y="93"/>
      <point x="527" y="103"/>
      <point x="527" y="121" type="curve" smooth="yes"/>
      <point x="527" y="137"/>
      <point x="531" y="154"/>
      <point x="537" y="170" type="curve" smooth="yes"/>
      <point x="586" y="299" type="line" smooth="yes"/>
      <point x="604" y="346"/>
      <point x="616" y="375"/>
      <point x="616" y="417" type="curve" smooth="yes"/>
      <point x="616" y="454"/>
      <point x="595" y="480"/>
      <point x="557" y="480" type="curve" smooth="yes"/>
      <point x="423.59016393442624" y="480.0"/>
      <point x="324" y="379"/>
      <point x="244" y="188" type="curve"/>
      <point x="269" y="194" type="line"/>
      <point x="269.0" y="235"/>
      <point x="358.0" y="351"/>
      <point x="359.0" y="412" type="curve" smooth="yes"/>
      <point x="360" y="458"/>
      <point x="331" y="480"/>
      <point x="288" y="480" type="curve" smooth="yes"/>
      <point x="187" y="480"/>
      <point x="95" y="418"/>
      <point x="98" y="376" type="curve" smooth="yes"/>
      <point x="99" y="357"/>
      <point x="110" y="344"/>
    </contour>
  </outline>
</glyph>
<glyph name="o" format="2">
  <advance width="457"/>
  <unicode hex="006F"/>
  <outline>
    <contour>
      <point x="372" y="480" type="curve" smooth="yes"/>
      <point x="216.0" y="480.0"/>
      <point x="86.0" y="302.0"/>
      <point x="86" y="139" type="curve" smooth="yes"/>
      <point x="86.0" y="39.0"/>
      <point x="143.0" y="-15.0"/>
      <point x="213" y="-15" type="curve" smooth="yes"/>
      <point x="378" y="-15"/>
      <point x="513" y="157"/>
      <point x="513" y="328" type="curve" smooth="yes"/>
      <point x="513" y="429"/>
      <point x="451" y="480"/>
    </contour>
    <contour>
      <point x="381.0" y="152.8918918918919"/>
      <point x="347.0" y="110.0"/>
      <point x="290" y="110" type="curve" smooth="yes"/>
      <point x="254.0" y="110.0"/>
      <point x="218.0" y="151.929203539823"/>
      <point x="218" y="213" type="curve" smooth="yes"/>
      <point x="218.0" y="306.42105263157896"/>
      <point x="246.0" y="355.0"/>
      <point x="303" y="355" type="curve" smooth="yes"/>
      <point x="343.0" y="355.0"/>
      <point x="381.0" y="312.017094017094"/>
      <point x="381" y="248" type="curve" smooth="yes"/>
    </contour>
  </outline>
</glyph>
<glyph name="p" format="2">
  <advance width="567"/>
  <unicode hex="0070"/>
  <outline>
    <contour>
      <point x="354" y="471" type="line" smooth="yes"/>
      <point x="367" y="519"/>
      <point x="369" y="528"/>
      <point x="369" y="538" type="curve" smooth="yes"/>
      <point x="369" y="566"/>
      <point x="351" y="586"/>
      <point x="324" y="586" type="curve" smooth="yes"/>
      <point x="281" y="586"/>
      <point x="250" y="563"/>
      <point x="232" y="498" type="curve" smooth="yes"/>
      <point x="58" y="-115" type="line" smooth="yes"/>
      <point x="53" y="-133"/>
      <point x="39" y="-145"/>
      <point x="17" y="-158" type="curve" smooth="yes"/>
      <point x="-13.256366225530211" y="-174.38886503882887"/>
      <point x="-24.0" y="-188.0"/>
      <point x="-24" y="-201" type="curve" smooth="yes"/>
      <point x="-24.0" y="-224.0"/>
      <point x="-9.693899344469145" y="-235.4408938524639"/>
      <point x="9" y="-235" type="curve" smooth="yes"/>
      <point x="221" y="-230" type="line" smooth="yes"/>
      <point x="241.77452506440795" y="-229.5100347862168"/>
      <point x="256.0" y="-216.0"/>
      <point x="256" y="-197" type="curve" smooth="yes"/>
      <point x="256.0" y="-181.0"/>
      <point x="249.55682104397997" y="-167.23863759027714"/>
      <point x="228" y="-158" type="curve" smooth="yes"/>
      <point x="206" y="-148"/>
      <point x="198" y="-138"/>
      <point x="198" y="-121" type="curve" smooth="yes"/>
      <point x="198" y="-105"/>
      <point x="205" y="-84"/>
      <point x="210" y="-65" type="curve" smooth="yes"/>
    </contour>
    <contour>
      <point x="124" y="320" type="curve" smooth="yes"/>
      <point x="147" y="320"/>
      <point x="166" y="333"/>
      <point x="184" y="347" type="curve" smooth="yes"/>
      <point x="231.27130674055041" y="385.58882182902073"/>
      <point x="276.16666666666663" y="401.0"/>
      <point x="342" y="401" type="curve" smooth="yes"/>
      <point x="419" y="401"/>
      <point x="463" y="353"/>
      <point x="463" y="264" type="curve" smooth="yes"/>
      <point x="463.0" y="144.0"/>
      <point x="395.0" y="72.0"/>
      <point x="313" y="72" type="curve" smooth="yes"/>
      <point x="266.0919540229885" y="72.0"/>
      <point x="237.99960832446266" y="100.00920437512785"/>
      <point x="236" y="147" type="curve"/>
      <point x="172" y="119" type="line"/>
      <point x="172.0" y="48.34579439252337"/>
      <point x="230.21951219512195" y="-16.0"/>
      <point x="326" y="-16" type="curve" smooth="yes"/>
      <point x="474.0" y="-16.0"/>
      <point x="608.0" y="117.0"/>
      <point x="608" y="293" type="curve" smooth="yes"/>
      <point x="608" y="414"/>
      <point x="536" y="490"/>
      <point x="401" y="490" type="curve" smooth="yes"/>
      <point x="260.0344827586207" y="490.0"/>
      <point x="177.95569476414695" y="456.00971055220833"/>
      <point x="121" y="402" type="curve" smooth="yes"/>
      <point x="111" y="392"/>
      <point x="96" y="374"/>
      <point x="96" y="354" type="curve" smooth="yes"/>
      <point x="96" y="331"/>
      <point x="109" y="320"/>
    </contour>
  </outline>
</glyph>
<glyph name="q" format="2">
  <advance width="516"/>
  <unicode hex="0071"/>
  <outline>
    <contour>
      <point x="232" y="106"/>
      <point x="211" y="128"/>
      <point x="211" y="176" type="curve" smooth="yes"/>
      <point x="211" y="298"/>
      <point x="291.0" y="388"/>
      <point x="370" y="388" type="curve" smooth="yes"/>
      <point x="404" y="388"/>
      <point x="423" y="361"/>
      <point x="423" y="324" type="curve" smooth="yes"/>
      <point x="423.0" y="243"/>
      <point x="342" y="106.0"/>
      <point x="266" y="106" type="curve" smooth="yes"/>
    </contour>
    <contour>
      <point x="405" y="202" type="line"/>
      <point x="318" y="-94" type="line" smooth="yes"/>
      <point x="310" y="-120"/>
      <point x="297" y="-141"/>
      <point x="269" y="-152" type="curve" smooth="yes"/>
      <point x="237.8236000700861" y="-163.43134664096843"/>
      <point x="226.0" y="-181.76470588235293"/>
      <point x="226" y="-196" type="curve" smooth="yes"/>
      <point x="226.0" y="-218.66666666666666"/>
      <point x="238.00520362446196" y="-230.40803051978412"/>
      <point x="254" y="-230" type="curve" smooth="yes"/>
      <point x="450" y="-225" type="line" smooth="yes"/>
      <point x="468.9938206959514" y="-224.51546375775635"/>
      <point x="482.0" y="-209.76923076923077"/>
      <point x="482" y="-189" type="curve" smooth="yes"/>
      <point x="482.0" y="-161.25"/>
      <point x="437.0" y="-152.0"/>
      <point x="437" y="-115" type="curve" smooth="yes"/>
      <point x="437" y="-99"/>
      <point x="440" y="-82"/>
      <point x="447" y="-54" type="curve" smooth="yes"/>
      <point x="533" y="291" type="line" smooth="yes"/>
      <point x="545" y="341"/>
      <point x="597.0" y="366.35779816513764"/>
      <point x="597" y="402" type="curve" smooth="yes"/>
      <point x="597.0" y="457.7191011235955"/>
      <point x="552" y="489"/>
      <point x="468" y="489" type="curve" smooth="yes"/>
      <point x="244.0" y="489.0"/>
      <point x="77.0" y="308.7314578005115"/>
      <point x="77" y="108" type="curve" smooth="yes"/>
      <point x="77.0" y="26.362831858407077"/>
      <point x="121.15178571428571" y="-15.0"/>
      <point x="192" y="-15" type="curve" smooth="yes"/>
      <point x="274.92765957446807" y="-15.0"/>
      <point x="375.07843245570916" y="64.20648544462199"/>
      <point x="424" y="193" type="curve"/>
    </contour>
  </outline>
</glyph>
<glyph name="r" format="2">
  <advance width="420"/>
  <unicode hex="0072"/>
  <outline>
    <contour>
      <point x="126" y="348" type="curve" smooth="yes"/>
      <point x="135" y="348"/>
      <point x="145" y="351"/>
      <point x="155" y="363" type="curve" smooth="yes"/>
      <point x="163" y="372"/>
      <point x="170" y="375"/>
      <point x="177" y="375" type="curve" smooth="yes"/>
      <point x="187" y="375"/>
      <point x="194" y="365"/>
      <point x="194" y="346" type="curve" smooth="yes"/>
      <point x="194" y="333"/>
      <point x="191" y="322"/>
      <point x="184" y="305" type="curve" smooth="yes"/>
      <point x="122" y="145" type="line" smooth="yes"/>
      <point x="108" y="108"/>
      <point x="95" y="80"/>
      <point x="95" y="47" type="curve" smooth="yes"/>
      <point x="95" y="13"/>
      <point x="119" y="-15"/>
      <point x="168" y="-15" type="curve" smooth="yes"/>
      <point x="234" y="-15"/>
      <point x="288" y="19"/>
      <point x="288" y="63" type="curve" smooth="yes"/>
      <point x="288" y="89"/>
      <point x="271" y="116"/>
      <point x="271" y="160" type="curve" smooth="yes"/>
      <point x="271" y="179"/>
      <point x="271" y="207"/>
      <point x="287" y="237" type="curve" smooth="yes"/>
      <point x="317" y="296"/>
      <point x="338" y="315"/>
      <point x="381" y="315" type="curve" smooth="yes"/>
      <point x="456" y="315"/>
      <point x="511" y="368"/>
      <point x="511" y="427" type="curve" smooth="yes"/>
      <point x="511" y="468"/>
      <point x="477" y="490"/>
      <point x="441" y="490" type="curve" smooth="yes"/>
      <point x="383" y="490"/>
      <point x="329" y="446"/>
      <point x="228" y="216" type="curve"/>
      <point x="236" y="228"/>
      <point x="241" y="208"/>
      <point x="241" y="208" type="curve" smooth="yes"/>
      <point x="241" y="262"/>
      <point x="303" y="380"/>
      <point x="303" y="443" type="curve" smooth="yes"/>
      <point x="303" y="471"/>
      <point x="283" y="490"/>
      <point x="254" y="490" type="curve" smooth="yes"/>
      <point x="180" y="490"/>
      <point x="94" y="425"/>
      <point x="94" y="383" type="curve" smooth="yes"/>
      <point x="94" y="360"/>
      <point x="107" y="348"/>
    </contour>
  </outline>
</glyph>
<glyph name="s" format="2">
  <advance width="441"/>
  <unicode hex="0073"/>
  <outline>
    <contour>
      <point x="281" y="61" type="curve" smooth="yes"/>
      <point x="251.5" y="61.0"/>
      <point x="232.1648607796346" y="72.12580892456643"/>
      <point x="222" y="98" type="curve" smooth="yes"/>
      <point x="199" y="156"/>
      <point x="165.0125" y="175.0"/>
      <point x="125" y="175" type="curve" smooth="yes"/>
      <point x="88.0" y="175.0"/>
      <point x="65.0" y="144.84126984126985"/>
      <point x="65" y="99" type="curve" smooth="yes"/>
      <point x="65.0" y="31.67716535433071"/>
      <point x="123" y="-15"/>
      <point x="218" y="-15" type="curve" smooth="yes"/>
      <point x="372.0" y="-15.0"/>
      <point x="451.0" y="61.0"/>
      <point x="451" y="142" type="curve" smooth="yes"/>
      <point x="451" y="191"/>
      <point x="423.7038071105584" y="229.80521073435008"/>
      <point x="359" y="270" type="curve" smooth="yes"/>
      <point x="272" y="323"/>
      <point x="251.0" y="342.0"/>
      <point x="251" y="374" type="curve" smooth="yes"/>
      <point x="251.0" y="395.3333333333333"/>
      <point x="274.0" y="414.0"/>
      <point x="302" y="414" type="curve" smooth="yes"/>
      <point x="325.35593220338984" y="414.0"/>
      <point x="343" y="396"/>
      <point x="355" y="364" type="curve" smooth="yes"/>
      <point x="373" y="316"/>
      <point x="409" y="297.0"/>
      <point x="442" y="297" type="curve" smooth="yes"/>
      <point x="485" y="297"/>
      <point x="513.0" y="326.0967741935484"/>
      <point x="513" y="379" type="curve" smooth="yes"/>
      <point x="513.0" y="436.7933884297521"/>
      <point x="465" y="490"/>
      <point x="370" y="490" type="curve" smooth="yes"/>
      <point x="222" y="490"/>
      <point x="131" y="405.0"/>
      <point x="131" y="321" type="curve" smooth="yes"/>
      <point x="131" y="273"/>
      <point x="152.17753016575452" y="225.34925964524092"/>
      <point x="227" y="184" type="curve" smooth="yes"/>
      <point x="305.8018232312024" y="140.32670037788785"/>
      <point x="325.0" y="119.0"/>
      <point x="325" y="97" type="curve" smooth="yes"/>
      <point x="325.0" y="74.0"/>
      <point x="305.4444444444444" y="61.0"/>
    </contour>
  </outline>
</glyph>
<glyph name="t" format="2">
  <advance width="369"/>
  <unicode hex="0074"/>
  <outline>
    <contour>
      <point x="151" y="360" type="line" smooth="yes"/>
      <point x="162" y="351"/>
      <point x="169.0" y="343"/>
      <point x="169" y="324" type="curve" smooth="yes"/>
      <point x="169.0" y="312.0612244897959"/>
      <point x="163.522016412476" y="295.72846148485377"/>
      <point x="158" y="279" type="curve" smooth="yes"/>
      <point x="124" y="176" type="line" smooth="yes"/>
      <point x="104" y="114"/>
      <point x="96" y="91"/>
      <point x="96" y="63" type="curve" smooth="yes"/>
      <point x="96" y="17"/>
      <point x="135" y="-15"/>
      <point x="190" y="-15" type="curve" smooth="yes"/>
      <point x="324" y="-15"/>
      <point x="390" y="64"/>
      <point x="390" y="113" type="curve" smooth="yes"/>
      <point x="390" y="127"/>
      <point x="385" y="137"/>
      <point x="366" y="137" type="curve" smooth="yes"/>
      <point x="356" y="137"/>
      <point x="346" y="133"/>
      <point x="335" y="122" type="curve" smooth="yes"/>
      <point x="321" y="108"/>
      <point x="304" y="96"/>
      <point x="276" y="96" type="curve" smooth="yes"/>
      <point x="261" y="96"/>
      <point x="251" y="115"/>
      <point x="251" y="136" type="curve" smooth="yes"/>
      <point x="251" y="150"/>
      <point x="255" y="165"/>
      <point x="273" y="218" type="curve" smooth="yes"/>
      <point x="344" y="432" type="line" smooth="yes"/>
      <point x="360.76321405411596" y="482.52574376874384"/>
      <point x="377.0" y="517.9473684210526"/>
      <point x="377" y="547" type="curve" smooth="yes"/>
      <point x="377" y="567"/>
      <point x="365" y="582"/>
      <point x="346" y="582" type="curve" smooth="yes"/>
      <point x="320.0" y="582.0"/>
      <point x="296" y="569"/>
      <point x="276" y="548" type="curve" smooth="yes"/>
      <point x="220" y="487" type="line" smooth="yes"/>
      <point x="198" y="463"/>
      <point x="181" y="455.0"/>
      <point x="160" y="455" type="curve" smooth="yes"/>
      <point x="150" y="455" type="line" smooth="yes"/>
      <point x="124.0" y="455.0"/>
      <point x="105.0" y="438"/>
      <point x="105" y="419" type="curve" smooth="yes"/>
      <point x="105" y="400"/>
      <point x="113" y="389"/>
      <point x="129" y="377" type="curve" smooth="yes"/>
    </contour>
    <contour>
      <point x="268" y="376" type="line"/>
      <point x="268" y="376"/>
      <point x="385" y="376"/>
      <point x="407" y="376" type="curve" smooth="yes"/>
      <point x="439" y="376"/>
      <point x="462" y="390"/>
      <point x="463" y="422" type="curve" smooth="yes"/>
      <point x="464" y="443"/>
      <point x="455" y="455"/>
      <point x="430" y="455" type="curve" smooth="yes"/>
      <point x="414" y="455"/>
      <point x="296" y="455"/>
      <point x="296" y="455" type="curve"/>
    </contour>
  </outline>
</glyph>
<glyph name="v" format="2">
  <advance width="574"/>
  <unicode hex="0076"/>
  <outline>
    <contour>
      <point x="452" y="-15"/>
      <point x="625" y="163"/>
      <point x="625" y="382" type="curve" smooth="yes"/>
      <point x="625" y="454"/>
      <point x="592" y="490"/>
      <point x="545" y="490" type="curve" smooth="yes"/>
      <point x="489" y="490"/>
      <point x="447" y="449"/>
      <point x="447" y="399" type="curve" smooth="yes"/>
      <point x="447" y="370"/>
      <point x="458" y="346"/>
      <point x="480" y="324" type="curve" smooth="yes"/>
      <point x="501" y="303"/>
      <point x="505" y="279"/>
      <point x="505" y="255" type="curve" smooth="yes"/>
      <point x="505" y="164"/>
      <point x="433" y="91"/>
      <point x="374" y="91" type="curve" smooth="yes"/>
      <point x="327" y="91"/>
      <point x="307" y="121"/>
      <point x="307" y="165" type="curve" smooth="yes"/>
      <point x="307.0" y="207.29166666666669"/>
      <point x="322.0256918606919" y="245.50994643568418"/>
      <point x="370" y="310" type="curve" smooth="yes"/>
      <point x="420.969332769448" y="379.37492515841535"/>
      <point x="431.0" y="414.21739130434787"/>
      <point x="431" y="451" type="curve" smooth="yes"/>
      <point x="431.0" y="477.6341463414634"/>
      <point x="418.05882352941177" y="490.0"/>
      <point x="391" y="490" type="curve" smooth="yes"/>
      <point x="368" y="490"/>
      <point x="353" y="475"/>
      <point x="325" y="475" type="curve" smooth="yes"/>
      <point x="303" y="475"/>
      <point x="261" y="490"/>
      <point x="244" y="490" type="curve" smooth="yes"/>
      <point x="150.0" y="490.0"/>
      <point x="88.0" y="395.94674556213016"/>
      <point x="88" y="303" type="curve" smooth="yes"/>
      <point x="88" y="249"/>
      <point x="112" y="218"/>
      <point x="148" y="218" type="curve" smooth="yes"/>
      <point x="178.0" y="218.0"/>
      <point x="207.0" y="235"/>
      <point x="207" y="268" type="curve" smooth="yes"/>
      <point x="207.0" y="291"/>
      <point x="195" y="307"/>
      <point x="169" y="312" type="curve" smooth="yes"/>
      <point x="150" y="315"/>
      <point x="145.0" y="321"/>
      <point x="145" y="332" type="curve" smooth="yes"/>
      <point x="145.0" y="341"/>
      <point x="153" y="349.0"/>
      <point x="171" y="349" type="curve" smooth="yes"/>
      <point x="204" y="349.0"/>
      <point x="257" y="336.0"/>
      <point x="294" y="336" type="curve" smooth="yes"/>
      <point x="345.49152542372883" y="336.0"/>
      <point x="365" y="403"/>
      <point x="343" y="437" type="curve"/>
      <point x="343.0" y="378"/>
      <point x="324" y="339"/>
      <point x="264" y="279" type="curve" smooth="yes"/>
      <point x="175" y="190"/>
      <point x="142.0" y="143.9870689655172"/>
      <point x="142" y="82" type="curve" smooth="yes"/>
      <point x="142.0" y="23.98130841121496"/>
      <point x="196.75" y="-15.0"/>
      <point x="288" y="-15" type="curve" smooth="yes"/>
    </contour>
  </outline>
</glyph>
<glyph name="w" format="2">
  <advance width="788"/>
  <unicode hex="0077"/>
  <outline>
    <contour>
      <point x="560" y="490" type="curve" smooth="yes"/>
      <point x="501.5" y="490.0"/>
      <point x="430.0" y="370.0"/>
      <point x="430" y="151" type="curve" smooth="yes"/>
      <point x="430.0" y="46.0"/>
      <point x="469" y="-15"/>
      <point x="552" y="-15.0" type="curve" smooth="yes"/>
      <point x="667.0" y="-15.0"/>
      <point x="840.0" y="153.42048517520217"/>
      <point x="840" y="366" type="curve" smooth="yes"/>
      <point x="840.0" y="457.66666666666663"/>
      <point x="806.0" y="491.0"/>
      <point x="758" y="491" type="curve" smooth="yes"/>
      <point x="704.0" y="491.0"/>
      <point x="661.0" y="452.9375"/>
      <point x="661" y="404" type="curve" smooth="yes"/>
      <point x="661.0" y="373.5774647887324"/>
      <point x="666.0353073590082" y="357.43621887482976"/>
      <point x="693" y="324" type="curve" smooth="yes"/>
      <point x="707" y="306"/>
      <point x="721" y="278"/>
      <point x="721.0" y="233" type="curve" smooth="yes"/>
      <point x="721.0" y="141.0"/>
      <point x="665" y="80.0"/>
      <point x="601" y="80" type="curve" smooth="yes"/>
      <point x="561" y="80"/>
      <point x="523" y="121"/>
      <point x="525" y="189" type="curve"/>
      <point x="467.1905559361487" y="108.87813892904825"/>
      <point x="408.41520467836256" y="80.0"/>
      <point x="347" y="80" type="curve" smooth="yes"/>
      <point x="306.7014925373134" y="80.0"/>
      <point x="287.0" y="110.0"/>
      <point x="287" y="154" type="curve" smooth="yes"/>
      <point x="287.0" y="207.42857142857144"/>
      <point x="310" y="261"/>
      <point x="393" y="374" type="curve" smooth="yes"/>
      <point x="417" y="407"/>
      <point x="425" y="429"/>
      <point x="425" y="448" type="curve" smooth="yes"/>
      <point x="425" y="477"/>
      <point x="414" y="490"/>
      <point x="394" y="490" type="curve" smooth="yes"/>
      <point x="371" y="490"/>
      <point x="355" y="474"/>
      <point x="326" y="474" type="curve" smooth="yes"/>
      <point x="304" y="474"/>
      <point x="259" y="490"/>
      <point x="239" y="490" type="curve" smooth="yes"/>
      <point x="149" y="490"/>
      <point x="88" y="405"/>
      <point x="88" y="321" type="curve" smooth="yes"/>
      <point x="88" y="267"/>
      <point x="112" y="236"/>
      <point x="148" y="236" type="curve" smooth="yes"/>
      <point x="179" y="236"/>
      <point x="207" y="256"/>
      <point x="207" y="294" type="curve" smooth="yes"/>
      <point x="207" y="307"/>
      <point x="202" y="321"/>
      <point x="188" y="327" type="curve" smooth="yes"/>
      <point x="173" y="333"/>
      <point x="168" y="342"/>
      <point x="168" y="350" type="curve" smooth="yes"/>
      <point x="168" y="359"/>
      <point x="178" y="367"/>
      <point x="199" y="367" type="curve" smooth="yes"/>
      <point x="226" y="367"/>
      <point x="271" y="354"/>
      <point x="303" y="354" type="curve" smooth="yes"/>
      <point x="345.0" y="354.0"/>
      <point x="387.3695213777629" y="397.7968569140336"/>
      <point x="363" y="437" type="curve"/>
      <point x="363.0" y="418.0"/>
      <point x="356.0" y="398.0"/>
      <point x="304" y="342" type="curve" smooth="yes"/>
      <point x="186.401419136125" y="213.30721339425003"/>
      <point x="143.0" y="145.32258064516128"/>
      <point x="143" y="74" type="curve" smooth="yes"/>
      <point x="143.0" y="20.926605504587158"/>
      <point x="186.6206896551724" y="-15.0"/>
      <point x="258" y="-15" type="curve" smooth="yes"/>
      <point x="433.153125" y="-15.0"/>
      <point x="615.0" y="205.0"/>
      <point x="615" y="405" type="curve" smooth="yes"/>
      <point x="615.0" y="464.0"/>
      <point x="593.0" y="490.0"/>
    </contour>
  </outline>
</glyph>
<glyph name="x" format="2">
  <advance width="620"/>
  <unicode hex="0078"/>
  <outline>
    <contour>
      <point x="205" y="71" type="curve" smooth="yes"/>
      <point x="188" y="71"/>
      <point x="178" y="81"/>
      <point x="178" y="93" type="curve" smooth="yes"/>
      <point x="178" y="107"/>
      <point x="185" y="123"/>
      <point x="185" y="134" type="curve" smooth="yes"/>
      <point x="185" y="169"/>
      <point x="161" y="191"/>
      <point x="125" y="191" type="curve" smooth="yes"/>
      <point x="79" y="191"/>
      <point x="40" y="156"/>
      <point x="40" y="97" type="curve" smooth="yes"/>
      <point x="40" y="41"/>
      <point x="78" y="-16"/>
      <point x="153" y="-16" type="curve" smooth="yes"/>
      <point x="242" y="-16"/>
      <point x="321" y="64"/>
      <point x="321" y="156" type="curve"/>
      <point x="308" y="156" type="line"/>
      <point x="308" y="35"/>
      <point x="354" y="-15"/>
      <point x="454" y="-15" type="curve" smooth="yes"/>
      <point x="550" y="-15.0"/>
      <point x="637.0" y="69"/>
      <point x="637" y="134" type="curve" smooth="yes"/>
      <point x="637" y="153"/>
      <point x="626.1304347826087" y="166.0"/>
      <point x="612" y="166" type="curve" smooth="yes"/>
      <point x="594" y="166"/>
      <point x="584.2566425111673" y="156.41996047281927"/>
      <point x="573" y="138" type="curve" smooth="yes"/>
      <point x="560" y="116"/>
      <point x="539.4166666666666" y="96.0"/>
      <point x="508" y="96" type="curve" smooth="yes"/>
      <point x="473" y="96"/>
      <point x="440" y="118"/>
      <point x="440" y="192" type="curve" smooth="yes"/>
      <point x="440.0" y="299.6190476190476"/>
      <point x="495.5508474576271" y="392.0"/>
      <point x="555" y="392" type="curve" smooth="yes"/>
      <point x="570.1111111111111" y="392.0"/>
      <point x="579.0" y="382.0"/>
      <point x="579" y="370" type="curve" smooth="yes"/>
      <point x="579" y="357"/>
      <point x="573" y="342"/>
      <point x="573" y="332" type="curve" smooth="yes"/>
      <point x="573.0" y="302.3829787234043"/>
      <point x="594.7678571428571" y="284.0"/>
      <point x="626" y="284" type="curve" smooth="yes"/>
      <point x="673.3" y="284.0"/>
      <point x="712" y="318"/>
      <point x="712" y="377" type="curve" smooth="yes"/>
      <point x="712.0" y="438.0"/>
      <point x="675" y="490.0"/>
      <point x="604" y="490" type="curve" smooth="yes"/>
      <point x="511" y="490"/>
      <point x="424" y="397"/>
      <point x="424" y="297" type="curve"/>
      <point x="433" y="299" type="line"/>
      <point x="434" y="444"/>
      <point x="394" y="490"/>
      <point x="315" y="490" type="curve" smooth="yes"/>
      <point x="213.17142857142858" y="490.0"/>
      <point x="135.0" y="417.8455284552846"/>
      <point x="135" y="365" type="curve" smooth="yes"/>
      <point x="135.0" y="339.38461538461536"/>
      <point x="152.6551724137931" y="328.0"/>
      <point x="167" y="328" type="curve" smooth="yes"/>
      <point x="185.07317073170734" y="328.0"/>
      <point x="196" y="341"/>
      <point x="206" y="355" type="curve" smooth="yes"/>
      <point x="223" y="379"/>
      <point x="240" y="391.0"/>
      <point x="261" y="391" type="curve" smooth="yes"/>
      <point x="287" y="391"/>
      <point x="305" y="368"/>
      <point x="305" y="290" type="curve" smooth="yes"/>
      <point x="305" y="157"/>
      <point x="256" y="71"/>
    </contour>
  </outline>
</glyph>
<glyph name="y" format="2">
  <advance width="521"/>
  <unicode hex="0079"/>
  <outline>
    <contour>
      <point x="494.0" y="490.0"/>
      <point x="422.0" y="402"/>
      <point x="316" y="82" type="curve" smooth="yes"/>
      <point x="311.0" y="67.0"/>
      <point x="304.0" y="51.0"/>
      <point x="293" y="24" type="curve"/>
      <point x="332" y="25" type="line"/>
      <point x="326" y="130"/>
      <point x="303" y="309"/>
      <point x="293" y="389" type="curve" smooth="yes"/>
      <point x="283" y="469"/>
      <point x="249" y="491"/>
      <point x="205" y="491" type="curve" smooth="yes"/>
      <point x="149" y="491"/>
      <point x="79" y="436"/>
      <point x="79" y="394" type="curve" smooth="yes"/>
      <point x="79" y="371"/>
      <point x="92" y="358"/>
      <point x="112" y="358" type="curve" smooth="yes"/>
      <point x="127" y="358"/>
      <point x="137" y="361"/>
      <point x="148" y="361" type="curve" smooth="yes"/>
      <point x="155" y="361"/>
      <point x="164" y="357"/>
      <point x="168" y="332" type="curve" smooth="yes"/>
      <point x="190" y="199"/>
      <point x="218" y="38"/>
      <point x="218" y="-40" type="curve" smooth="yes"/>
      <point x="218" y="-110"/>
      <point x="194" y="-144"/>
      <point x="157" y="-144" type="curve" smooth="yes"/>
      <point x="128" y="-144"/>
      <point x="104" y="-131"/>
      <point x="83" y="-105" type="curve" smooth="yes"/>
      <point x="56" y="-73"/>
      <point x="28" y="-57"/>
      <point x="-5" y="-57" type="curve" smooth="yes"/>
      <point x="-53" y="-57"/>
      <point x="-80" y="-97"/>
      <point x="-80" y="-133" type="curve" smooth="yes"/>
      <point x="-80" y="-196"/>
      <point x="-30" y="-245"/>
      <point x="55" y="-245" type="curve" smooth="yes"/>
      <point x="173.9271523178808" y="-245.0"/>
      <point x="293.1703930666805" y="-174.47935451847627"/>
      <point x="347" y="-10" type="curve" smooth="yes"/>
      <point x="423.0" y="219"/>
      <point x="486.0" y="289.0"/>
      <point x="534" y="310" type="curve" smooth="yes"/>
      <point x="588" y="333"/>
      <point x="633" y="369"/>
      <point x="633" y="422" type="curve" smooth="yes"/>
      <point x="633" y="458"/>
      <point x="605" y="490"/>
      <point x="562" y="490" type="curve" smooth="yes"/>
    </contour>
  </outline>
</glyph>
<glyph name="z" format="2">
  <advance width="499"/>
  <unicode hex="007A"/>
  <outline>
    <contour>
      <point x="204" y="59" type="curve"/>
      <point x="207" y="131" type="line"/>
      <point x="240" y="131"/>
      <point x="335" y="118"/>
      <point x="382" y="118" type="curve" smooth="yes"/>
      <point x="417" y="118"/>
      <point x="435" y="129"/>
      <point x="451" y="160" type="curve" smooth="yes"/>
      <point x="461" y="179"/>
      <point x="475" y="187"/>
      <point x="489" y="187" type="curve" smooth="yes"/>
      <point x="506" y="187"/>
      <point x="516" y="176"/>
      <point x="516" y="152" type="curve" smooth="yes"/>
      <point x="516" y="52"/>
      <point x="443" y="-15"/>
      <point x="357" y="-15" type="curve" smooth="yes"/>
      <point x="277" y="-15"/>
      <point x="220" y="42"/>
      <point x="192" y="42" type="curve" smooth="yes"/>
      <point x="170" y="42"/>
      <point x="163" y="-15"/>
      <point x="117" y="-15" type="curve" smooth="yes"/>
      <point x="79" y="-15"/>
      <point x="54" y="5"/>
      <point x="54" y="45" type="curve" smooth="yes"/>
      <point x="54" y="79"/>
      <point x="90" y="105"/>
      <point x="135" y="129" type="curve" smooth="yes"/>
      <point x="155" y="140"/>
      <point x="236" y="183"/>
      <point x="336" y="272" type="curve" smooth="yes"/>
      <point x="410" y="334"/>
      <point x="452" y="359"/>
      <point x="452" y="388" type="curve"/>
      <point x="446" y="322" type="line"/>
      <point x="398" y="322"/>
      <point x="273" y="346"/>
      <point x="216" y="346" type="curve" smooth="yes"/>
      <point x="196" y="346"/>
      <point x="187" y="337"/>
      <point x="187" y="326" type="curve" smooth="yes"/>
      <point x="187" y="319"/>
      <point x="191" y="311"/>
      <point x="203" y="306" type="curve" smooth="yes"/>
      <point x="223" y="298"/>
      <point x="232" y="280"/>
      <point x="232" y="263" type="curve" smooth="yes"/>
      <point x="232" y="232"/>
      <point x="206" y="215"/>
      <point x="179" y="215" type="curve" smooth="yes"/>
      <point x="137" y="215"/>
      <point x="109" y="249"/>
      <point x="109" y="310" type="curve" smooth="yes"/>
      <point x="109" y="402"/>
      <point x="173" y="490"/>
      <point x="270" y="490" type="curve" smooth="yes"/>
      <point x="355" y="490"/>
      <point x="391" y="410"/>
      <point x="439" y="410" type="curve" smooth="yes"/>
      <point x="459" y="410"/>
      <point x="473" y="416"/>
      <point x="478" y="440" type="curve" smooth="yes"/>
      <point x="483" y="471"/>
      <point x="503" y="490"/>
      <point x="535" y="490" type="curve" smooth="yes"/>
      <point x="572" y="490"/>
      <point x="591" y="468"/>
      <point x="591" y="427" type="curve" smooth="yes"/>
      <point x="591" y="394"/>
      <point x="571" y="363"/>
      <point x="515" y="324" type="curve" smooth="yes"/>
      <point x="477" y="298"/>
      <point x="426" y="260"/>
      <point x="360" y="206" type="curve" smooth="yes"/>
      <point x="239" y="106"/>
      <point x="204" y="76"/>
    </contour>
  </outline>
</glyph>
<glyph name="braceleft" format="2">
  <advance width="409"/>
  <unicode hex="007B"/>
  <outline>
    <contour>
      <point x="282" y="289" type="curve" smooth="yes"/>
      <point x="284" y="296"/>
      <point x="292" y="302"/>
      <point x="301" y="302" type="curve" smooth="yes"/>
      <point x="344" y="302"/>
      <point x="380" y="332"/>
      <point x="391" y="375" type="curve" smooth="yes"/>
      <point x="413" y="455"/>
      <point x="354" y="525"/>
      <point x="373" y="598" type="curve" smooth="yes"/>
      <point x="391" y="665"/>
      <point x="455" y="718"/>
      <point x="513" y="718" type="curve" smooth="yes"/>
      <point x="563" y="718" type="line" smooth="yes"/>
      <point x="577" y="718"/>
      <point x="588" y="725"/>
      <point x="591" y="737" type="curve" smooth="yes"/>
      <point x="594" y="747"/>
      <point x="589" y="755"/>
      <point x="575" y="755" type="curve" smooth="yes"/>
      <point x="523" y="755" type="line" smooth="yes"/>
      <point x="412" y="755"/>
      <point x="316" y="692"/>
      <point x="292" y="600" type="curve" smooth="yes"/>
      <point x="268" y="510"/>
      <point x="331" y="452"/>
      <point x="312" y="379" type="curve" smooth="yes"/>
      <point x="300" y="335"/>
      <point x="259" y="311"/>
      <point x="194" y="311" type="curve" smooth="yes"/>
      <point x="181" y="311"/>
      <point x="167" y="300"/>
      <point x="165" y="290" type="curve" smooth="yes"/>
      <point x="162" y="279"/>
      <point x="169" y="269"/>
      <point x="183" y="269" type="curve" smooth="yes"/>
      <point x="251" y="269"/>
      <point x="275" y="241"/>
      <point x="263" y="196" type="curve" smooth="yes"/>
      <point x="244" y="127"/>
      <point x="149" y="67"/>
      <point x="123" y="-30" type="curve" smooth="yes"/>
      <point x="99" y="-120"/>
      <point x="160" y="-185"/>
      <point x="271" y="-185" type="curve" smooth="yes"/>
      <point x="323" y="-185" type="line" smooth="yes"/>
      <point x="337" y="-185"/>
      <point x="347" y="-175"/>
      <point x="349" y="-167" type="curve" smooth="yes"/>
      <point x="353" y="-153"/>
      <point x="345" y="-148"/>
      <point x="331" y="-148" type="curve" smooth="yes"/>
      <point x="281" y="-148" type="line" smooth="yes"/>
      <point x="223" y="-148"/>
      <point x="188" y="-93"/>
      <point x="205" y="-28" type="curve" smooth="yes"/>
      <point x="226" y="50"/>
      <point x="324" y="124"/>
      <point x="345" y="201" type="curve" smooth="yes"/>
      <point x="356" y="243"/>
      <point x="340" y="277"/>
      <point x="294" y="277" type="curve" smooth="yes"/>
      <point x="285" y="277"/>
      <point x="280" y="281"/>
    </contour>
  </outline>
</glyph>
<glyph name="bar" format="2">
  <advance width="357"/>
  <unicode hex="007C"/>
  <outline>
    <contour>
      <point x="324" y="711.0" type="curve" smooth="yes"/>
      <point x="308" y="592.0"/>
      <point x="253" y="347.0"/>
      <point x="234" y="265.0" type="curve" smooth="yes"/>
      <point x="212" y="168.0"/>
      <point x="157" y="-67.0"/>
      <point x="117" y="-187.0" type="curve" smooth="yes"/>
      <point x="116" y="-195.0"/>
      <point x="113" y="-202.0"/>
      <point x="111" y="-210.0" type="curve" smooth="yes"/>
      <point x="106" y="-235.0"/>
      <point x="117" y="-250.0"/>
      <point x="140" y="-250.0" type="curve" smooth="yes"/>
      <point x="162" y="-250.0"/>
      <point x="179" y="-235.0"/>
      <point x="185" y="-213.0" type="curve" smooth="yes"/>
      <point x="186" y="-204.0"/>
      <point x="189" y="-195.0"/>
      <point x="190" y="-184.0" type="curve" smooth="yes"/>
      <point x="210" y="-63.0"/>
      <point x="258" y="161.0"/>
      <point x="282" y="263.0" type="curve" smooth="yes"/>
      <point x="300" y="339.0"/>
      <point x="358" y="594.0"/>
      <point x="391" y="710.0" type="curve" smooth="yes"/>
      <point x="396" y="724.0"/>
      <point x="395" y="725.0"/>
      <point x="395" y="727.0" type="curve" smooth="yes"/>
      <point x="401" y="748.0"/>
      <point x="392.0" y="765.0"/>
      <point x="371.0" y="765.0" type="curve" smooth="yes"/>
      <point x="351.0" y="765.0"/>
      <point x="333" y="750.0"/>
      <point x="327" y="725.0" type="curve" smooth="yes"/>
      <point x="327" y="721.0"/>
      <point x="325" y="716.0"/>
    </contour>
  </outline>
</glyph>
<glyph name="cent" format="2">
  <advance width="458"/>
  <unicode hex="00A2"/>
  <outline>
    <contour>
      <point x="226" y="-34" type="curve" smooth="yes"/>
      <point x="219" y="-59"/>
      <point x="229" y="-70"/>
      <point x="243" y="-70" type="curve" smooth="yes"/>
      <point x="261" y="-70"/>
      <point x="277" y="-58"/>
      <point x="285" y="-34" type="curve" smooth="yes"/>
      <point x="298" y="10"/>
      <point x="297" y="63"/>
      <point x="370" y="335" type="curve" smooth="yes"/>
      <point x="436" y="581"/>
      <point x="460" y="626"/>
      <point x="471" y="668" type="curve" smooth="yes"/>
      <point x="477" y="692"/>
      <point x="466" y="704"/>
      <point x="451" y="704" type="curve" smooth="yes"/>
      <point x="435" y="704"/>
      <point x="417" y="693"/>
      <point x="411" y="670" type="curve" smooth="yes"/>
      <point x="401" y="633"/>
      <point x="400" y="585"/>
      <point x="333" y="335" type="curve" smooth="yes"/>
      <point x="260" y="65"/>
      <point x="238" y="10"/>
    </contour>
    <component base="c" xOffset="54" yOffset="91"/>
  </outline>
</glyph>
<glyph name="currency" format="2">
  <advance width="534"/>
  <unicode hex="00A4"/>
  <outline>
    <contour>
      <point x="302" y="136" type="curve" smooth="yes"/>
      <point x="198" y="136"/>
      <point x="138" y="224"/>
      <point x="165" y="326" type="curve" smooth="yes"/>
      <point x="193" y="429"/>
      <point x="300" y="514"/>
      <point x="404" y="514" type="curve" smooth="yes"/>
      <point x="510" y="514"/>
      <point x="570" y="429"/>
      <point x="542" y="326" type="curve" smooth="yes"/>
      <point x="515" y="224"/>
      <point x="408" y="136"/>
    </contour>
    <contour>
      <point x="328" y="226" type="curve" smooth="yes"/>
      <point x="381" y="226"/>
      <point x="438" y="270"/>
      <point x="453" y="326" type="curve" smooth="yes"/>
      <point x="468" y="382"/>
      <point x="434" y="425"/>
      <point x="381" y="425" type="curve" smooth="yes"/>
      <point x="325" y="425"/>
      <point x="271" y="382"/>
      <point x="256" y="326" type="curve" smooth="yes"/>
      <point x="241" y="270"/>
      <point x="272" y="226"/>
    </contour>
    <contour>
      <point x="203" y="536" type="curve" smooth="yes"/>
      <point x="220" y="550"/>
      <point x="244" y="547"/>
      <point x="256" y="530" type="curve" smooth="yes"/>
      <point x="313" y="452" type="line"/>
      <point x="250" y="402" type="line"/>
      <point x="192" y="478" type="line" smooth="yes"/>
      <point x="179" y="494"/>
      <point x="181" y="520"/>
    </contour>
    <contour>
      <point x="493" y="396" type="line"/>
      <point x="455" y="447" type="line"/>
      <point x="564" y="532" type="line" smooth="yes"/>
      <point x="585" y="549"/>
      <point x="608" y="551"/>
      <point x="619" y="535" type="curve" smooth="yes"/>
      <point x="630" y="520"/>
      <point x="623" y="499"/>
      <point x="600" y="481" type="curve" smooth="yes"/>
    </contour>
    <contour>
      <point x="461" y="248" type="line"/>
      <point x="514" y="177" type="line" smooth="yes"/>
      <point x="528" y="158"/>
      <point x="525" y="132"/>
      <point x="508" y="119" type="curve" smooth="yes"/>
      <point x="486" y="103"/>
      <point x="464" y="106"/>
      <point x="452" y="123" type="curve" smooth="yes"/>
      <point x="402" y="194" type="line"/>
    </contour>
    <contour>
      <point x="91" y="118" type="curve" smooth="yes"/>
      <point x="81" y="134"/>
      <point x="88" y="157"/>
      <point x="110" y="174" type="curve" smooth="yes"/>
      <point x="211" y="254" type="line"/>
      <point x="239" y="196" type="line"/>
      <point x="146" y="123" type="line" smooth="yes"/>
      <point x="126" y="107"/>
      <point x="99" y="104"/>
    </contour>
  </outline>
</glyph>
<glyph name="brokenbar" format="2">
  <advance width="364"/>
  <unicode hex="00A6"/>
  <outline>
    <contour>
      <point x="427" y="723" type="line" smooth="yes"/>
      <point x="434" y="750"/>
      <point x="426" y="774"/>
      <point x="393" y="776" type="curve" smooth="yes"/>
      <point x="361" y="778"/>
      <point x="335" y="752"/>
      <point x="328" y="723" type="curve" smooth="yes"/>
      <point x="230" y="359" type="line" smooth="yes"/>
      <point x="223" y="330"/>
      <point x="234" y="304"/>
      <point x="267" y="306" type="curve" smooth="yes"/>
      <point x="301" y="308"/>
      <point x="322" y="332"/>
      <point x="329" y="359" type="curve" smooth="yes"/>
    </contour>
    <contour>
      <point x="276" y="162" type="line" smooth="yes"/>
      <point x="283" y="189"/>
      <point x="276" y="213"/>
      <point x="243" y="215" type="curve" smooth="yes"/>
      <point x="211" y="217"/>
      <point x="185" y="191"/>
      <point x="177" y="162" type="curve" smooth="yes"/>
      <point x="80" y="-202" type="line" smooth="yes"/>
      <point x="72" y="-231"/>
      <point x="84" y="-257"/>
      <point x="117" y="-255" type="curve" smooth="yes"/>
      <point x="151" y="-253"/>
      <point x="172" y="-229"/>
      <point x="179" y="-202" type="curve" smooth="yes"/>
    </contour>
  </outline>
</glyph>
<glyph name="registered" format="2">
  <advance width="752"/>
  <unicode hex="00AE"/>
  <outline>
    <contour>
      <point x="382" y="-15" type="curve" smooth="yes"/>
      <point x="245.0" y="-15.0"/>
      <point x="150.0" y="82.0"/>
      <point x="150" y="221" type="curve" smooth="yes"/>
      <point x="150.0" y="466.0"/>
      <point x="325.0" y="649.0"/>
      <point x="560" y="649" type="curve" smooth="yes"/>
      <point x="699" y="649"/>
      <point x="795" y="551"/>
      <point x="795" y="409" type="curve" smooth="yes"/>
      <point x="795" y="166"/>
      <point x="618" y="-15"/>
    </contour>
    <contour>
      <point x="398" y="37" type="curve" smooth="yes"/>
      <point x="597" y="37"/>
      <point x="747" y="189"/>
      <point x="747" y="392" type="curve" smooth="yes"/>
      <point x="747" y="514"/>
      <point x="665" y="600"/>
      <point x="549" y="600" type="curve" smooth="yes"/>
      <point x="351.0" y="600.0"/>
      <point x="204.0" y="445.0"/>
      <point x="204" y="235" type="curve" smooth="yes"/>
      <point x="204.0" y="118.0"/>
      <point x="284.0" y="37.0"/>
    </contour>
    <contour>
      <point x="400" y="287.0" type="move"/>
      <point x="412" y="279"/>
      <point x="431.0" y="272.0"/>
      <point x="451" y="272.0" type="curve" smooth="yes"/>
      <point x="551.0" y="274"/>
      <point x="644.0" y="322"/>
      <point x="644.0" y="421" type="curve" smooth="yes"/>
      <point x="644.0" y="481"/>
      <point x="594" y="527.0"/>
      <point x="518.0" y="527.0" type="curve" smooth="yes"/>
      <point x="393" y="527.0" type="line"/>
      <point x="380.0" y="527.0"/>
      <point x="375" y="524.0"/>
      <point x="373" y="517" type="curve" smooth="yes"/>
      <point x="371.0" y="508"/>
      <point x="376" y="505"/>
      <point x="385" y="503.0" type="curve" smooth="yes"/>
      <point x="398.0" y="500.0" type="line" smooth="yes"/>
      <point x="409" y="497.0"/>
      <point x="412" y="489"/>
      <point x="410.0" y="475" type="curve" smooth="yes"/>
      <point x="394" y="385"/>
      <point x="370" y="289"/>
      <point x="334" y="185.0" type="curve" smooth="yes"/>
      <point x="328" y="171"/>
      <point x="322" y="163"/>
      <point x="308.0" y="160" type="curve" smooth="yes"/>
      <point x="294" y="157" type="line" smooth="yes"/>
      <point x="283" y="155.0"/>
      <point x="276" y="152.0"/>
      <point x="275.0" y="144" type="curve" smooth="yes"/>
      <point x="273" y="137.0"/>
      <point x="276" y="133"/>
      <point x="289" y="133" type="curve" smooth="yes"/>
      <point x="414" y="133" type="line" smooth="yes"/>
      <point x="426" y="133"/>
      <point x="432" y="137.0"/>
      <point x="434.0" y="144" type="curve" smooth="yes"/>
      <point x="437.0" y="152.0"/>
      <point x="431.0" y="155.0"/>
      <point x="422.0" y="157" type="curve" smooth="yes"/>
      <point x="408" y="160" type="line" smooth="yes"/>
      <point x="398.0" y="163"/>
      <point x="394" y="170.0"/>
      <point x="397" y="185.0" type="curve" smooth="yes"/>
      <point x="417" y="294"/>
      <point x="440" y="381"/>
      <point x="469.0" y="467" type="curve" smooth="yes"/>
      <point x="474" y="483"/>
      <point x="487" y="493.0"/>
      <point x="510" y="493.0" type="curve" smooth="yes"/>
      <point x="554" y="493.0"/>
      <point x="581.0" y="463"/>
      <point x="581.0" y="422" type="curve" smooth="yes"/>
      <point x="581.0" y="350"/>
      <point x="525" y="304.0"/>
      <point x="450" y="304" type="curve" smooth="yes"/>
      <point x="432" y="304"/>
      <point x="414" y="309"/>
      <point x="407.0" y="314.0" type="curve" smooth="yes"/>
    </contour>
    <contour>
      <point x="431.0" y="292" type="line"/>
      <point x="492.0" y="156.0"/>
      <point x="522.0" y="125.0"/>
      <point x="562" y="125.0" type="curve" smooth="yes"/>
      <point x="592" y="125.0"/>
      <point x="616.0" y="147.0"/>
      <point x="616" y="173" type="curve" smooth="yes"/>
      <point x="616" y="183.0"/>
      <point x="612.0" y="191"/>
      <point x="606.0" y="191" type="curve" smooth="yes"/>
      <point x="597" y="191.0"/>
      <point x="591" y="186.0"/>
      <point x="578.0" y="186.0" type="curve" smooth="yes"/>
      <point x="553.0" y="186.0"/>
      <point x="530" y="208"/>
      <point x="491" y="289" type="curve"/>
    </contour>
  </outline>
</glyph>
<glyph name="paragraph" format="2">
  <advance width="661"/>
  <unicode hex="00B6"/>
  <outline>
    <contour>
      <point x="497" y="110" type="curve" smooth="yes"/>
      <point x="615" y="559" type="line" smooth="yes"/>
      <point x="623" y="591"/>
      <point x="616" y="615"/>
      <point x="585" y="615" type="curve" smooth="yes"/>
      <point x="551" y="615"/>
      <point x="533" y="588"/>
      <point x="526" y="563" type="curve" smooth="yes"/>
      <point x="374" y="-14" type="line" smooth="yes"/>
      <point x="335" y="-162"/>
      <point x="230" y="-245"/>
      <point x="88" y="-245" type="curve" smooth="yes"/>
      <point x="1" y="-245"/>
      <point x="-47" y="-200"/>
      <point x="-47" y="-140" type="curve" smooth="yes"/>
      <point x="-47" y="-105"/>
      <point x="-19" y="-69"/>
      <point x="29" y="-69" type="curve" smooth="yes"/>
      <point x="55" y="-69"/>
      <point x="76" y="-81"/>
      <point x="101" y="-108" type="curve" smooth="yes"/>
      <point x="125" y="-134"/>
      <point x="144" y="-155"/>
      <point x="171" y="-155" type="curve" smooth="yes"/>
      <point x="210" y="-155"/>
      <point x="251" y="-125"/>
      <point x="266" y="-68" type="curve" smooth="yes"/>
      <point x="356" y="278" type="line"/>
      <point x="339" y="275"/>
      <point x="320" y="271"/>
      <point x="295" y="271" type="curve" smooth="yes"/>
      <point x="165" y="271"/>
      <point x="94" y="366"/>
      <point x="130" y="504" type="curve" smooth="yes"/>
      <point x="162" y="623"/>
      <point x="287" y="700"/>
      <point x="430" y="700" type="curve" smooth="yes"/>
      <point x="785" y="700" type="line" smooth="yes"/>
      <point x="822" y="700"/>
      <point x="838" y="687"/>
      <point x="833" y="660" type="curve" smooth="yes"/>
      <point x="828" y="632"/>
      <point x="808" y="623"/>
      <point x="775" y="616" type="curve" smooth="yes"/>
      <point x="766" y="614" type="line" smooth="yes"/>
      <point x="739" y="608"/>
      <point x="717" y="591"/>
      <point x="706" y="549" type="curve" smooth="yes"/>
      <point x="595" y="125" type="line" smooth="yes"/>
      <point x="549" y="-52"/>
      <point x="433" y="-129"/>
      <point x="282" y="-129" type="curve"/>
      <point x="323" y="-39" type="line"/>
      <point x="405" y="-39"/>
      <point x="469" y="5"/>
    </contour>
  </outline>
</glyph>
<glyph name="Eth" format="2">
  <advance width="758"/>
  <unicode hex="00D0"/>
  <outline>
    <contour>
      <point x="121" y="353" type="curve" smooth="yes"/>
      <point x="116" y="334"/>
      <point x="124" y="322"/>
      <point x="145" y="322" type="curve" smooth="yes"/>
      <point x="428" y="322" type="line" smooth="yes"/>
      <point x="448.0" y="322.0"/>
      <point x="465" y="333"/>
      <point x="470" y="351" type="curve" smooth="yes"/>
      <point x="475" y="371"/>
      <point x="464.0" y="384.0"/>
      <point x="441" y="384" type="curve" smooth="yes"/>
      <point x="164" y="384" type="line" smooth="yes"/>
      <point x="144" y="384"/>
      <point x="126" y="372"/>
    </contour>
    <component base="D"/>
  </outline>
</glyph>
<glyph name="multiply" format="2">
  <advance width="452"/>
  <unicode hex="00D7"/>
  <outline>
    <contour>
      <point x="96" y="138" type="curve" smooth="yes"/>
      <point x="111" y="117"/>
      <point x="147" y="119"/>
      <point x="174" y="141" type="curve" smooth="yes"/>
      <point x="228" y="184"/>
      <point x="287" y="245"/>
      <point x="327" y="278" type="curve" smooth="yes"/>
      <point x="370" y="311"/>
      <point x="440" y="351"/>
      <point x="491" y="391" type="curve" smooth="yes"/>
      <point x="521" y="415"/>
      <point x="530" y="447"/>
      <point x="514" y="468" type="curve" smooth="yes"/>
      <point x="499" y="489"/>
      <point x="466" y="489"/>
      <point x="436" y="466" type="curve" smooth="yes"/>
      <point x="385" y="426"/>
      <point x="330" y="367"/>
      <point x="287" y="333" type="curve" smooth="yes"/>
      <point x="239" y="295"/>
      <point x="173" y="259"/>
      <point x="120" y="216" type="curve" smooth="yes"/>
      <point x="95" y="197"/>
      <point x="81" y="159"/>
    </contour>
    <contour>
      <point x="431" y="140" type="curve" smooth="yes"/>
      <point x="456" y="160"/>
      <point x="463" y="195"/>
      <point x="448" y="216" type="curve" smooth="yes"/>
      <point x="417" y="261"/>
      <point x="365" y="301"/>
      <point x="342" y="334" type="curve" smooth="yes"/>
      <point x="317" y="367"/>
      <point x="294" y="426"/>
      <point x="264" y="467" type="curve" smooth="yes"/>
      <point x="247" y="491"/>
      <point x="214" y="490"/>
      <point x="189" y="470" type="curve" smooth="yes"/>
      <point x="162" y="448"/>
      <point x="152" y="415"/>
      <point x="169" y="392" type="curve" smooth="yes"/>
      <point x="199" y="351"/>
      <point x="248" y="312"/>
      <point x="272" y="279" type="curve" smooth="yes"/>
      <point x="300" y="241"/>
      <point x="322" y="185"/>
      <point x="352" y="142" type="curve" smooth="yes"/>
      <point x="367" y="122"/>
      <point x="403" y="119"/>
    </contour>
  </outline>
</glyph>
<glyph name="Oslash" format="2">
  <advance width="750"/>
  <unicode hex="00D8"/>
  <outline>
    <contour>
      <point x="838" y="722.0" type="curve" smooth="yes"/>
      <point x="62" y="-18.0" type="line" smooth="yes"/>
      <point x="54" y="-26.0"/>
      <point x="49" y="-34.0"/>
      <point x="47" y="-40.0" type="curve" smooth="yes"/>
      <point x="45" y="-47.0"/>
      <point x="51" y="-54.0"/>
      <point x="59" y="-54.0" type="curve" smooth="yes"/>
      <point x="71" y="-54.0"/>
      <point x="84" y="-47.0"/>
      <point x="95" y="-36.0" type="curve" smooth="yes"/>
      <point x="865" y="700.0" type="line" smooth="yes"/>
      <point x="876" y="711.0"/>
      <point x="882" y="719.0"/>
      <point x="884" y="726.0" type="curve" smooth="yes"/>
      <point x="886" y="733.0"/>
      <point x="880" y="740.0"/>
      <point x="872" y="740.0" type="curve" smooth="yes"/>
      <point x="861" y="740.0"/>
      <point x="847" y="731.0"/>
    </contour>
    <component base="O"/>
  </outline>
</glyph>
<glyph name="ae" format="2">
  <advance width="718"/>
  <unicode hex="00E6"/>
  <outline>
    <contour>
      <point x="174" y="119" type="curve" smooth="yes"/>
      <point x="165.0" y="272"/>
      <point x="264.0" y="402"/>
      <point x="348" y="402" type="curve" smooth="yes"/>
      <point x="394" y="402"/>
      <point x="428" y="394"/>
      <point x="429" y="364" type="curve" smooth="yes"/>
      <point x="433" y="272"/>
      <point x="308" y="81.0"/>
      <point x="210" y="81" type="curve" smooth="yes"/>
      <point x="191" y="81.0"/>
      <point x="176" y="90"/>
    </contour>
    <contour>
      <point x="519" y="398" type="line"/>
      <point x="515.9992671020414" y="450.0127035646172"/>
      <point x="480.2631578947368" y="480.0"/>
      <point x="404" y="480" type="curve" smooth="yes"/>
      <point x="244.33434650455928" y="480.0"/>
      <point x="84.49945784309674" y="257.2600299027106"/>
      <point x="95" y="63" type="curve" smooth="yes"/>
      <point x="97.38902114254583" y="7.256173340597343"/>
      <point x="126.48936170212765" y="-15.0"/>
      <point x="169" y="-15" type="curve" smooth="yes"/>
      <point x="255.22568093385215" y="-15.0"/>
      <point x="365.4057499402528" y="60.135540437543085"/>
      <point x="446" y="313" type="curve"/>
    </contour>
    <component base="e" xOffset="288"/>
  </outline>
</glyph>
<glyph name="eth" format="2">
  <advance width="509"/>
  <unicode hex="00F0"/>
  <outline>
    <contour>
      <point x="393" y="491" type="curve" smooth="yes"/>
      <point x="212" y="491"/>
      <point x="77" y="323"/>
      <point x="77" y="146" type="curve" smooth="yes"/>
      <point x="77" y="47"/>
      <point x="142" y="-15"/>
      <point x="243" y="-15" type="curve" smooth="yes"/>
      <point x="415" y="-15"/>
      <point x="568" y="178"/>
      <point x="568" y="377" type="curve" smooth="yes"/>
      <point x="568" y="517"/>
      <point x="481" y="634"/>
      <point x="360" y="694" type="curve" smooth="yes"/>
      <point x="327" y="710"/>
      <point x="307" y="716"/>
      <point x="284" y="716" type="curve" smooth="yes"/>
      <point x="261" y="716"/>
      <point x="251" y="704"/>
      <point x="251" y="690" type="curve" smooth="yes"/>
      <point x="251" y="680"/>
      <point x="256" y="667"/>
      <point x="281" y="648" type="curve" smooth="yes"/>
      <point x="384" y="571"/>
      <point x="434" y="501"/>
      <point x="434" y="385" type="curve"/>
      <point x="468" y="396" type="line"/>
      <point x="468" y="455"/>
      <point x="442" y="491"/>
    </contour>
    <contour>
      <point x="287" y="84" type="curve" smooth="yes"/>
      <point x="247" y="84"/>
      <point x="226" y="108"/>
      <point x="226" y="165" type="curve" smooth="yes"/>
      <point x="226" y="294"/>
      <point x="288" y="396"/>
      <point x="359" y="396" type="curve" smooth="yes"/>
      <point x="394" y="396"/>
      <point x="421" y="371"/>
      <point x="421" y="301" type="curve" smooth="yes"/>
      <point x="421" y="169"/>
      <point x="351" y="84"/>
    </contour>
    <contour>
      <point x="258" y="556" type="curve" smooth="yes"/>
      <point x="258" y="547"/>
      <point x="265" y="537"/>
      <point x="274" y="537" type="curve" smooth="yes"/>
      <point x="280" y="537"/>
      <point x="292" y="540"/>
      <point x="303" y="547" type="curve" smooth="yes"/>
      <point x="497" y="670" type="line" smooth="yes"/>
      <point x="512" y="680"/>
      <point x="513" y="684"/>
      <point x="513" y="693" type="curve" smooth="yes"/>
      <point x="513" y="701"/>
      <point x="507" y="711"/>
      <point x="497" y="711" type="curve" smooth="yes"/>
      <point x="488" y="711"/>
      <point x="476" y="708"/>
      <point x="471" y="704" type="curve" smooth="yes"/>
      <point x="279" y="581" type="line" smooth="yes"/>
      <point x="265" y="572"/>
      <point x="258" y="564"/>
    </contour>
  </outline>
</glyph>
<glyph name="Dcroat" format="2">
  <advance width="732"/>
  <unicode hex="0110"/>
  <outline>
    <contour>
      <point x="464" y="386" type="curve" smooth="yes"/>
      <point x="175" y="386" type="line" smooth="yes"/>
      <point x="157" y="386"/>
      <point x="142.0" y="374.0"/>
      <point x="142" y="362" type="curve" smooth="yes"/>
      <point x="142.0" y="351"/>
      <point x="150" y="344"/>
      <point x="165" y="344" type="curve" smooth="yes"/>
      <point x="454" y="344" type="line" smooth="yes"/>
      <point x="472.0" y="344.0"/>
      <point x="487.0" y="356.0"/>
      <point x="487" y="368" type="curve" smooth="yes"/>
      <point x="487.0" y="379"/>
      <point x="479.0" y="386.0"/>
    </contour>
    <component base="D"/>
  </outline>
</glyph>
<glyph name="dcroat" format="2">
  <advance width="576"/>
  <unicode hex="0111"/>
  <outline>
    <contour>
      <point x="539" y="508" type="line"/>
      <point x="676" y="508" type="line" smooth="yes"/>
      <point x="690.1818181818181" y="508"/>
      <point x="700.7617290745324" y="517.9024779689206"/>
      <point x="702" y="534" type="curve" smooth="yes"/>
      <point x="702.0" y="547.1428571428571"/>
      <point x="690.2608695652174" y="557"/>
      <point x="675" y="557" type="curve" smooth="yes"/>
      <point x="541" y="557" type="line"/>
    </contour>
    <contour>
      <point x="380" y="544" type="curve" smooth="yes"/>
      <point x="380.0" y="527.9047619047619"/>
      <point x="388.2105263157895" y="518"/>
      <point x="406" y="518" type="curve" smooth="yes"/>
      <point x="529" y="518" type="line"/>
      <point x="531" y="566" type="line"/>
      <point x="408" y="566" type="line" smooth="yes"/>
      <point x="392.0" y="566"/>
      <point x="380.0" y="556.2222222222222"/>
    </contour>
    <contour>
      <point x="562" y="349" type="line"/>
      <point x="564" y="416"/>
      <point x="507" y="470"/>
      <point x="421" y="470" type="curve" smooth="yes"/>
      <point x="246.98607242339833" y="470.0"/>
      <point x="72.0" y="283.64864864864865"/>
      <point x="72" y="120" type="curve" smooth="yes"/>
      <point x="72" y="32"/>
      <point x="118" y="-15"/>
      <point x="193" y="-15" type="curve" smooth="yes"/>
      <point x="278" y="-15"/>
      <point x="360" y="44"/>
      <point x="433" y="201" type="curve"/>
      <point x="407" y="201" type="line"/>
      <point x="407" y="157"/>
      <point x="393" y="112"/>
      <point x="393" y="61" type="curve" smooth="yes"/>
      <point x="393" y="19"/>
      <point x="421" y="-15"/>
      <point x="463" y="-15" type="curve" smooth="yes"/>
      <point x="550" y="-15"/>
      <point x="613" y="51"/>
      <point x="613" y="98" type="curve" smooth="yes"/>
      <point x="613" y="120"/>
      <point x="602" y="135"/>
      <point x="586" y="135" type="curve" smooth="yes"/>
      <point x="579" y="135"/>
      <point x="574" y="132"/>
      <point x="570" y="127" type="curve" smooth="yes"/>
      <point x="564" y="120"/>
      <point x="558" y="115"/>
      <point x="547" y="115" type="curve" smooth="yes"/>
      <point x="534" y="115"/>
      <point x="525" y="129"/>
      <point x="525" y="163" type="curve" smooth="yes"/>
      <point x="525" y="180"/>
      <point x="528" y="209"/>
      <point x="539" y="247" type="curve" smooth="yes"/>
      <point x="599" y="461" type="line" smooth="yes"/>
      <point x="615" y="516"/>
      <point x="595" y="541"/>
      <point x="595" y="571" type="curve" smooth="yes"/>
      <point x="595.0" y="603.3703703703704"/>
      <point x="604.2093023255813" y="617.0"/>
      <point x="628" y="617" type="curve" smooth="yes"/>
      <point x="654.8235294117648" y="617.0"/>
      <point x="677.1764705882352" y="591.0"/>
      <point x="723" y="591" type="curve" smooth="yes"/>
      <point x="758.8441558441558" y="591.0"/>
      <point x="783.0" y="619.5185185185185"/>
      <point x="783" y="661" type="curve" smooth="yes"/>
      <point x="783.0" y="697.8"/>
      <point x="754.0" y="725.0"/>
      <point x="700" y="725" type="curve" smooth="yes"/>
      <point x="626" y="725"/>
      <point x="550" y="672"/>
      <point x="521" y="582" type="curve" smooth="yes"/>
      <point x="452" y="367" type="line" smooth="yes"/>
      <point x="391" y="177"/>
      <point x="320" y="107"/>
      <point x="261" y="107" type="curve" smooth="yes"/>
      <point x="225" y="107"/>
      <point x="202" y="131"/>
      <point x="202" y="175" type="curve" smooth="yes"/>
      <point x="202.0" y="281.97196261682245"/>
      <point x="275.6179775280899" y="369.0"/>
      <point x="370" y="369" type="curve" smooth="yes"/>
      <point x="403" y="369"/>
      <point x="432" y="346"/>
      <point x="432" y="308" type="curve"/>
    </contour>
  </outline>
</glyph>
<glyph name="Hbar" format="2">
  <advance width="801"/>
  <unicode hex="0126"/>
  <outline>
    <contour>
      <point x="849" y="507" type="curve" smooth="yes"/>
      <point x="192" y="507" type="line" smooth="yes"/>
      <point x="172" y="507"/>
      <point x="156.0" y="495"/>
      <point x="156" y="476" type="curve" smooth="yes"/>
      <point x="156" y="463"/>
      <point x="164" y="455"/>
      <point x="179" y="455" type="curve" smooth="yes"/>
      <point x="839" y="455" type="line" smooth="yes"/>
      <point x="859.1818181818181" y="455"/>
      <point x="876.0" y="468.5"/>
      <point x="876" y="482" type="curve" smooth="yes"/>
      <point x="876.0" y="497.27777777777777"/>
      <point x="866.6086956521739" y="507"/>
    </contour>
    <component base="H"/>
  </outline>
</glyph>
<glyph name="dotlessi" format="2">
  <advance width="333"/>
  <unicode hex="0131"/>
  <anchor x="287" y="513" name="center"/>
  <outline>
    <contour>
      <point x="260" y="135" type="curve" smooth="yes"/>
      <point x="260" y="152"/>
      <point x="265" y="170"/>
      <point x="273" y="187" type="curve" smooth="yes"/>
      <point x="324" y="299" type="line" smooth="yes"/>
      <point x="346" y="348"/>
      <point x="359" y="387"/>
      <point x="359" y="421" type="curve" smooth="yes"/>
      <point x="359" y="461"/>
      <point x="337" y="490"/>
      <point x="290" y="490" type="curve" smooth="yes"/>
      <point x="187" y="490"/>
      <point x="106" y="425"/>
      <point x="106" y="375" type="curve" smooth="yes"/>
      <point x="106" y="351"/>
      <point x="122" y="341"/>
      <point x="137" y="341" type="curve" smooth="yes"/>
      <point x="146" y="341"/>
      <point x="154" y="345"/>
      <point x="164" y="355" type="curve" smooth="yes"/>
      <point x="172" y="363"/>
      <point x="177" y="366"/>
      <point x="186" y="366" type="curve" smooth="yes"/>
      <point x="199" y="366"/>
      <point x="207" y="354"/>
      <point x="207" y="343" type="curve" smooth="yes"/>
      <point x="207" y="329"/>
      <point x="203" y="320"/>
      <point x="197" y="308" type="curve" smooth="yes"/>
      <point x="131" y="166" type="line" smooth="yes"/>
      <point x="114" y="127"/>
      <point x="100" y="93"/>
      <point x="100" y="56" type="curve" smooth="yes"/>
      <point x="100" y="13"/>
      <point x="137" y="-15"/>
      <point x="193" y="-15" type="curve" smooth="yes"/>
      <point x="295" y="-15"/>
      <point x="351" y="48"/>
      <point x="351" y="101" type="curve" smooth="yes"/>
      <point x="351" y="120"/>
      <point x="342" y="132"/>
      <point x="329" y="132" type="curve" smooth="yes"/>
      <point x="319" y="132"/>
      <point x="312" y="129"/>
      <point x="302" y="120" type="curve" smooth="yes"/>
      <point x="295" y="113"/>
      <point x="288" y="108"/>
      <point x="280" y="108" type="curve" smooth="yes"/>
      <point x="268" y="108"/>
      <point x="260" y="117"/>
    </contour>
  </outline>
</glyph>
<glyph name="OE" format="2">
  <advance width="1056"/>
  <unicode hex="0152"/>
  <outline>
    <contour>
      <point x="860" y="0" type="line" smooth="yes"/>
      <point x="901" y="0"/>
      <point x="914" y="-21"/>
      <point x="952" y="-21" type="curve" smooth="yes"/>
      <point x="1010" y="-21"/>
      <point x="1060" y="57"/>
      <point x="1060" y="142" type="curve" smooth="yes"/>
      <point x="1060" y="180"/>
      <point x="1047" y="198"/>
      <point x="1026" y="198" type="curve" smooth="yes"/>
      <point x="1002" y="198"/>
      <point x="997" y="187"/>
      <point x="972" y="155" type="curve" smooth="yes"/>
      <point x="953" y="131" type="line" smooth="yes"/>
      <point x="918" y="87"/>
      <point x="881" y="66"/>
      <point x="828" y="66" type="curve" smooth="yes"/>
      <point x="799" y="66" type="line" smooth="yes"/>
      <point x="760" y="66"/>
      <point x="740" y="102"/>
      <point x="751" y="152" type="curve" smooth="yes"/>
      <point x="779" y="288"/>
      <point x="819" y="449"/>
      <point x="876" y="634" type="curve"/>
      <point x="958" y="634" type="line" smooth="yes"/>
      <point x="993" y="634"/>
      <point x="1019" y="620"/>
      <point x="1034" y="590" type="curve" smooth="yes"/>
      <point x="1055" y="548" type="line" smooth="yes"/>
      <point x="1072" y="514"/>
      <point x="1083" y="505"/>
      <point x="1107" y="505" type="curve" smooth="yes"/>
      <point x="1123" y="505"/>
      <point x="1143" y="521"/>
      <point x="1142" y="551" type="curve" smooth="yes"/>
      <point x="1139" y="684" type="line" smooth="yes"/>
      <point x="1138" y="715"/>
      <point x="1126" y="729"/>
      <point x="1105" y="729" type="curve" smooth="yes"/>
      <point x="1092" y="729"/>
      <point x="1077" y="723"/>
      <point x="1063" y="713" type="curve" smooth="yes"/>
      <point x="1053" y="706"/>
      <point x="1040" y="700"/>
      <point x="1030" y="700" type="curve" smooth="yes"/>
      <point x="693" y="700" type="line" smooth="yes"/>
      <point x="645" y="700"/>
      <point x="617" y="714"/>
      <point x="573" y="714" type="curve" smooth="yes"/>
      <point x="321" y="714"/>
      <point x="113" y="476"/>
      <point x="113" y="257" type="curve" smooth="yes"/>
      <point x="113" y="92"/>
      <point x="218" y="-15"/>
      <point x="391" y="-15" type="curve" smooth="yes"/>
      <point x="431" y="-15"/>
      <point x="479" y="0"/>
      <point x="499" y="0" type="curve" smooth="yes"/>
    </contour>
    <contour>
      <point x="417" y="74" type="curve" smooth="yes"/>
      <point x="351" y="74"/>
      <point x="307" y="136"/>
      <point x="307" y="239" type="curve" smooth="yes"/>
      <point x="307" y="444"/>
      <point x="440" y="627"/>
      <point x="558" y="627" type="curve" smooth="yes"/>
      <point x="628" y="627"/>
      <point x="661" y="567"/>
      <point x="661" y="510" type="curve" smooth="yes"/>
      <point x="661" y="465"/>
      <point x="658" y="444"/>
      <point x="650" y="403" type="curve" smooth="yes"/>
      <point x="642" y="363"/>
      <point x="611" y="254"/>
      <point x="604" y="233" type="curve" smooth="yes"/>
      <point x="568" y="128"/>
      <point x="509" y="74"/>
    </contour>
    <contour>
      <point x="751" y="383" type="line"/>
      <point x="740" y="314" type="line"/>
      <point x="907" y="314" type="line" smooth="yes"/>
      <point x="948" y="314"/>
      <point x="968" y="305"/>
      <point x="988" y="282" type="curve" smooth="yes"/>
      <point x="1009" y="259"/>
      <point x="1020" y="251"/>
      <point x="1042" y="251" type="curve" smooth="yes"/>
      <point x="1056" y="251"/>
      <point x="1069" y="262"/>
      <point x="1069" y="283" type="curve" smooth="yes"/>
      <point x="1069" y="286"/>
      <point x="1069" y="289"/>
      <point x="1047" y="412" type="curve" smooth="yes"/>
      <point x="1042" y="440"/>
      <point x="1028" y="460"/>
      <point x="1006" y="460" type="curve" smooth="yes"/>
      <point x="991" y="460"/>
      <point x="981" y="449"/>
      <point x="966" y="431" type="curve" smooth="yes"/>
      <point x="941" y="399"/>
      <point x="920" y="383"/>
      <point x="890" y="383" type="curve" smooth="yes"/>
    </contour>
  </outline>
</glyph>
<glyph name="commercialminussign" format="2">
  <advance width="531"/>
  <unicode hex="2052"/>
  <outline>
    <contour>
      <point x="613" y="551.0" type="curve" smooth="yes"/>
      <point x="647" y="583.0"/>
      <point x="657" y="603.0"/>
      <point x="664" y="630.0" type="curve" smooth="yes"/>
      <point x="671" y="657.0"/>
      <point x="653" y="677.0"/>
      <point x="619" y="677.0" type="curve" smooth="yes"/>
      <point x="587" y="677.0"/>
      <point x="556" y="660.0"/>
      <point x="526" y="625.0" type="curve" smooth="yes"/>
      <point x="463" y="549.0"/>
      <point x="417" y="449.0"/>
      <point x="332" y="349.0" type="curve" smooth="yes"/>
      <point x="238" y="239.0"/>
      <point x="166" y="193.0"/>
      <point x="100" y="131.0" type="curve" smooth="yes"/>
      <point x="52" y="86.0"/>
      <point x="38" y="52.0"/>
      <point x="31" y="24.0" type="curve" smooth="yes"/>
      <point x="25" y="1.0"/>
      <point x="39" y="-23.0"/>
      <point x="72" y="-23.0" type="curve" smooth="yes"/>
      <point x="104" y="-23.0"/>
      <point x="137" y="-10.0"/>
      <point x="173" y="37.0" type="curve" smooth="yes"/>
      <point x="233" y="110.0"/>
      <point x="252" y="194.0"/>
      <point x="366" y="322.0" type="curve" smooth="yes"/>
      <point x="465" y="434.0"/>
      <point x="552" y="493.0"/>
    </contour>
    <component base="periodcentered" xOffset="161" yOffset="-202"/>
    <component base="periodcentered" xOffset="31" yOffset="286"/>
  </outline>
</glyph>
<glyph name="zero.superior" format="2">
  <advance width="401"/>
  <unicode hex="2070"/>
  <outline>
    <contour>
      <point x="368" y="659" type="curve" smooth="yes"/>
      <point x="260" y="659"/>
      <point x="174" y="588"/>
      <point x="153" y="476" type="curve" smooth="yes"/>
      <point x="133" y="367"/>
      <point x="189" y="290"/>
      <point x="288" y="290" type="curve" smooth="yes"/>
      <point x="394" y="290"/>
      <point x="481" y="358"/>
      <point x="502" y="476" type="curve" smooth="yes"/>
      <point x="521" y="584"/>
      <point x="467" y="659"/>
    </contour>
    <contour>
      <point x="384" y="484" type="curve" smooth="yes"/>
      <point x="371" y="377"/>
      <point x="334" y="345"/>
      <point x="302" y="345" type="curve" smooth="yes"/>
      <point x="275" y="345"/>
      <point x="255" y="384"/>
      <point x="270" y="470" type="curve" smooth="yes"/>
      <point x="288" y="566"/>
      <point x="321" y="603"/>
      <point x="352" y="603" type="curve" smooth="yes"/>
      <point x="381" y="603"/>
      <point x="396" y="571"/>
    </contour>
  </outline>
</glyph>
<glyph name="four.superior" format="2">
  <advance width="379"/>
  <unicode hex="2074"/>
  <outline>
    <contour>
      <point x="326" y="481"/>
      <point x="318" y="467"/>
      <point x="314" y="450" type="curve" smooth="yes"/>
      <point x="297" y="389" type="line" smooth="yes"/>
      <point x="292" y="370"/>
      <point x="281" y="360"/>
      <point x="263" y="358" type="curve" smooth="yes"/>
      <point x="237" y="355"/>
      <point x="224" y="346"/>
      <point x="219" y="330" type="curve" smooth="yes"/>
      <point x="215" y="315"/>
      <point x="223" y="305"/>
      <point x="247" y="305" type="curve" smooth="yes"/>
      <point x="396" y="305" type="line" smooth="yes"/>
      <point x="419" y="305"/>
      <point x="431" y="315"/>
      <point x="435" y="330" type="curve" smooth="yes"/>
      <point x="440" y="346"/>
      <point x="430" y="353"/>
      <point x="412" y="357" type="curve" smooth="yes"/>
      <point x="397" y="361"/>
      <point x="392" y="369"/>
      <point x="397" y="388" type="curve" smooth="yes"/>
      <point x="431" y="516" type="line" smooth="yes"/>
      <point x="436" y="532"/>
      <point x="429" y="539"/>
      <point x="419" y="539" type="curve" smooth="yes"/>
      <point x="413" y="539"/>
      <point x="406" y="537"/>
      <point x="397" y="531" type="curve" smooth="yes"/>
      <point x="347" y="496" type="line" smooth="yes"/>
    </contour>
    <contour>
      <point x="262" y="517" type="curve" smooth="yes"/>
      <point x="173" y="456" type="line" smooth="yes"/>
      <point x="156" y="444"/>
      <point x="144" y="431"/>
      <point x="141" y="418" type="curve" smooth="yes"/>
      <point x="137" y="402"/>
      <point x="144" y="393"/>
      <point x="161" y="393" type="curve" smooth="yes"/>
      <point x="430" y="393" type="line" smooth="yes"/>
      <point x="452" y="393"/>
      <point x="464" y="401"/>
      <point x="469" y="418" type="curve" smooth="yes"/>
      <point x="474" y="435"/>
      <point x="462" y="441"/>
      <point x="443" y="441" type="curve" smooth="yes"/>
      <point x="171" y="441" type="line"/>
      <point x="182" y="414" type="line"/>
      <point x="377" y="551" type="line" smooth="yes"/>
      <point x="405" y="571"/>
      <point x="421" y="589"/>
      <point x="426" y="608" type="curve" smooth="yes"/>
      <point x="435" y="642"/>
      <point x="417" y="665"/>
      <point x="380" y="665" type="curve" smooth="yes"/>
      <point x="337" y="665"/>
      <point x="307" y="634"/>
      <point x="299" y="606" type="curve" smooth="yes"/>
      <point x="295" y="588"/>
      <point x="303" y="577"/>
      <point x="299" y="562" type="curve" smooth="yes"/>
      <point x="294" y="546"/>
      <point x="282" y="531"/>
    </contour>
  </outline>
</glyph>
<glyph name="lira" format="2">
  <advance width="574"/>
  <unicode hex="20A4"/>
  <outline>
    <contour>
      <point x="158" y="361" type="curve" smooth="yes"/>
      <point x="154" y="348"/>
      <point x="159" y="340"/>
      <point x="172" y="340" type="curve" smooth="yes"/>
      <point x="474" y="340" type="line" smooth="yes"/>
      <point x="487" y="340"/>
      <point x="498" y="348"/>
      <point x="502" y="361" type="curve" smooth="yes"/>
      <point x="505" y="373"/>
      <point x="498" y="382"/>
      <point x="485" y="382" type="curve" smooth="yes"/>
      <point x="184" y="382" type="line" smooth="yes"/>
      <point x="172" y="382"/>
      <point x="161" y="373"/>
    </contour>
    <contour>
      <point x="140" y="257" type="curve" smooth="yes"/>
      <point x="136" y="244"/>
      <point x="141" y="236"/>
      <point x="154" y="236" type="curve" smooth="yes"/>
      <point x="446" y="236" type="line" smooth="yes"/>
      <point x="459" y="236"/>
      <point x="470" y="244"/>
      <point x="474" y="257" type="curve" smooth="yes"/>
      <point x="477" y="269"/>
      <point x="470" y="278"/>
      <point x="457" y="278" type="curve" smooth="yes"/>
      <point x="166" y="278" type="line" smooth="yes"/>
      <point x="154" y="278"/>
      <point x="143" y="269"/>
    </contour>
    <contour>
      <point x="228" y="50"/>
      <point x="184" y="29"/>
      <point x="143" y="29" type="curve" smooth="yes"/>
      <point x="109" y="29"/>
      <point x="87" y="44"/>
      <point x="93" y="67" type="curve" smooth="yes"/>
      <point x="98" y="87"/>
      <point x="117" y="100"/>
      <point x="140" y="100" type="curve" smooth="yes"/>
      <point x="206" y="100"/>
      <point x="268" y="-15"/>
      <point x="402" y="-15" type="curve" smooth="yes"/>
      <point x="493" y="-15"/>
      <point x="566" y="48"/>
      <point x="595" y="158" type="curve" smooth="yes"/>
      <point x="603" y="186"/>
      <point x="592" y="202"/>
      <point x="574" y="202" type="curve" smooth="yes"/>
      <point x="555" y="202"/>
      <point x="537" y="185"/>
      <point x="523" y="165" type="curve" smooth="yes"/>
      <point x="498" y="129"/>
      <point x="465" y="109"/>
      <point x="409" y="109" type="curve" smooth="yes"/>
      <point x="347" y="109"/>
      <point x="273" y="179"/>
      <point x="184" y="179" type="curve" smooth="yes"/>
      <point x="111" y="179"/>
      <point x="52" y="139"/>
      <point x="37" y="81" type="curve" smooth="yes"/>
      <point x="21" y="24"/>
      <point x="59" y="-15"/>
      <point x="134" y="-15" type="curve" smooth="yes"/>
      <point x="198" y="-15"/>
      <point x="287" y="28"/>
      <point x="314" y="129" type="curve" smooth="yes"/>
      <point x="343" y="237"/>
      <point x="346" y="351"/>
      <point x="380" y="478" type="curve" smooth="yes"/>
      <point x="405" y="570"/>
      <point x="441" y="609"/>
      <point x="490" y="609" type="curve" smooth="yes"/>
      <point x="519" y="609"/>
      <point x="535" y="590"/>
      <point x="524" y="549" type="curve" smooth="yes"/>
      <point x="518" y="525" type="line" smooth="yes"/>
      <point x="505" y="476"/>
      <point x="532" y="442"/>
      <point x="573" y="442" type="curve" smooth="yes"/>
      <point x="622" y="442"/>
      <point x="660" y="471"/>
      <point x="674" y="523" type="curve" smooth="yes"/>
      <point x="696" y="604"/>
      <point x="650" y="664"/>
      <point x="515" y="664" type="curve" smooth="yes"/>
      <point x="378" y="664"/>
      <point x="264" y="584"/>
      <point x="229" y="453" type="curve" smooth="yes"/>
      <point x="200" y="342"/>
      <point x="276" y="228"/>
      <point x="250" y="131" type="curve" smooth="yes"/>
    </contour>
  </outline>
</glyph>
